M48
; DRILL file KiCad 10.0.1 date 2026-04-26T19:23:30
; FORMAT={-:-/ absolute / metric / decimal}
; #@! TF.CreationDate,2026-04-26T19:23:30-06:00
; #@! TF.GenerationSoftware,Kicad,Pcbnew,10.0.1
; #@! TF.FileFunction,Plated,1,2,PTH
FMAT,2
METRIC
; #@! TA.AperFunction,Plated,PTH,ViaDrill
T1C0.400
%
G90
G05
T1
X28.79Y-81.613
X28.834Y-70.779
X29.442Y-85.729
X29.486Y-66.663
X30.189Y-81.096
X32.771Y-95.976
X32.842Y-56.429
X34.662Y-99.688
X34.734Y-52.716
X36.123Y-53.117
X41.038Y-108.435
X41.046Y-43.993
X41.843Y-107.191
X43.985Y-111.382
X43.993Y-41.046
X49.53Y-83.82
X49.53Y-87.63
X52.706Y-117.735
X52.723Y-34.711
X56.418Y-119.626
X56.436Y-32.819
X57.342Y-33.944
X58.42Y-83.82
X58.42Y-87.63
X66.622Y-121.47
X66.697Y-122.952
X66.701Y-29.495
X68.58Y-83.82
X68.58Y-87.63
X70.812Y-123.604
X70.817Y-28.843
X76.137Y-73.343
X76.2Y-89.154
X76.2Y-90.424
X76.2Y-91.694
X76.2Y-92.964
X76.2Y-94.234
X76.2Y-102.87
X76.2Y-104.14
X76.2Y-106.68
X80.137Y-76.708
X81.59Y-28.835
X81.607Y-123.573
X85.706Y-29.487
X85.723Y-122.921
X85.778Y-30.93
X95.058Y-118.456
X95.959Y-119.589
X95.985Y-32.824
X99.672Y-117.698
X99.697Y-34.716
X108.409Y-111.352
X108.431Y-41.061
X110.562Y-45.199
X111.355Y-108.405
X111.377Y-44.007
X116.278Y-99.272
X117.667Y-52.728
X117.698Y-99.672
X119.559Y-56.441
X119.589Y-95.959
X122.214Y-71.335
X122.922Y-85.733
X122.932Y-66.707
X123.574Y-81.617
X123.583Y-70.823
M30
