%TF.GenerationSoftware,KiCad,Pcbnew,10.0.1*%
%TF.CreationDate,2026-04-26T23:12:00-06:00*%
%TF.ProjectId,All_Lit_Up,416c6c5f-4c69-4745-9f55-702e6b696361,1.1*%
%TF.SameCoordinates,Original*%
%TF.FileFunction,Soldermask,Top*%
%TF.FilePolarity,Negative*%
%FSLAX46Y46*%
G04 Gerber Fmt 4.6, Leading zero omitted, Abs format (unit mm)*
G04 Created by KiCad (PCBNEW 10.0.1) date 2026-04-26 23:12:00*
%MOMM*%
%LPD*%
G01*
G04 APERTURE LIST*
G04 APERTURE END LIST*
G36*
X69391506Y-122823315D02*
G01*
X69399815Y-122822989D01*
X69662303Y-122864563D01*
X69827815Y-122890777D01*
X69827819Y-122890778D01*
X69831928Y-122891429D01*
X69839718Y-122894303D01*
X69894639Y-122910572D01*
X69907706Y-122919385D01*
X69925952Y-122926117D01*
X69948261Y-122946739D01*
X69969490Y-122961058D01*
X69981227Y-122977213D01*
X69999544Y-122994145D01*
X70009987Y-123016797D01*
X70021723Y-123032951D01*
X70028781Y-123057565D01*
X70041501Y-123085157D01*
X70042264Y-123104587D01*
X70046609Y-123119738D01*
X70045108Y-123176973D01*
X70045436Y-123185297D01*
X69965263Y-123691487D01*
X69962388Y-123699279D01*
X69946120Y-123754198D01*
X69937308Y-123767262D01*
X69930576Y-123785511D01*
X69909949Y-123807824D01*
X69895634Y-123829049D01*
X69879481Y-123840784D01*
X69862548Y-123859103D01*
X69839892Y-123869547D01*
X69823741Y-123881282D01*
X69799129Y-123888339D01*
X69771536Y-123901060D01*
X69752104Y-123901823D01*
X69736954Y-123906168D01*
X69679718Y-123904667D01*
X69671395Y-123904995D01*
X69239282Y-123836555D01*
X69231481Y-123833677D01*
X69176570Y-123817411D01*
X69163504Y-123808598D01*
X69145258Y-123801867D01*
X69122947Y-123781243D01*
X69101719Y-123766925D01*
X69089981Y-123750769D01*
X69071666Y-123733839D01*
X69061223Y-123711187D01*
X69049486Y-123695032D01*
X69042426Y-123670414D01*
X69029709Y-123642827D01*
X69028945Y-123623399D01*
X69024600Y-123608245D01*
X69026100Y-123550995D01*
X69025774Y-123542687D01*
X69056077Y-123351358D01*
X69105295Y-123040606D01*
X69105297Y-123040597D01*
X69105947Y-123036497D01*
X69108815Y-123028721D01*
X69125089Y-122973785D01*
X69133903Y-122960716D01*
X69140634Y-122942473D01*
X69161253Y-122920166D01*
X69175575Y-122898934D01*
X69191733Y-122887194D01*
X69208662Y-122868881D01*
X69231310Y-122858439D01*
X69247468Y-122846701D01*
X69272088Y-122839641D01*
X69299674Y-122826924D01*
X69319100Y-122826160D01*
X69334255Y-122821815D01*
X69391506Y-122823315D01*
G37*
G36*
X83106297Y-122826160D02*
G01*
X83125726Y-122826924D01*
X83153313Y-122839642D01*
X83177931Y-122846701D01*
X83194086Y-122858438D01*
X83216738Y-122868881D01*
X83233668Y-122887196D01*
X83249824Y-122898934D01*
X83264142Y-122920162D01*
X83284766Y-122942473D01*
X83291497Y-122960719D01*
X83300310Y-122973785D01*
X83316578Y-123028704D01*
X83319453Y-123036497D01*
X83399626Y-123542687D01*
X83399299Y-123550997D01*
X83400799Y-123608244D01*
X83396454Y-123623394D01*
X83395691Y-123642827D01*
X83382970Y-123670420D01*
X83375913Y-123695032D01*
X83364178Y-123711183D01*
X83353734Y-123733839D01*
X83335415Y-123750772D01*
X83323680Y-123766925D01*
X83302455Y-123781240D01*
X83280142Y-123801867D01*
X83261892Y-123808599D01*
X83248829Y-123817411D01*
X83193934Y-123833671D01*
X83186118Y-123836555D01*
X82754005Y-123904995D01*
X82745692Y-123904668D01*
X82688446Y-123906168D01*
X82673295Y-123901823D01*
X82653864Y-123901060D01*
X82626271Y-123888339D01*
X82601658Y-123881282D01*
X82585504Y-123869546D01*
X82562852Y-123859103D01*
X82545920Y-123840786D01*
X82529765Y-123829049D01*
X82515446Y-123807820D01*
X82494824Y-123785511D01*
X82488093Y-123767265D01*
X82479279Y-123754198D01*
X82463008Y-123699269D01*
X82460137Y-123691487D01*
X82459486Y-123687382D01*
X82459485Y-123687376D01*
X82380615Y-123189408D01*
X82380614Y-123189407D01*
X82379964Y-123185297D01*
X82380289Y-123177000D01*
X82378790Y-123119739D01*
X82383135Y-123104583D01*
X82383899Y-123085157D01*
X82396616Y-123057570D01*
X82403676Y-123032951D01*
X82415414Y-123016793D01*
X82425856Y-122994145D01*
X82444169Y-122977216D01*
X82455909Y-122961058D01*
X82477141Y-122946736D01*
X82499448Y-122926117D01*
X82517691Y-122919386D01*
X82530760Y-122910572D01*
X82585673Y-122894306D01*
X82593472Y-122891429D01*
X83025585Y-122822989D01*
X83033881Y-122823315D01*
X83091143Y-122821815D01*
X83106297Y-122826160D01*
G37*
G36*
X67835896Y-122576931D02*
G01*
X67844205Y-122576605D01*
X68106693Y-122618179D01*
X68272205Y-122644393D01*
X68272209Y-122644394D01*
X68276318Y-122645045D01*
X68284108Y-122647919D01*
X68339029Y-122664188D01*
X68352096Y-122673001D01*
X68370342Y-122679733D01*
X68392651Y-122700355D01*
X68413880Y-122714674D01*
X68425617Y-122730829D01*
X68443934Y-122747761D01*
X68454377Y-122770413D01*
X68466113Y-122786567D01*
X68473171Y-122811181D01*
X68485891Y-122838773D01*
X68486654Y-122858203D01*
X68490999Y-122873354D01*
X68489498Y-122930589D01*
X68489826Y-122938913D01*
X68409653Y-123445103D01*
X68406778Y-123452895D01*
X68390510Y-123507814D01*
X68381698Y-123520878D01*
X68374966Y-123539127D01*
X68354339Y-123561440D01*
X68340024Y-123582665D01*
X68323871Y-123594400D01*
X68306938Y-123612719D01*
X68284282Y-123623163D01*
X68268131Y-123634898D01*
X68243519Y-123641955D01*
X68215926Y-123654676D01*
X68196494Y-123655439D01*
X68181344Y-123659784D01*
X68124108Y-123658283D01*
X68115785Y-123658611D01*
X67683672Y-123590171D01*
X67675871Y-123587293D01*
X67620960Y-123571027D01*
X67607894Y-123562214D01*
X67589648Y-123555483D01*
X67567337Y-123534859D01*
X67546109Y-123520541D01*
X67534371Y-123504385D01*
X67516056Y-123487455D01*
X67505613Y-123464803D01*
X67493876Y-123448648D01*
X67486816Y-123424030D01*
X67474099Y-123396443D01*
X67473335Y-123377015D01*
X67468990Y-123361861D01*
X67470490Y-123304611D01*
X67470164Y-123296303D01*
X67510662Y-123040607D01*
X67549685Y-122794222D01*
X67549687Y-122794213D01*
X67550337Y-122790113D01*
X67553205Y-122782337D01*
X67569479Y-122727401D01*
X67578293Y-122714332D01*
X67585024Y-122696089D01*
X67605643Y-122673782D01*
X67619965Y-122652550D01*
X67636123Y-122640810D01*
X67653052Y-122622497D01*
X67675700Y-122612055D01*
X67691858Y-122600317D01*
X67716478Y-122593257D01*
X67744064Y-122580540D01*
X67763490Y-122579776D01*
X67778645Y-122575431D01*
X67835896Y-122576931D01*
G37*
G36*
X84661907Y-122579776D02*
G01*
X84681336Y-122580540D01*
X84708923Y-122593258D01*
X84733541Y-122600317D01*
X84749696Y-122612054D01*
X84772348Y-122622497D01*
X84789278Y-122640812D01*
X84805434Y-122652550D01*
X84819752Y-122673778D01*
X84840376Y-122696089D01*
X84847107Y-122714335D01*
X84855920Y-122727401D01*
X84872188Y-122782320D01*
X84875063Y-122790113D01*
X84955236Y-123296303D01*
X84954909Y-123304613D01*
X84956409Y-123361860D01*
X84952064Y-123377010D01*
X84951301Y-123396443D01*
X84938580Y-123424036D01*
X84931523Y-123448648D01*
X84919788Y-123464799D01*
X84909344Y-123487455D01*
X84891025Y-123504388D01*
X84879290Y-123520541D01*
X84858065Y-123534856D01*
X84835752Y-123555483D01*
X84817502Y-123562215D01*
X84804439Y-123571027D01*
X84749544Y-123587287D01*
X84741728Y-123590171D01*
X84309615Y-123658611D01*
X84301302Y-123658284D01*
X84244056Y-123659784D01*
X84228905Y-123655439D01*
X84209474Y-123654676D01*
X84181881Y-123641955D01*
X84157268Y-123634898D01*
X84141114Y-123623162D01*
X84118462Y-123612719D01*
X84101530Y-123594402D01*
X84085375Y-123582665D01*
X84071056Y-123561436D01*
X84050434Y-123539127D01*
X84043703Y-123520881D01*
X84034889Y-123507814D01*
X84018618Y-123452885D01*
X84015747Y-123445103D01*
X84015096Y-123440998D01*
X84015095Y-123440992D01*
X83936225Y-122943024D01*
X83936224Y-122943023D01*
X83935574Y-122938913D01*
X83935899Y-122930616D01*
X83934400Y-122873355D01*
X83938745Y-122858199D01*
X83939509Y-122838773D01*
X83952226Y-122811186D01*
X83959286Y-122786567D01*
X83971024Y-122770409D01*
X83981466Y-122747761D01*
X83999779Y-122730832D01*
X84011519Y-122714674D01*
X84032751Y-122700352D01*
X84055058Y-122679733D01*
X84073301Y-122673002D01*
X84086370Y-122664188D01*
X84141283Y-122647922D01*
X84149082Y-122645045D01*
X84581195Y-122576605D01*
X84589491Y-122576931D01*
X84646753Y-122575431D01*
X84661907Y-122579776D01*
G37*
G36*
X55246562Y-118422506D02*
G01*
X55262314Y-118423057D01*
X55316298Y-118442174D01*
X55324304Y-118444432D01*
X55551884Y-118560390D01*
X55664023Y-118617528D01*
X55714119Y-118643053D01*
X55720636Y-118648190D01*
X55767845Y-118680636D01*
X55777551Y-118693059D01*
X55792822Y-118705098D01*
X55807665Y-118731602D01*
X55823433Y-118751784D01*
X55829604Y-118770778D01*
X55841790Y-118792537D01*
X55844721Y-118817301D01*
X55850893Y-118836297D01*
X55849998Y-118861894D01*
X55853569Y-118892060D01*
X55848291Y-118910773D01*
X55847741Y-118926529D01*
X55828626Y-118980502D01*
X55826367Y-118988515D01*
X55593697Y-119445156D01*
X55588543Y-119451692D01*
X55556109Y-119498885D01*
X55543691Y-119508586D01*
X55531652Y-119523859D01*
X55505146Y-119538702D01*
X55484967Y-119554469D01*
X55465972Y-119560640D01*
X55444212Y-119572827D01*
X55419445Y-119575758D01*
X55400452Y-119581930D01*
X55374858Y-119581035D01*
X55344689Y-119584607D01*
X55325971Y-119579328D01*
X55310223Y-119578778D01*
X55256248Y-119559664D01*
X55248234Y-119557404D01*
X54858419Y-119358783D01*
X54851898Y-119353642D01*
X54804692Y-119321199D01*
X54794985Y-119308775D01*
X54779716Y-119296738D01*
X54764873Y-119270234D01*
X54749104Y-119250051D01*
X54742931Y-119231054D01*
X54730748Y-119209299D01*
X54727817Y-119184537D01*
X54721644Y-119165538D01*
X54722538Y-119139934D01*
X54718969Y-119109776D01*
X54724245Y-119091066D01*
X54724796Y-119075306D01*
X54743916Y-119021314D01*
X54746171Y-119013321D01*
X54879565Y-118751520D01*
X54976950Y-118560390D01*
X54976952Y-118560386D01*
X54978841Y-118556680D01*
X54983980Y-118550160D01*
X55016428Y-118502950D01*
X55028849Y-118493244D01*
X55040886Y-118477977D01*
X55067383Y-118463137D01*
X55087570Y-118447366D01*
X55106571Y-118441191D01*
X55128326Y-118429009D01*
X55153085Y-118426078D01*
X55172085Y-118419905D01*
X55197685Y-118420799D01*
X55227849Y-118417229D01*
X55246562Y-118422506D01*
G37*
G36*
X97202314Y-118420799D02*
G01*
X97227914Y-118419905D01*
X97246912Y-118426078D01*
X97271674Y-118429009D01*
X97293430Y-118441192D01*
X97312429Y-118447366D01*
X97332613Y-118463136D01*
X97359114Y-118477977D01*
X97371151Y-118493246D01*
X97383570Y-118502949D01*
X97416002Y-118550138D01*
X97421159Y-118556680D01*
X97653829Y-119013321D01*
X97656084Y-119021317D01*
X97675203Y-119075307D01*
X97675753Y-119091062D01*
X97681031Y-119109776D01*
X97677460Y-119139941D01*
X97678355Y-119165538D01*
X97672183Y-119184532D01*
X97669252Y-119209299D01*
X97657065Y-119231058D01*
X97650895Y-119250051D01*
X97635128Y-119270230D01*
X97620284Y-119296738D01*
X97605012Y-119308777D01*
X97595309Y-119321197D01*
X97548118Y-119353629D01*
X97541581Y-119358783D01*
X97151766Y-119557404D01*
X97143762Y-119559661D01*
X97089778Y-119578778D01*
X97074028Y-119579328D01*
X97055311Y-119584607D01*
X97025140Y-119581035D01*
X96999547Y-119581930D01*
X96980552Y-119575758D01*
X96955788Y-119572827D01*
X96934029Y-119560641D01*
X96915032Y-119554469D01*
X96894849Y-119538700D01*
X96868348Y-119523859D01*
X96856310Y-119508589D01*
X96843891Y-119498886D01*
X96811457Y-119451694D01*
X96806303Y-119445156D01*
X96589358Y-119019377D01*
X96575522Y-118992223D01*
X96575521Y-118992220D01*
X96573633Y-118988515D01*
X96571380Y-118980527D01*
X96552258Y-118926528D01*
X96551707Y-118910769D01*
X96546431Y-118892060D01*
X96550000Y-118861901D01*
X96549106Y-118836297D01*
X96555279Y-118817296D01*
X96558210Y-118792537D01*
X96570392Y-118770782D01*
X96576566Y-118751784D01*
X96592337Y-118731597D01*
X96607178Y-118705098D01*
X96622444Y-118693062D01*
X96632152Y-118680638D01*
X96679360Y-118648193D01*
X96685881Y-118643053D01*
X96689589Y-118641163D01*
X96689593Y-118641161D01*
X97071987Y-118446321D01*
X97071992Y-118446319D01*
X97075696Y-118444432D01*
X97083680Y-118442180D01*
X97137683Y-118423057D01*
X97153437Y-118422506D01*
X97172151Y-118417229D01*
X97202314Y-118420799D01*
G37*
G36*
X80098137Y-32973836D02*
G01*
X80100034Y-32974013D01*
X80100038Y-32974014D01*
X80190774Y-32982520D01*
X80251108Y-32988177D01*
X80251107Y-32988177D01*
X80317356Y-32994385D01*
X80901493Y-33049132D01*
X80901501Y-33049132D01*
X80901961Y-33049176D01*
X80903254Y-33049317D01*
X81155970Y-33080720D01*
X82200192Y-33210477D01*
X82200216Y-33210480D01*
X82200688Y-33210539D01*
X82201975Y-33210719D01*
X82202396Y-33210784D01*
X82202430Y-33210789D01*
X83493511Y-33410911D01*
X83493547Y-33410917D01*
X83493959Y-33410981D01*
X83495240Y-33411199D01*
X83495664Y-33411277D01*
X83495694Y-33411283D01*
X84780120Y-33650229D01*
X84780164Y-33650238D01*
X84780600Y-33650319D01*
X84781874Y-33650576D01*
X84782313Y-33650671D01*
X84782400Y-33650689D01*
X86058937Y-33928226D01*
X86059036Y-33928249D01*
X86059440Y-33928337D01*
X86060705Y-33928632D01*
X87329317Y-34244782D01*
X87330573Y-34245115D01*
X88589078Y-34599365D01*
X88590324Y-34599736D01*
X88590768Y-34599875D01*
X88590793Y-34599883D01*
X89425153Y-34862135D01*
X89837577Y-34991766D01*
X89838810Y-34992174D01*
X91073678Y-35421626D01*
X91074899Y-35422072D01*
X92296258Y-35888556D01*
X92297465Y-35889038D01*
X92297891Y-35889215D01*
X92297897Y-35889218D01*
X93495766Y-36388612D01*
X93504207Y-36392131D01*
X93505399Y-36392649D01*
X93505744Y-36392805D01*
X93505831Y-36392843D01*
X94695954Y-36931677D01*
X94696047Y-36931720D01*
X94696425Y-36931892D01*
X94697600Y-36932446D01*
X94697995Y-36932639D01*
X94698062Y-36932671D01*
X95871387Y-37507132D01*
X95871471Y-37507174D01*
X95871829Y-37507350D01*
X95872988Y-37507938D01*
X97029351Y-38117980D01*
X97030491Y-38118604D01*
X97030944Y-38118861D01*
X98167487Y-38762974D01*
X98167507Y-38762985D01*
X98167938Y-38763230D01*
X98169058Y-38763888D01*
X98169443Y-38764122D01*
X98169474Y-38764140D01*
X99063354Y-39306968D01*
X99286554Y-39442511D01*
X99287655Y-39443202D01*
X99288029Y-39443445D01*
X100383793Y-40154950D01*
X100383814Y-40154964D01*
X100384185Y-40155205D01*
X100385264Y-40155929D01*
X100385652Y-40156198D01*
X101459429Y-40900387D01*
X101459446Y-40900399D01*
X101459831Y-40900666D01*
X101460888Y-40901422D01*
X102512515Y-41678216D01*
X102513548Y-41679004D01*
X102715675Y-41837944D01*
X103536924Y-42483722D01*
X103541280Y-42487147D01*
X103542289Y-42487965D01*
X103542673Y-42488286D01*
X103542695Y-42488304D01*
X104544797Y-43326394D01*
X104544847Y-43326437D01*
X104545190Y-43326724D01*
X104546175Y-43327573D01*
X105523334Y-44196185D01*
X105524292Y-44197063D01*
X106474821Y-45094739D01*
X106475752Y-45095645D01*
X107398787Y-46021568D01*
X107399690Y-46022502D01*
X108294392Y-46975831D01*
X108295267Y-46976792D01*
X109160822Y-47956660D01*
X109161668Y-47957647D01*
X109997290Y-48963164D01*
X109998105Y-48964176D01*
X110803034Y-49994427D01*
X110803819Y-49995463D01*
X111577323Y-51049511D01*
X111578076Y-51050570D01*
X112319452Y-52127459D01*
X112320172Y-52128540D01*
X113028747Y-53227289D01*
X113029435Y-53228392D01*
X113029653Y-53228755D01*
X113029667Y-53228776D01*
X113165970Y-53454817D01*
X113704563Y-54348003D01*
X113705217Y-54349126D01*
X114346286Y-55488581D01*
X114346906Y-55489723D01*
X114347133Y-55490158D01*
X114347137Y-55490164D01*
X114948987Y-56639688D01*
X114953332Y-56647986D01*
X114953917Y-56649146D01*
X114954124Y-56649572D01*
X114954134Y-56649592D01*
X115524922Y-57824693D01*
X115524953Y-57824761D01*
X115525150Y-57825165D01*
X115525701Y-57826342D01*
X116061221Y-59019047D01*
X116061735Y-59020240D01*
X116561055Y-60228548D01*
X116561533Y-60229757D01*
X117024200Y-61452568D01*
X117024642Y-61453790D01*
X117450234Y-62689993D01*
X117450638Y-62691228D01*
X117838769Y-63939700D01*
X117839136Y-63940946D01*
X118189453Y-65200551D01*
X118189782Y-65201809D01*
X118189890Y-65202250D01*
X118189892Y-65202256D01*
X118499729Y-66462303D01*
X118501967Y-66471403D01*
X118502258Y-66472669D01*
X118502362Y-66473158D01*
X118502368Y-66473181D01*
X118774537Y-67744141D01*
X118776027Y-67751097D01*
X118776280Y-67752372D01*
X119011383Y-69038472D01*
X119011598Y-69039753D01*
X119207823Y-70332356D01*
X119207998Y-70333644D01*
X119365165Y-71631575D01*
X119365302Y-71632867D01*
X119483270Y-72934947D01*
X119483368Y-72936243D01*
X119562028Y-74241287D01*
X119562087Y-74242585D01*
X119601369Y-75549407D01*
X119601388Y-75550706D01*
X119601255Y-76858119D01*
X119601235Y-76859419D01*
X119561688Y-78166233D01*
X119561629Y-78167531D01*
X119561603Y-78167958D01*
X119561601Y-78168006D01*
X119482733Y-79472077D01*
X119482728Y-79472131D01*
X119482703Y-79472559D01*
X119482605Y-79473855D01*
X119364373Y-80775910D01*
X119364236Y-80777202D01*
X119206804Y-82075102D01*
X119206628Y-82076389D01*
X119010140Y-83368952D01*
X119009926Y-83370234D01*
X118774561Y-84656286D01*
X118774308Y-84657561D01*
X118500280Y-85935933D01*
X118499988Y-85937199D01*
X118187545Y-87206730D01*
X118187216Y-87207987D01*
X117836643Y-88467521D01*
X117836275Y-88468767D01*
X117447890Y-89717159D01*
X117447486Y-89718394D01*
X117021642Y-90954511D01*
X117021200Y-90955733D01*
X116558285Y-92178450D01*
X116557807Y-92179659D01*
X116058241Y-93387865D01*
X116057726Y-93389058D01*
X115521964Y-94581654D01*
X115521414Y-94582831D01*
X114949942Y-95758734D01*
X114949356Y-95759894D01*
X114342694Y-96918034D01*
X114342074Y-96919176D01*
X113700773Y-98058501D01*
X113700118Y-98059624D01*
X113024762Y-99179097D01*
X113024074Y-99180199D01*
X112315276Y-100278804D01*
X112314556Y-100279885D01*
X111572961Y-101356623D01*
X111572207Y-101357682D01*
X110798489Y-102411573D01*
X110797705Y-102412609D01*
X109992566Y-103442697D01*
X109991750Y-103443709D01*
X109155924Y-104449055D01*
X109155078Y-104450041D01*
X109154773Y-104450385D01*
X109154744Y-104450420D01*
X108289648Y-105429368D01*
X108289599Y-105429420D01*
X108289324Y-105429733D01*
X108288449Y-105430694D01*
X107393553Y-106383841D01*
X107392650Y-106384775D01*
X106469427Y-107310511D01*
X106468495Y-107311417D01*
X105517783Y-108208899D01*
X105516825Y-108209777D01*
X104539489Y-109078190D01*
X104538505Y-109079038D01*
X103535434Y-109917594D01*
X103534424Y-109918412D01*
X103534030Y-109918721D01*
X103534021Y-109918729D01*
X103005065Y-110334492D01*
X102506528Y-110726346D01*
X102505495Y-110727134D01*
X101453710Y-111503713D01*
X101452653Y-111504469D01*
X100377935Y-112248988D01*
X100376855Y-112249712D01*
X100376471Y-112249960D01*
X100376452Y-112249974D01*
X99287788Y-112956554D01*
X99280180Y-112961492D01*
X99279080Y-112962183D01*
X98161446Y-113640579D01*
X98160325Y-113641236D01*
X97022747Y-114285630D01*
X97021607Y-114286254D01*
X95865119Y-114896061D01*
X95863960Y-114896649D01*
X94689615Y-115471315D01*
X94688440Y-115471869D01*
X93497304Y-116010870D01*
X93496112Y-116011388D01*
X92289268Y-116514235D01*
X92288061Y-116514716D01*
X91066607Y-116980952D01*
X91065386Y-116981397D01*
X89830431Y-117410598D01*
X89829197Y-117411006D01*
X88581864Y-117802782D01*
X88580619Y-117803153D01*
X87322042Y-118157147D01*
X87320786Y-118157480D01*
X86052110Y-118473372D01*
X86050844Y-118473667D01*
X84773221Y-118751168D01*
X84771947Y-118751425D01*
X83486539Y-118990284D01*
X83485258Y-118990502D01*
X82193233Y-119190501D01*
X82191946Y-119190680D01*
X80894480Y-119351638D01*
X80893187Y-119351779D01*
X80242320Y-119412645D01*
X80242321Y-119412646D01*
X80089347Y-119426956D01*
X80084146Y-119427127D01*
X79776980Y-119418661D01*
X79771795Y-119418203D01*
X79769903Y-119417920D01*
X79769901Y-119417920D01*
X79469788Y-119373058D01*
X79469772Y-119373054D01*
X79467888Y-119372773D01*
X79462796Y-119371694D01*
X79166581Y-119289963D01*
X79161657Y-119288279D01*
X78877454Y-119171440D01*
X78872768Y-119169174D01*
X78604720Y-119018929D01*
X78600342Y-119016115D01*
X78352358Y-118834657D01*
X78348351Y-118831335D01*
X78124048Y-118621308D01*
X78120471Y-118617528D01*
X77977892Y-118447366D01*
X77924352Y-118383468D01*
X77924349Y-118383464D01*
X77923119Y-118381996D01*
X77920023Y-118377812D01*
X77752500Y-118120209D01*
X77749931Y-118115682D01*
X77614681Y-117839765D01*
X77612677Y-117834962D01*
X77600772Y-117800757D01*
X77512302Y-117546570D01*
X77512300Y-117546563D01*
X77511670Y-117544753D01*
X77510259Y-117539744D01*
X77481541Y-117407671D01*
X77445377Y-117241348D01*
X77444970Y-117239477D01*
X77444173Y-117234333D01*
X77415554Y-116928385D01*
X77415383Y-116923184D01*
X77415435Y-116921277D01*
X77415435Y-116921261D01*
X77423796Y-116617926D01*
X77423796Y-116617919D01*
X77423849Y-116616018D01*
X77424307Y-116610833D01*
X77424585Y-116608971D01*
X77424588Y-116608940D01*
X77426551Y-116595818D01*
X77426900Y-116591118D01*
X77426900Y-35595332D01*
X77423716Y-35478978D01*
X77423716Y-35478972D01*
X77423664Y-35477065D01*
X77423836Y-35471863D01*
X77424039Y-35469699D01*
X77452338Y-35167832D01*
X77452340Y-35167818D01*
X77452518Y-35165921D01*
X77453316Y-35160778D01*
X77453722Y-35158908D01*
X77453725Y-35158895D01*
X77518256Y-34862404D01*
X77518259Y-34862391D01*
X77518666Y-34860524D01*
X77520078Y-34855514D01*
X77570260Y-34711427D01*
X77620513Y-34567134D01*
X77620514Y-34567129D01*
X77621143Y-34565326D01*
X77623148Y-34560524D01*
X77625092Y-34556561D01*
X77665631Y-34473901D01*
X77758455Y-34284634D01*
X77761025Y-34280108D01*
X77762064Y-34278510D01*
X77762072Y-34278497D01*
X77927559Y-34024137D01*
X77927570Y-34024122D01*
X77928600Y-34022539D01*
X77931697Y-34018356D01*
X77932913Y-34016904D01*
X77932920Y-34016896D01*
X78127871Y-33784324D01*
X78127881Y-33784313D01*
X78129096Y-33782864D01*
X78132674Y-33779084D01*
X78134058Y-33777788D01*
X78134070Y-33777776D01*
X78355620Y-33570413D01*
X78355623Y-33570410D01*
X78357020Y-33569103D01*
X78361027Y-33565782D01*
X78609048Y-33384374D01*
X78613427Y-33381561D01*
X78711510Y-33326610D01*
X78879828Y-33232310D01*
X78879834Y-33232306D01*
X78881505Y-33231371D01*
X78886191Y-33229106D01*
X78887952Y-33228382D01*
X78887955Y-33228381D01*
X79168652Y-33113050D01*
X79168652Y-33113049D01*
X79170419Y-33112324D01*
X79175344Y-33110640D01*
X79177189Y-33110131D01*
X79177196Y-33110129D01*
X79469724Y-33029480D01*
X79469728Y-33029478D01*
X79471575Y-33028970D01*
X79476667Y-33027892D01*
X79478554Y-33027610D01*
X79478565Y-33027608D01*
X79778677Y-32982808D01*
X79778685Y-32982807D01*
X79780583Y-32982524D01*
X79785767Y-32982068D01*
X79787686Y-32982015D01*
X79787692Y-32982015D01*
X80091020Y-32973716D01*
X80091026Y-32973716D01*
X80092935Y-32973664D01*
X80098137Y-32973836D01*
G37*
G36*
X72317759Y-32972925D02*
G01*
X72317776Y-32972925D01*
X72621111Y-32981286D01*
X72621117Y-32981286D01*
X72623020Y-32981339D01*
X72628205Y-32981797D01*
X72630082Y-32982077D01*
X72630098Y-32982079D01*
X72930211Y-33026941D01*
X72930240Y-33026947D01*
X72932112Y-33027227D01*
X72937204Y-33028306D01*
X72939038Y-33028812D01*
X72939047Y-33028814D01*
X73212264Y-33104200D01*
X73233419Y-33110037D01*
X73238343Y-33111721D01*
X73522546Y-33228560D01*
X73527232Y-33230826D01*
X73795280Y-33381071D01*
X73799658Y-33383885D01*
X74047642Y-33565343D01*
X74051649Y-33568665D01*
X74275952Y-33778692D01*
X74279529Y-33782472D01*
X74398066Y-33923941D01*
X74458771Y-33996391D01*
X74476881Y-34018004D01*
X74479977Y-34022188D01*
X74647500Y-34279791D01*
X74650069Y-34284318D01*
X74785319Y-34560235D01*
X74787323Y-34565038D01*
X74888330Y-34855247D01*
X74889741Y-34860256D01*
X74955030Y-35160523D01*
X74955827Y-35165667D01*
X74984446Y-35471615D01*
X74984617Y-35476816D01*
X74976151Y-35783982D01*
X74975693Y-35789167D01*
X74975412Y-35791045D01*
X74975411Y-35791059D01*
X74973449Y-35804181D01*
X74973100Y-35808881D01*
X74973100Y-116804657D01*
X74976336Y-116922935D01*
X74976164Y-116928137D01*
X74947482Y-117234079D01*
X74946684Y-117239222D01*
X74881334Y-117539476D01*
X74879922Y-117544486D01*
X74778857Y-117834674D01*
X74776852Y-117839476D01*
X74641545Y-118115366D01*
X74638975Y-118119892D01*
X74471400Y-118377461D01*
X74468303Y-118381644D01*
X74270904Y-118617136D01*
X74267326Y-118620916D01*
X74042980Y-118830897D01*
X74038973Y-118834218D01*
X73790952Y-119015626D01*
X73786573Y-119018439D01*
X73518495Y-119168629D01*
X73513809Y-119170894D01*
X73229581Y-119287676D01*
X73224656Y-119289360D01*
X72928425Y-119371030D01*
X72923333Y-119372108D01*
X72619417Y-119417476D01*
X72614233Y-119417932D01*
X72307065Y-119426336D01*
X72301863Y-119426164D01*
X72148892Y-119411823D01*
X72148892Y-119411822D01*
X71884057Y-119387001D01*
X71498039Y-119350824D01*
X71496746Y-119350683D01*
X70199312Y-119189461D01*
X70198025Y-119189281D01*
X68906041Y-118989019D01*
X68904760Y-118988801D01*
X67619400Y-118749681D01*
X67618126Y-118749424D01*
X67617635Y-118749317D01*
X67617599Y-118749310D01*
X66341062Y-118471773D01*
X66341009Y-118471760D01*
X66340560Y-118471663D01*
X66339295Y-118471368D01*
X65070683Y-118155218D01*
X65069427Y-118154885D01*
X63810922Y-117800635D01*
X63809676Y-117800264D01*
X62562423Y-117408234D01*
X62561190Y-117407826D01*
X61326322Y-116978374D01*
X61325101Y-116977928D01*
X60103742Y-116511444D01*
X60102535Y-116510962D01*
X58895793Y-116007869D01*
X58894601Y-116007351D01*
X58894224Y-116007180D01*
X58894168Y-116007156D01*
X57704045Y-115468322D01*
X57703980Y-115468291D01*
X57703575Y-115468108D01*
X57702400Y-115467554D01*
X57701974Y-115467345D01*
X57701937Y-115467328D01*
X56528612Y-114892867D01*
X56528554Y-114892837D01*
X56528171Y-114892650D01*
X56527012Y-114892062D01*
X55370649Y-114282020D01*
X55369509Y-114281396D01*
X54232062Y-113636770D01*
X54230942Y-113636112D01*
X53113446Y-112957489D01*
X53112345Y-112956798D01*
X52022272Y-112248988D01*
X52016206Y-112245049D01*
X52016200Y-112245045D01*
X52015815Y-112244795D01*
X52014736Y-112244071D01*
X50940169Y-111499334D01*
X50939112Y-111498578D01*
X49887485Y-110721784D01*
X49886452Y-110720996D01*
X48867492Y-109919751D01*
X48859123Y-109913170D01*
X48859118Y-109913166D01*
X48858720Y-109912853D01*
X48857711Y-109912035D01*
X48820044Y-109880533D01*
X47855202Y-109073605D01*
X47855157Y-109073567D01*
X47854810Y-109073276D01*
X47853825Y-109072427D01*
X46876666Y-108203815D01*
X46875708Y-108202937D01*
X45925179Y-107305261D01*
X45924248Y-107304355D01*
X45001213Y-106378432D01*
X45000310Y-106377498D01*
X44105608Y-105424169D01*
X44104733Y-105423208D01*
X43239178Y-104443340D01*
X43238332Y-104442353D01*
X42402710Y-103436836D01*
X42401895Y-103435824D01*
X41596966Y-102405573D01*
X41596181Y-102404537D01*
X40822677Y-101350489D01*
X40821924Y-101349430D01*
X40080548Y-100272541D01*
X40079828Y-100271460D01*
X40079610Y-100271122D01*
X40079592Y-100271095D01*
X39376082Y-99180199D01*
X39371253Y-99172711D01*
X39370565Y-99171608D01*
X39370356Y-99171262D01*
X39370332Y-99171223D01*
X38695688Y-98052413D01*
X38695437Y-98051997D01*
X38694783Y-98050874D01*
X38053714Y-96911419D01*
X38053094Y-96910277D01*
X38052878Y-96909865D01*
X38052862Y-96909835D01*
X37446892Y-95752443D01*
X37446875Y-95752411D01*
X37446668Y-95752014D01*
X37446083Y-95750854D01*
X37445888Y-95750453D01*
X37445865Y-95750407D01*
X36875077Y-94575306D01*
X36875032Y-94575210D01*
X36874850Y-94574835D01*
X36874299Y-94573658D01*
X36338779Y-93380953D01*
X36338265Y-93379760D01*
X35838945Y-92171452D01*
X35838467Y-92170243D01*
X35838309Y-92169827D01*
X35838289Y-92169775D01*
X35375968Y-90947876D01*
X35375800Y-90947432D01*
X35375358Y-90946210D01*
X34952085Y-89716745D01*
X34949930Y-89710484D01*
X34949925Y-89710470D01*
X34949766Y-89710007D01*
X34949362Y-89708772D01*
X34563997Y-88469199D01*
X34561377Y-88460770D01*
X34561374Y-88460762D01*
X34561231Y-88460300D01*
X34560864Y-88459054D01*
X34560733Y-88458583D01*
X34210670Y-87199893D01*
X34210662Y-87199863D01*
X34210547Y-87199449D01*
X34210218Y-87198191D01*
X34210120Y-87197795D01*
X34210107Y-87197743D01*
X33898156Y-85929101D01*
X33898142Y-85929042D01*
X33898033Y-85928597D01*
X33897742Y-85927331D01*
X33897647Y-85926890D01*
X33897631Y-85926818D01*
X33624075Y-84649385D01*
X33624059Y-84649307D01*
X33623973Y-84648903D01*
X33623720Y-84647628D01*
X33623644Y-84647212D01*
X33623637Y-84647177D01*
X33388693Y-83361945D01*
X33388690Y-83361930D01*
X33388617Y-83361528D01*
X33388402Y-83360247D01*
X33381294Y-83313427D01*
X33192245Y-82068093D01*
X33192243Y-82068082D01*
X33192177Y-82067644D01*
X33192002Y-82066356D01*
X33191958Y-82065994D01*
X33191949Y-82065927D01*
X33034888Y-80768869D01*
X33034882Y-80768818D01*
X33034835Y-80768425D01*
X33034698Y-80767133D01*
X33034661Y-80766725D01*
X33034655Y-80766668D01*
X32917568Y-79474299D01*
X32916730Y-79465053D01*
X32916632Y-79463757D01*
X32837972Y-78158713D01*
X32837913Y-78157415D01*
X32837899Y-78156975D01*
X32837898Y-78156936D01*
X32798646Y-76851099D01*
X32798645Y-76851085D01*
X32798631Y-76850593D01*
X32798612Y-76849294D01*
X32798612Y-76848810D01*
X32798744Y-75542386D01*
X32798744Y-75542324D01*
X32798745Y-75541881D01*
X32798765Y-75540581D01*
X32798780Y-75540084D01*
X32838298Y-74234213D01*
X32838299Y-74234178D01*
X32838312Y-74233767D01*
X32838371Y-74232469D01*
X32838392Y-74232108D01*
X32838398Y-74231993D01*
X32917266Y-72927922D01*
X32917275Y-72927799D01*
X32917297Y-72927441D01*
X32917395Y-72926145D01*
X32917435Y-72925700D01*
X33035582Y-71624574D01*
X33035589Y-71624506D01*
X33035627Y-71624090D01*
X33035764Y-71622798D01*
X33035823Y-71622309D01*
X33193137Y-70325378D01*
X33193143Y-70325327D01*
X33193196Y-70324898D01*
X33193372Y-70323611D01*
X33193437Y-70323179D01*
X33193443Y-70323140D01*
X33389791Y-69031502D01*
X33389860Y-69031048D01*
X33390074Y-69029766D01*
X33625439Y-67743714D01*
X33625692Y-67742439D01*
X33899720Y-66464067D01*
X33900012Y-66462801D01*
X33900125Y-66462338D01*
X33900134Y-66462303D01*
X34212332Y-65193769D01*
X34212335Y-65193756D01*
X34212455Y-65193270D01*
X34212784Y-65192013D01*
X34563357Y-63932479D01*
X34563725Y-63931233D01*
X34563846Y-63930842D01*
X34563859Y-63930800D01*
X34951981Y-62683254D01*
X34951991Y-62683222D01*
X34952110Y-62682841D01*
X34952514Y-62681606D01*
X34952647Y-62681219D01*
X34952665Y-62681165D01*
X35378206Y-61445930D01*
X35378207Y-61445925D01*
X35378358Y-61445489D01*
X35378800Y-61444267D01*
X35378969Y-61443820D01*
X35841532Y-60222031D01*
X35841552Y-60221978D01*
X35841715Y-60221550D01*
X35842193Y-60220341D01*
X36338901Y-59019047D01*
X36341574Y-59012582D01*
X36341578Y-59012572D01*
X36341759Y-59012135D01*
X36342274Y-59010942D01*
X36342451Y-59010547D01*
X36342473Y-59010497D01*
X36877852Y-57818753D01*
X36877880Y-57818691D01*
X36878036Y-57818346D01*
X36878586Y-57817169D01*
X37450058Y-56641266D01*
X37450644Y-56640106D01*
X37450836Y-56639738D01*
X37450862Y-56639688D01*
X38057089Y-55482379D01*
X38057107Y-55482344D01*
X38057306Y-55481966D01*
X38057926Y-55480824D01*
X38058145Y-55480433D01*
X38058164Y-55480400D01*
X38698977Y-54341942D01*
X38698995Y-54341909D01*
X38699227Y-54341499D01*
X38699882Y-54340376D01*
X38700105Y-54340006D01*
X38700146Y-54339936D01*
X39374962Y-53221358D01*
X39375006Y-53221286D01*
X39375238Y-53220903D01*
X39375926Y-53219801D01*
X39376170Y-53219421D01*
X39376193Y-53219386D01*
X40084492Y-52121555D01*
X40084503Y-52121536D01*
X40084724Y-52121196D01*
X40085444Y-52120115D01*
X40085673Y-52119781D01*
X40085712Y-52119724D01*
X40826741Y-51043808D01*
X40826777Y-51043756D01*
X40827039Y-51043377D01*
X40827793Y-51042318D01*
X40828034Y-51041989D01*
X40828090Y-51041911D01*
X41601236Y-49988800D01*
X41601273Y-49988750D01*
X41601511Y-49988427D01*
X41602295Y-49987391D01*
X42407434Y-48957303D01*
X42408250Y-48956291D01*
X42408543Y-48955938D01*
X43243773Y-47951308D01*
X43243813Y-47951261D01*
X43244076Y-47950945D01*
X43244922Y-47949959D01*
X43245164Y-47949684D01*
X43245255Y-47949579D01*
X44110351Y-46970631D01*
X44110461Y-46970509D01*
X44110676Y-46970267D01*
X44111551Y-46969306D01*
X44111799Y-46969041D01*
X44111849Y-46968987D01*
X45006105Y-46016522D01*
X45006144Y-46016481D01*
X45006447Y-46016159D01*
X45007350Y-46015225D01*
X45930573Y-45089489D01*
X45931505Y-45088583D01*
X45931801Y-45088303D01*
X45931854Y-45088252D01*
X46881873Y-44191424D01*
X46881934Y-44191368D01*
X46882217Y-44191101D01*
X46883175Y-44190223D01*
X47860511Y-43321810D01*
X47861495Y-43320962D01*
X47903826Y-43285574D01*
X48864190Y-42482720D01*
X48864203Y-42482709D01*
X48864566Y-42482406D01*
X48865576Y-42481588D01*
X48865896Y-42481335D01*
X48865978Y-42481270D01*
X49893078Y-41673962D01*
X49893149Y-41673907D01*
X49893472Y-41673654D01*
X49894505Y-41672866D01*
X49894837Y-41672620D01*
X49894888Y-41672582D01*
X50945916Y-40896563D01*
X50945922Y-40896558D01*
X50946290Y-40896287D01*
X50947347Y-40895531D01*
X50947713Y-40895276D01*
X50947750Y-40895251D01*
X52021653Y-40151296D01*
X52021718Y-40151252D01*
X52022065Y-40151012D01*
X52023145Y-40150288D01*
X52023452Y-40150088D01*
X52023547Y-40150025D01*
X53119443Y-39438751D01*
X53119520Y-39438702D01*
X53119820Y-39438508D01*
X53120920Y-39437817D01*
X53121289Y-39437593D01*
X54238150Y-38759665D01*
X54238208Y-38759630D01*
X54238554Y-38759421D01*
X54239675Y-38758764D01*
X54240048Y-38758552D01*
X54240126Y-38758507D01*
X55376795Y-38114628D01*
X55376867Y-38114588D01*
X55377253Y-38114370D01*
X55378393Y-38113746D01*
X56534881Y-37503939D01*
X56536040Y-37503351D01*
X56536399Y-37503174D01*
X56536439Y-37503155D01*
X57709966Y-36928890D01*
X57709968Y-36928889D01*
X57710385Y-36928685D01*
X57711560Y-36928131D01*
X57711960Y-36927949D01*
X57711977Y-36927942D01*
X58894491Y-36392843D01*
X58902696Y-36389130D01*
X58903888Y-36388612D01*
X60110732Y-35885765D01*
X60111939Y-35885284D01*
X60112374Y-35885117D01*
X60112419Y-35885100D01*
X61332913Y-35419230D01*
X61332983Y-35419204D01*
X61333393Y-35419048D01*
X61334614Y-35418603D01*
X61335023Y-35418460D01*
X61335072Y-35418443D01*
X62569106Y-34989562D01*
X62569159Y-34989544D01*
X62569569Y-34989402D01*
X62570803Y-34988994D01*
X62571248Y-34988853D01*
X62571279Y-34988844D01*
X63817685Y-34597359D01*
X63817725Y-34597347D01*
X63818136Y-34597218D01*
X63819381Y-34596847D01*
X63819808Y-34596726D01*
X63819848Y-34596715D01*
X65077501Y-34242981D01*
X65077534Y-34242971D01*
X65077958Y-34242853D01*
X65079214Y-34242520D01*
X65079602Y-34242423D01*
X65079660Y-34242408D01*
X66347421Y-33926744D01*
X66347469Y-33926732D01*
X66347890Y-33926628D01*
X66349156Y-33926333D01*
X66349580Y-33926240D01*
X66349644Y-33926226D01*
X67626282Y-33648939D01*
X67626342Y-33648926D01*
X67626779Y-33648832D01*
X67628053Y-33648575D01*
X67628497Y-33648492D01*
X67628564Y-33648479D01*
X68912991Y-33409803D01*
X68913012Y-33409799D01*
X68913461Y-33409716D01*
X68914742Y-33409498D01*
X70206767Y-33209499D01*
X70208054Y-33209320D01*
X70208460Y-33209269D01*
X70208529Y-33209260D01*
X71505017Y-33048424D01*
X71505043Y-33048421D01*
X71505520Y-33048362D01*
X71506813Y-33048221D01*
X71507280Y-33048177D01*
X71507329Y-33048172D01*
X72157678Y-32987354D01*
X72308738Y-32973223D01*
X72308740Y-32973222D01*
X72310653Y-32973044D01*
X72315854Y-32972873D01*
X72317759Y-32972925D01*
G37*
G36*
X53843224Y-117707470D02*
G01*
X53858976Y-117708021D01*
X53912960Y-117727138D01*
X53920966Y-117729396D01*
X54310781Y-117928017D01*
X54317298Y-117933154D01*
X54364507Y-117965600D01*
X54374213Y-117978023D01*
X54389484Y-117990062D01*
X54404327Y-118016566D01*
X54420095Y-118036748D01*
X54426266Y-118055742D01*
X54438452Y-118077501D01*
X54441383Y-118102265D01*
X54447555Y-118121261D01*
X54446660Y-118146858D01*
X54450231Y-118177024D01*
X54444953Y-118195737D01*
X54444403Y-118211493D01*
X54425288Y-118265466D01*
X54423029Y-118273479D01*
X54190359Y-118730120D01*
X54185205Y-118736656D01*
X54152771Y-118783849D01*
X54140353Y-118793550D01*
X54128314Y-118808823D01*
X54101808Y-118823666D01*
X54081629Y-118839433D01*
X54062634Y-118845604D01*
X54040874Y-118857791D01*
X54016107Y-118860722D01*
X53997114Y-118866894D01*
X53971520Y-118865999D01*
X53941351Y-118869571D01*
X53922633Y-118864292D01*
X53906885Y-118863742D01*
X53852910Y-118844628D01*
X53844896Y-118842368D01*
X53455081Y-118643747D01*
X53448560Y-118638606D01*
X53401354Y-118606163D01*
X53391647Y-118593739D01*
X53376378Y-118581702D01*
X53361535Y-118555198D01*
X53345766Y-118535015D01*
X53339593Y-118516018D01*
X53327410Y-118494263D01*
X53324479Y-118469501D01*
X53318306Y-118450502D01*
X53319200Y-118424898D01*
X53315631Y-118394740D01*
X53320907Y-118376030D01*
X53321458Y-118360270D01*
X53340578Y-118306278D01*
X53342833Y-118298285D01*
X53512344Y-117965600D01*
X53573612Y-117845354D01*
X53573614Y-117845350D01*
X53575503Y-117841644D01*
X53580642Y-117835124D01*
X53613090Y-117787914D01*
X53625511Y-117778208D01*
X53637548Y-117762941D01*
X53664045Y-117748101D01*
X53684232Y-117732330D01*
X53703233Y-117726155D01*
X53724988Y-117713973D01*
X53749747Y-117711042D01*
X53768747Y-117704869D01*
X53794347Y-117705763D01*
X53824511Y-117702193D01*
X53843224Y-117707470D01*
G37*
G36*
X98605652Y-117705763D02*
G01*
X98631252Y-117704869D01*
X98650250Y-117711042D01*
X98675012Y-117713973D01*
X98696768Y-117726156D01*
X98715767Y-117732330D01*
X98735951Y-117748100D01*
X98762452Y-117762941D01*
X98774489Y-117778210D01*
X98786908Y-117787913D01*
X98819340Y-117835102D01*
X98824497Y-117841644D01*
X99057167Y-118298285D01*
X99059422Y-118306281D01*
X99078541Y-118360271D01*
X99079091Y-118376026D01*
X99084369Y-118394740D01*
X99080798Y-118424905D01*
X99081693Y-118450502D01*
X99075521Y-118469496D01*
X99072590Y-118494263D01*
X99060403Y-118516022D01*
X99054233Y-118535015D01*
X99038466Y-118555194D01*
X99023622Y-118581702D01*
X99008350Y-118593741D01*
X98998647Y-118606161D01*
X98951456Y-118638593D01*
X98944919Y-118643747D01*
X98555104Y-118842368D01*
X98547100Y-118844625D01*
X98493116Y-118863742D01*
X98477366Y-118864292D01*
X98458649Y-118869571D01*
X98428478Y-118865999D01*
X98402885Y-118866894D01*
X98383890Y-118860722D01*
X98359126Y-118857791D01*
X98337367Y-118845605D01*
X98318370Y-118839433D01*
X98298187Y-118823664D01*
X98271686Y-118808823D01*
X98259648Y-118793553D01*
X98247229Y-118783850D01*
X98214795Y-118736658D01*
X98209641Y-118730120D01*
X97976971Y-118273479D01*
X97974718Y-118265491D01*
X97955596Y-118211492D01*
X97955045Y-118195733D01*
X97949769Y-118177024D01*
X97953338Y-118146865D01*
X97952444Y-118121261D01*
X97958617Y-118102260D01*
X97961548Y-118077501D01*
X97973730Y-118055746D01*
X97979904Y-118036748D01*
X97995675Y-118016561D01*
X98010516Y-117990062D01*
X98025782Y-117978026D01*
X98035490Y-117965602D01*
X98082698Y-117933157D01*
X98089219Y-117928017D01*
X98092927Y-117926127D01*
X98092931Y-117926125D01*
X98475325Y-117731285D01*
X98475330Y-117731283D01*
X98479034Y-117729396D01*
X98487018Y-117727144D01*
X98541021Y-117708021D01*
X98556775Y-117707470D01*
X98575489Y-117702193D01*
X98605652Y-117705763D01*
G37*
G36*
X43148389Y-109849388D02*
G01*
X43168358Y-109849388D01*
X43192422Y-109858146D01*
X43222217Y-109864073D01*
X43238383Y-109874875D01*
X43253195Y-109880266D01*
X43298626Y-109915128D01*
X43305545Y-109919751D01*
X43614904Y-110229110D01*
X43619520Y-110236018D01*
X43654388Y-110281459D01*
X43659778Y-110296269D01*
X43670582Y-110312438D01*
X43676508Y-110342233D01*
X43685267Y-110366297D01*
X43685267Y-110386266D01*
X43690133Y-110410730D01*
X43685267Y-110435193D01*
X43685267Y-110455163D01*
X43676508Y-110479225D01*
X43670582Y-110509023D01*
X43659778Y-110525192D01*
X43654388Y-110540001D01*
X43619533Y-110585422D01*
X43614904Y-110592351D01*
X43252512Y-110954743D01*
X43245595Y-110959364D01*
X43200162Y-110994227D01*
X43185353Y-110999617D01*
X43169184Y-111010421D01*
X43139387Y-111016347D01*
X43115325Y-111025106D01*
X43095355Y-111025106D01*
X43070891Y-111029972D01*
X43046427Y-111025106D01*
X43026458Y-111025106D01*
X43002394Y-111016347D01*
X42972599Y-111010421D01*
X42956430Y-110999617D01*
X42941620Y-110994227D01*
X42896192Y-110959367D01*
X42889271Y-110954743D01*
X42579912Y-110645384D01*
X42575297Y-110638477D01*
X42540427Y-110593034D01*
X42535036Y-110578222D01*
X42524234Y-110562056D01*
X42518307Y-110532259D01*
X42509549Y-110508196D01*
X42509549Y-110488227D01*
X42504683Y-110463764D01*
X42509549Y-110439300D01*
X42509549Y-110419330D01*
X42518307Y-110395264D01*
X42524234Y-110365471D01*
X42535035Y-110349305D01*
X42540427Y-110334492D01*
X42575294Y-110289054D01*
X42579912Y-110282143D01*
X42761107Y-110100947D01*
X42939360Y-109922694D01*
X42939364Y-109922690D01*
X42942304Y-109919751D01*
X42949202Y-109915141D01*
X42994653Y-109880266D01*
X43009466Y-109874874D01*
X43025632Y-109864073D01*
X43055425Y-109858146D01*
X43079491Y-109849388D01*
X43099461Y-109849388D01*
X43123925Y-109844522D01*
X43148389Y-109849388D01*
G37*
G36*
X109321500Y-109849388D02*
G01*
X109341470Y-109849388D01*
X109365534Y-109858146D01*
X109395329Y-109864073D01*
X109411495Y-109874875D01*
X109426307Y-109880266D01*
X109471738Y-109915128D01*
X109478657Y-109919751D01*
X109841049Y-110282143D01*
X109845665Y-110289051D01*
X109880533Y-110334492D01*
X109885923Y-110349302D01*
X109896727Y-110365471D01*
X109902653Y-110395266D01*
X109911412Y-110419330D01*
X109911412Y-110439300D01*
X109916278Y-110463764D01*
X109911412Y-110488227D01*
X109911412Y-110508196D01*
X109902654Y-110532257D01*
X109896727Y-110562056D01*
X109885923Y-110578225D01*
X109880533Y-110593034D01*
X109845678Y-110638455D01*
X109841049Y-110645384D01*
X109531690Y-110954743D01*
X109524773Y-110959364D01*
X109479340Y-110994227D01*
X109464531Y-110999617D01*
X109448362Y-111010421D01*
X109418565Y-111016347D01*
X109394503Y-111025106D01*
X109374534Y-111025106D01*
X109350070Y-111029972D01*
X109325606Y-111025106D01*
X109305636Y-111025106D01*
X109281572Y-111016347D01*
X109251777Y-111010421D01*
X109235608Y-110999617D01*
X109220798Y-110994227D01*
X109175370Y-110959367D01*
X109168449Y-110954743D01*
X108806057Y-110592351D01*
X108801442Y-110585444D01*
X108766572Y-110540001D01*
X108761181Y-110525189D01*
X108750379Y-110509023D01*
X108744452Y-110479226D01*
X108735694Y-110455163D01*
X108735694Y-110435193D01*
X108730828Y-110410730D01*
X108735694Y-110386266D01*
X108735694Y-110366297D01*
X108744452Y-110342232D01*
X108750379Y-110312438D01*
X108761180Y-110296272D01*
X108766572Y-110281459D01*
X108801439Y-110236021D01*
X108806057Y-110229110D01*
X108960736Y-110074431D01*
X109112472Y-109922694D01*
X109112476Y-109922690D01*
X109115416Y-109919751D01*
X109122314Y-109915141D01*
X109167765Y-109880266D01*
X109182578Y-109874874D01*
X109198744Y-109864073D01*
X109228538Y-109858146D01*
X109252603Y-109849388D01*
X109272572Y-109849388D01*
X109297036Y-109844522D01*
X109321500Y-109849388D01*
G37*
G36*
X42034695Y-108735694D02*
G01*
X42054664Y-108735694D01*
X42078728Y-108744452D01*
X42108523Y-108750379D01*
X42124689Y-108761181D01*
X42139501Y-108766572D01*
X42184932Y-108801434D01*
X42191851Y-108806057D01*
X42501210Y-109115416D01*
X42505826Y-109122324D01*
X42540694Y-109167765D01*
X42546084Y-109182575D01*
X42556888Y-109198744D01*
X42562814Y-109228539D01*
X42571573Y-109252603D01*
X42571573Y-109272572D01*
X42576439Y-109297036D01*
X42571573Y-109321499D01*
X42571573Y-109341469D01*
X42562814Y-109365531D01*
X42556888Y-109395329D01*
X42546084Y-109411498D01*
X42540694Y-109426307D01*
X42505839Y-109471728D01*
X42501210Y-109478657D01*
X42138818Y-109841049D01*
X42131901Y-109845670D01*
X42086468Y-109880533D01*
X42071659Y-109885923D01*
X42055490Y-109896727D01*
X42025693Y-109902653D01*
X42001631Y-109911412D01*
X41981661Y-109911412D01*
X41957197Y-109916278D01*
X41932733Y-109911412D01*
X41912764Y-109911412D01*
X41888700Y-109902653D01*
X41858905Y-109896727D01*
X41842736Y-109885923D01*
X41827926Y-109880533D01*
X41782498Y-109845673D01*
X41775577Y-109841049D01*
X41466218Y-109531690D01*
X41461603Y-109524783D01*
X41426733Y-109479340D01*
X41421342Y-109464528D01*
X41410540Y-109448362D01*
X41404613Y-109418565D01*
X41395855Y-109394502D01*
X41395855Y-109374533D01*
X41390989Y-109350070D01*
X41395855Y-109325606D01*
X41395855Y-109305636D01*
X41404613Y-109281570D01*
X41410540Y-109251777D01*
X41421341Y-109235611D01*
X41426733Y-109220798D01*
X41461600Y-109175360D01*
X41466218Y-109168449D01*
X41647413Y-108987253D01*
X41825666Y-108809000D01*
X41825670Y-108808996D01*
X41828610Y-108806057D01*
X41835508Y-108801447D01*
X41880959Y-108766572D01*
X41895772Y-108761180D01*
X41911938Y-108750379D01*
X41941731Y-108744452D01*
X41965797Y-108735694D01*
X41985767Y-108735694D01*
X42010231Y-108730828D01*
X42034695Y-108735694D01*
G37*
G36*
X110435194Y-108735694D02*
G01*
X110455164Y-108735694D01*
X110479228Y-108744452D01*
X110509023Y-108750379D01*
X110525189Y-108761181D01*
X110540001Y-108766572D01*
X110585432Y-108801434D01*
X110592351Y-108806057D01*
X110954743Y-109168449D01*
X110959359Y-109175357D01*
X110994227Y-109220798D01*
X110999617Y-109235608D01*
X111010421Y-109251777D01*
X111016347Y-109281572D01*
X111025106Y-109305636D01*
X111025106Y-109325606D01*
X111029972Y-109350070D01*
X111025106Y-109374533D01*
X111025106Y-109394502D01*
X111016348Y-109418563D01*
X111010421Y-109448362D01*
X110999617Y-109464531D01*
X110994227Y-109479340D01*
X110959372Y-109524761D01*
X110954743Y-109531690D01*
X110645384Y-109841049D01*
X110638467Y-109845670D01*
X110593034Y-109880533D01*
X110578225Y-109885923D01*
X110562056Y-109896727D01*
X110532259Y-109902653D01*
X110508197Y-109911412D01*
X110488228Y-109911412D01*
X110463764Y-109916278D01*
X110439300Y-109911412D01*
X110419330Y-109911412D01*
X110395266Y-109902653D01*
X110365471Y-109896727D01*
X110349302Y-109885923D01*
X110334492Y-109880533D01*
X110289064Y-109845673D01*
X110282143Y-109841049D01*
X109919751Y-109478657D01*
X109915136Y-109471750D01*
X109880266Y-109426307D01*
X109874875Y-109411495D01*
X109864073Y-109395329D01*
X109858146Y-109365532D01*
X109849388Y-109341469D01*
X109849388Y-109321499D01*
X109844522Y-109297036D01*
X109849388Y-109272572D01*
X109849388Y-109252603D01*
X109858146Y-109228538D01*
X109864073Y-109198744D01*
X109874874Y-109182578D01*
X109880266Y-109167765D01*
X109915133Y-109122327D01*
X109919751Y-109115416D01*
X110074430Y-108960737D01*
X110226166Y-108809000D01*
X110226170Y-108808996D01*
X110229110Y-108806057D01*
X110236008Y-108801447D01*
X110281459Y-108766572D01*
X110296272Y-108761180D01*
X110312438Y-108750379D01*
X110342232Y-108744452D01*
X110366297Y-108735694D01*
X110386266Y-108735694D01*
X110410730Y-108730828D01*
X110435194Y-108735694D01*
G37*
G36*
X34253134Y-97953338D02*
G01*
X34278738Y-97952444D01*
X34297737Y-97958617D01*
X34322499Y-97961548D01*
X34344254Y-97973731D01*
X34363251Y-97979904D01*
X34383435Y-97995673D01*
X34409938Y-98010516D01*
X34421975Y-98025784D01*
X34434397Y-98035490D01*
X34466834Y-98082688D01*
X34471983Y-98089219D01*
X34670604Y-98479034D01*
X34672859Y-98487032D01*
X34691978Y-98541021D01*
X34692528Y-98556771D01*
X34697807Y-98575489D01*
X34694235Y-98605658D01*
X34695130Y-98631252D01*
X34688958Y-98650245D01*
X34686027Y-98675012D01*
X34673840Y-98696772D01*
X34667669Y-98715767D01*
X34651902Y-98735946D01*
X34637059Y-98762452D01*
X34621787Y-98774491D01*
X34612086Y-98786908D01*
X34564904Y-98819334D01*
X34558356Y-98824497D01*
X34101715Y-99057167D01*
X34093713Y-99059423D01*
X34039728Y-99078541D01*
X34023973Y-99079091D01*
X34005260Y-99084369D01*
X33975094Y-99080798D01*
X33949497Y-99081693D01*
X33930501Y-99075521D01*
X33905737Y-99072590D01*
X33883978Y-99060404D01*
X33864984Y-99054233D01*
X33844801Y-99038464D01*
X33818298Y-99023622D01*
X33806260Y-99008352D01*
X33793838Y-98998647D01*
X33761398Y-98951446D01*
X33756253Y-98944919D01*
X33596431Y-98631252D01*
X33559521Y-98558812D01*
X33559520Y-98558809D01*
X33557632Y-98555104D01*
X33555378Y-98547114D01*
X33536257Y-98493116D01*
X33535706Y-98477362D01*
X33530429Y-98458649D01*
X33533999Y-98428485D01*
X33533105Y-98402885D01*
X33539278Y-98383885D01*
X33542209Y-98359126D01*
X33554391Y-98337371D01*
X33560566Y-98318370D01*
X33576338Y-98298183D01*
X33591177Y-98271686D01*
X33606444Y-98259650D01*
X33616149Y-98247229D01*
X33663348Y-98214790D01*
X33669880Y-98209641D01*
X33898948Y-98092925D01*
X34122812Y-97978860D01*
X34122817Y-97978858D01*
X34126521Y-97976971D01*
X34134503Y-97974719D01*
X34188507Y-97955596D01*
X34204266Y-97955045D01*
X34222976Y-97949769D01*
X34253134Y-97953338D01*
G37*
G36*
X118195733Y-97955045D02*
G01*
X118211493Y-97955596D01*
X118265480Y-97974715D01*
X118273479Y-97976971D01*
X118730120Y-98209641D01*
X118736646Y-98214786D01*
X118783849Y-98247228D01*
X118793552Y-98259647D01*
X118808823Y-98271686D01*
X118823664Y-98298188D01*
X118839433Y-98318370D01*
X118845605Y-98337367D01*
X118857791Y-98359126D01*
X118860722Y-98383890D01*
X118866894Y-98402885D01*
X118865999Y-98428478D01*
X118869571Y-98458649D01*
X118864292Y-98477366D01*
X118863742Y-98493114D01*
X118844629Y-98547084D01*
X118842368Y-98555104D01*
X118643747Y-98944919D01*
X118638601Y-98951446D01*
X118606163Y-98998645D01*
X118593741Y-99008349D01*
X118581702Y-99023622D01*
X118555193Y-99038467D01*
X118535015Y-99054233D01*
X118516022Y-99060403D01*
X118494263Y-99072590D01*
X118469496Y-99075521D01*
X118450502Y-99081693D01*
X118424904Y-99080798D01*
X118394740Y-99084369D01*
X118376026Y-99079091D01*
X118360270Y-99078541D01*
X118306292Y-99059425D01*
X118298285Y-99057167D01*
X117841644Y-98824497D01*
X117835114Y-98819349D01*
X117787914Y-98786909D01*
X117778210Y-98774489D01*
X117762941Y-98762452D01*
X117748099Y-98735950D01*
X117732330Y-98715767D01*
X117726156Y-98696768D01*
X117713973Y-98675012D01*
X117711042Y-98650250D01*
X117704869Y-98631252D01*
X117705763Y-98605652D01*
X117702193Y-98575489D01*
X117707470Y-98556775D01*
X117708021Y-98541023D01*
X117727139Y-98487034D01*
X117729396Y-98479034D01*
X117790492Y-98359126D01*
X117926128Y-98092925D01*
X117926130Y-98092921D01*
X117928017Y-98089219D01*
X117933149Y-98082708D01*
X117965600Y-98035492D01*
X117978025Y-98025783D01*
X117990062Y-98010516D01*
X118016561Y-97995675D01*
X118036748Y-97979904D01*
X118055746Y-97973730D01*
X118077501Y-97961548D01*
X118102260Y-97958617D01*
X118121261Y-97952444D01*
X118146865Y-97953338D01*
X118177024Y-97949769D01*
X118195733Y-97955045D01*
G37*
G36*
X33538098Y-96550000D02*
G01*
X33563702Y-96549106D01*
X33582701Y-96555279D01*
X33607463Y-96558210D01*
X33629218Y-96570393D01*
X33648215Y-96576566D01*
X33668399Y-96592335D01*
X33694902Y-96607178D01*
X33706939Y-96622446D01*
X33719361Y-96632152D01*
X33751798Y-96679350D01*
X33756947Y-96685881D01*
X33955568Y-97075696D01*
X33957823Y-97083694D01*
X33976942Y-97137683D01*
X33977492Y-97153433D01*
X33982771Y-97172151D01*
X33979199Y-97202320D01*
X33980094Y-97227914D01*
X33973922Y-97246907D01*
X33970991Y-97271674D01*
X33958804Y-97293434D01*
X33952633Y-97312429D01*
X33936866Y-97332608D01*
X33922023Y-97359114D01*
X33906751Y-97371153D01*
X33897050Y-97383570D01*
X33849868Y-97415996D01*
X33843320Y-97421159D01*
X33386679Y-97653829D01*
X33378677Y-97656085D01*
X33324692Y-97675203D01*
X33308937Y-97675753D01*
X33290224Y-97681031D01*
X33260058Y-97677460D01*
X33234461Y-97678355D01*
X33215465Y-97672183D01*
X33190701Y-97669252D01*
X33168942Y-97657066D01*
X33149948Y-97650895D01*
X33129765Y-97635126D01*
X33103262Y-97620284D01*
X33091224Y-97605014D01*
X33078802Y-97595309D01*
X33046362Y-97548108D01*
X33041217Y-97541581D01*
X32881395Y-97227914D01*
X32844485Y-97155474D01*
X32844484Y-97155471D01*
X32842596Y-97151766D01*
X32840342Y-97143776D01*
X32821221Y-97089778D01*
X32820670Y-97074024D01*
X32815393Y-97055311D01*
X32818963Y-97025147D01*
X32818069Y-96999547D01*
X32824242Y-96980547D01*
X32827173Y-96955788D01*
X32839355Y-96934033D01*
X32845530Y-96915032D01*
X32861302Y-96894845D01*
X32876141Y-96868348D01*
X32891408Y-96856312D01*
X32901113Y-96843891D01*
X32948312Y-96811452D01*
X32954844Y-96806303D01*
X33183912Y-96689587D01*
X33407776Y-96575522D01*
X33407781Y-96575520D01*
X33411485Y-96573633D01*
X33419467Y-96571381D01*
X33473471Y-96552258D01*
X33489230Y-96551707D01*
X33507940Y-96546431D01*
X33538098Y-96550000D01*
G37*
G36*
X118910769Y-96551707D02*
G01*
X118926529Y-96552258D01*
X118980516Y-96571377D01*
X118988515Y-96573633D01*
X119445156Y-96806303D01*
X119451682Y-96811448D01*
X119498885Y-96843890D01*
X119508588Y-96856309D01*
X119523859Y-96868348D01*
X119538700Y-96894850D01*
X119554469Y-96915032D01*
X119560641Y-96934029D01*
X119572827Y-96955788D01*
X119575758Y-96980552D01*
X119581930Y-96999547D01*
X119581035Y-97025140D01*
X119584607Y-97055311D01*
X119579328Y-97074028D01*
X119578778Y-97089776D01*
X119559665Y-97143746D01*
X119557404Y-97151766D01*
X119358783Y-97541581D01*
X119353637Y-97548108D01*
X119321199Y-97595307D01*
X119308777Y-97605011D01*
X119296738Y-97620284D01*
X119270229Y-97635129D01*
X119250051Y-97650895D01*
X119231058Y-97657065D01*
X119209299Y-97669252D01*
X119184532Y-97672183D01*
X119165538Y-97678355D01*
X119139940Y-97677460D01*
X119109776Y-97681031D01*
X119091062Y-97675753D01*
X119075306Y-97675203D01*
X119021328Y-97656087D01*
X119013321Y-97653829D01*
X118556680Y-97421159D01*
X118550150Y-97416011D01*
X118502950Y-97383571D01*
X118493246Y-97371151D01*
X118477977Y-97359114D01*
X118463135Y-97332612D01*
X118447366Y-97312429D01*
X118441192Y-97293430D01*
X118429009Y-97271674D01*
X118426078Y-97246912D01*
X118419905Y-97227914D01*
X118420799Y-97202314D01*
X118417229Y-97172151D01*
X118422506Y-97153437D01*
X118423057Y-97137685D01*
X118442175Y-97083696D01*
X118444432Y-97075696D01*
X118505528Y-96955788D01*
X118641164Y-96689587D01*
X118641166Y-96689583D01*
X118643053Y-96685881D01*
X118648185Y-96679370D01*
X118680636Y-96632154D01*
X118693061Y-96622445D01*
X118705098Y-96607178D01*
X118731597Y-96592337D01*
X118751784Y-96576566D01*
X118770782Y-96570392D01*
X118792537Y-96558210D01*
X118817296Y-96555279D01*
X118836297Y-96549106D01*
X118861901Y-96550000D01*
X118892060Y-96546431D01*
X118910769Y-96551707D01*
G37*
G36*
X29541798Y-83938745D02*
G01*
X29561227Y-83939509D01*
X29588814Y-83952227D01*
X29613432Y-83959286D01*
X29629587Y-83971023D01*
X29652239Y-83981466D01*
X29669169Y-83999781D01*
X29685325Y-84011519D01*
X29699643Y-84032747D01*
X29720267Y-84055058D01*
X29726998Y-84073304D01*
X29735811Y-84086370D01*
X29752072Y-84141269D01*
X29754955Y-84149082D01*
X29823395Y-84581195D01*
X29823068Y-84589506D01*
X29824568Y-84646753D01*
X29820223Y-84661903D01*
X29819460Y-84681336D01*
X29806739Y-84708929D01*
X29799682Y-84733541D01*
X29787947Y-84749692D01*
X29777503Y-84772348D01*
X29759184Y-84789281D01*
X29747449Y-84805434D01*
X29726224Y-84819749D01*
X29703911Y-84840376D01*
X29685662Y-84847108D01*
X29672598Y-84855920D01*
X29617683Y-84872186D01*
X29609887Y-84875063D01*
X29103697Y-84955236D01*
X29095385Y-84954909D01*
X29038139Y-84956409D01*
X29022988Y-84952064D01*
X29003557Y-84951301D01*
X28975964Y-84938580D01*
X28951351Y-84931523D01*
X28935197Y-84919787D01*
X28912545Y-84909344D01*
X28895613Y-84891027D01*
X28879458Y-84879290D01*
X28865139Y-84858061D01*
X28844517Y-84835752D01*
X28837785Y-84817506D01*
X28828972Y-84804439D01*
X28812707Y-84749531D01*
X28809829Y-84741728D01*
X28741389Y-84309615D01*
X28741715Y-84301318D01*
X28740215Y-84244056D01*
X28744560Y-84228900D01*
X28745324Y-84209474D01*
X28758041Y-84181887D01*
X28765101Y-84157268D01*
X28776839Y-84141110D01*
X28787281Y-84118462D01*
X28805594Y-84101533D01*
X28817334Y-84085375D01*
X28838566Y-84071053D01*
X28860873Y-84050434D01*
X28879116Y-84043703D01*
X28892185Y-84034889D01*
X28947118Y-84018616D01*
X28954897Y-84015747D01*
X28958999Y-84015097D01*
X28959007Y-84015095D01*
X29456975Y-83936225D01*
X29456977Y-83936224D01*
X29461087Y-83935574D01*
X29469382Y-83935899D01*
X29526644Y-83934400D01*
X29541798Y-83938745D01*
G37*
G36*
X122957002Y-83929223D02*
G01*
X122965311Y-83928897D01*
X123197817Y-83965722D01*
X123467391Y-84008418D01*
X123467398Y-84008420D01*
X123471501Y-84009070D01*
X123479280Y-84011939D01*
X123534212Y-84028212D01*
X123547279Y-84037026D01*
X123565525Y-84043757D01*
X123587834Y-84064379D01*
X123609063Y-84078698D01*
X123620800Y-84094853D01*
X123639117Y-84111785D01*
X123649560Y-84134437D01*
X123661296Y-84150591D01*
X123668354Y-84175205D01*
X123681074Y-84202797D01*
X123681837Y-84222227D01*
X123686182Y-84237378D01*
X123684681Y-84294613D01*
X123685009Y-84302938D01*
X123616569Y-84735051D01*
X123613689Y-84742855D01*
X123597425Y-84797762D01*
X123588613Y-84810825D01*
X123581881Y-84829075D01*
X123561254Y-84851388D01*
X123546939Y-84872613D01*
X123530786Y-84884348D01*
X123513853Y-84902667D01*
X123491197Y-84913111D01*
X123475046Y-84924846D01*
X123450434Y-84931903D01*
X123422841Y-84944624D01*
X123403409Y-84945387D01*
X123388259Y-84949732D01*
X123331024Y-84948231D01*
X123322701Y-84948559D01*
X122862778Y-84875714D01*
X122820620Y-84869037D01*
X122820618Y-84869036D01*
X122816511Y-84868386D01*
X122808722Y-84865512D01*
X122753799Y-84849243D01*
X122740733Y-84840430D01*
X122722487Y-84833699D01*
X122700176Y-84813075D01*
X122678948Y-84798757D01*
X122667210Y-84782601D01*
X122648895Y-84765671D01*
X122638452Y-84743019D01*
X122626715Y-84726864D01*
X122619655Y-84702246D01*
X122606938Y-84674659D01*
X122606174Y-84655231D01*
X122601829Y-84640077D01*
X122603329Y-84582826D01*
X122603003Y-84574518D01*
X122644309Y-84313724D01*
X122670791Y-84146517D01*
X122670792Y-84146511D01*
X122671443Y-84142405D01*
X122674315Y-84134618D01*
X122690586Y-84079693D01*
X122699400Y-84066624D01*
X122706131Y-84048381D01*
X122726750Y-84026074D01*
X122741072Y-84004842D01*
X122757230Y-83993102D01*
X122774159Y-83974789D01*
X122796807Y-83964347D01*
X122812965Y-83952609D01*
X122837585Y-83945549D01*
X122865171Y-83932832D01*
X122884597Y-83932068D01*
X122899752Y-83927723D01*
X122957002Y-83929223D01*
G37*
G36*
X29295414Y-82383135D02*
G01*
X29314843Y-82383899D01*
X29342430Y-82396617D01*
X29367048Y-82403676D01*
X29383203Y-82415413D01*
X29405855Y-82425856D01*
X29422785Y-82444171D01*
X29438941Y-82455909D01*
X29453259Y-82477137D01*
X29473883Y-82499448D01*
X29480614Y-82517694D01*
X29489427Y-82530760D01*
X29505688Y-82585659D01*
X29508571Y-82593472D01*
X29577011Y-83025585D01*
X29576684Y-83033896D01*
X29578184Y-83091143D01*
X29573839Y-83106293D01*
X29573076Y-83125726D01*
X29560355Y-83153319D01*
X29553298Y-83177931D01*
X29541563Y-83194082D01*
X29531119Y-83216738D01*
X29512800Y-83233671D01*
X29501065Y-83249824D01*
X29479840Y-83264139D01*
X29457527Y-83284766D01*
X29439278Y-83291498D01*
X29426214Y-83300310D01*
X29371299Y-83316576D01*
X29363503Y-83319453D01*
X28857313Y-83399626D01*
X28849001Y-83399299D01*
X28791755Y-83400799D01*
X28776604Y-83396454D01*
X28757173Y-83395691D01*
X28729580Y-83382970D01*
X28704967Y-83375913D01*
X28688813Y-83364177D01*
X28666161Y-83353734D01*
X28649229Y-83335417D01*
X28633074Y-83323680D01*
X28618755Y-83302451D01*
X28598133Y-83280142D01*
X28591401Y-83261896D01*
X28582588Y-83248829D01*
X28566323Y-83193921D01*
X28563445Y-83186118D01*
X28495005Y-82754005D01*
X28495331Y-82745708D01*
X28493831Y-82688446D01*
X28498176Y-82673290D01*
X28498940Y-82653864D01*
X28511657Y-82626277D01*
X28518717Y-82601658D01*
X28530455Y-82585500D01*
X28540897Y-82562852D01*
X28559210Y-82545923D01*
X28570950Y-82529765D01*
X28592182Y-82515443D01*
X28614489Y-82494824D01*
X28632732Y-82488093D01*
X28645801Y-82479279D01*
X28700734Y-82463006D01*
X28708513Y-82460137D01*
X28712615Y-82459487D01*
X28712623Y-82459485D01*
X29210591Y-82380615D01*
X29210593Y-82380614D01*
X29214703Y-82379964D01*
X29222998Y-82380289D01*
X29280260Y-82378790D01*
X29295414Y-82383135D01*
G37*
G36*
X123203386Y-82373613D02*
G01*
X123211695Y-82373287D01*
X123444201Y-82410112D01*
X123713775Y-82452808D01*
X123713782Y-82452810D01*
X123717885Y-82453460D01*
X123725664Y-82456329D01*
X123780596Y-82472602D01*
X123793663Y-82481416D01*
X123811909Y-82488147D01*
X123834218Y-82508769D01*
X123855447Y-82523088D01*
X123867184Y-82539243D01*
X123885501Y-82556175D01*
X123895944Y-82578827D01*
X123907680Y-82594981D01*
X123914738Y-82619595D01*
X123927458Y-82647187D01*
X123928221Y-82666617D01*
X123932566Y-82681768D01*
X123931065Y-82739003D01*
X123931393Y-82747328D01*
X123862953Y-83179441D01*
X123860073Y-83187245D01*
X123843809Y-83242152D01*
X123834997Y-83255215D01*
X123828265Y-83273465D01*
X123807638Y-83295778D01*
X123793323Y-83317003D01*
X123777170Y-83328738D01*
X123760237Y-83347057D01*
X123737581Y-83357501D01*
X123721430Y-83369236D01*
X123696818Y-83376293D01*
X123669225Y-83389014D01*
X123649793Y-83389777D01*
X123634643Y-83394122D01*
X123577408Y-83392621D01*
X123569085Y-83392949D01*
X123109162Y-83320104D01*
X123067004Y-83313427D01*
X123067002Y-83313426D01*
X123062895Y-83312776D01*
X123055106Y-83309902D01*
X123000183Y-83293633D01*
X122987117Y-83284820D01*
X122968871Y-83278089D01*
X122946560Y-83257465D01*
X122925332Y-83243147D01*
X122913594Y-83226991D01*
X122895279Y-83210061D01*
X122884836Y-83187409D01*
X122873099Y-83171254D01*
X122866039Y-83146636D01*
X122853322Y-83119049D01*
X122852558Y-83099621D01*
X122848213Y-83084467D01*
X122849713Y-83027216D01*
X122849387Y-83018908D01*
X122890693Y-82758114D01*
X122917175Y-82590907D01*
X122917176Y-82590901D01*
X122917827Y-82586795D01*
X122920699Y-82579008D01*
X122936970Y-82524083D01*
X122945784Y-82511014D01*
X122952515Y-82492771D01*
X122973134Y-82470464D01*
X122987456Y-82449232D01*
X123003614Y-82437492D01*
X123020543Y-82419179D01*
X123043191Y-82408737D01*
X123059349Y-82396999D01*
X123083969Y-82389939D01*
X123111555Y-82377222D01*
X123130981Y-82376458D01*
X123146136Y-82372113D01*
X123203386Y-82373613D01*
G37*
G36*
X123628422Y-69051851D02*
G01*
X123647851Y-69052615D01*
X123675438Y-69065333D01*
X123700056Y-69072392D01*
X123716211Y-69084129D01*
X123738863Y-69094572D01*
X123755793Y-69112887D01*
X123771949Y-69124625D01*
X123786267Y-69145853D01*
X123806891Y-69168164D01*
X123813622Y-69186410D01*
X123822435Y-69199476D01*
X123838696Y-69254375D01*
X123841579Y-69262188D01*
X123910019Y-69694301D01*
X123909692Y-69702612D01*
X123911192Y-69759859D01*
X123906847Y-69775009D01*
X123906084Y-69794442D01*
X123893363Y-69822035D01*
X123886306Y-69846647D01*
X123874571Y-69862798D01*
X123864127Y-69885454D01*
X123845808Y-69902387D01*
X123834073Y-69918540D01*
X123812848Y-69932855D01*
X123790535Y-69953482D01*
X123772286Y-69960214D01*
X123759222Y-69969026D01*
X123704307Y-69985292D01*
X123696511Y-69988169D01*
X123190321Y-70068342D01*
X123182009Y-70068015D01*
X123124763Y-70069515D01*
X123109612Y-70065170D01*
X123090181Y-70064407D01*
X123062588Y-70051686D01*
X123037975Y-70044629D01*
X123021821Y-70032893D01*
X122999169Y-70022450D01*
X122982237Y-70004133D01*
X122966082Y-69992396D01*
X122951763Y-69971167D01*
X122931141Y-69948858D01*
X122924409Y-69930612D01*
X122915596Y-69917545D01*
X122899331Y-69862637D01*
X122896453Y-69854834D01*
X122828013Y-69422721D01*
X122828339Y-69414424D01*
X122826839Y-69357162D01*
X122831184Y-69342006D01*
X122831948Y-69322580D01*
X122844665Y-69294993D01*
X122851725Y-69270374D01*
X122863463Y-69254216D01*
X122873905Y-69231568D01*
X122892218Y-69214639D01*
X122903958Y-69198481D01*
X122925190Y-69184159D01*
X122947497Y-69163540D01*
X122965740Y-69156809D01*
X122978809Y-69147995D01*
X123033742Y-69131722D01*
X123041521Y-69128853D01*
X123045623Y-69128203D01*
X123045631Y-69128201D01*
X123543599Y-69049331D01*
X123543601Y-69049330D01*
X123547711Y-69048680D01*
X123556006Y-69049005D01*
X123613268Y-69047506D01*
X123628422Y-69051851D01*
G37*
G36*
X28845196Y-69035695D02*
G01*
X28853505Y-69035369D01*
X29086011Y-69072194D01*
X29355585Y-69114890D01*
X29355592Y-69114892D01*
X29359695Y-69115542D01*
X29367474Y-69118411D01*
X29422406Y-69134684D01*
X29435473Y-69143498D01*
X29453719Y-69150229D01*
X29476028Y-69170851D01*
X29497257Y-69185170D01*
X29508994Y-69201325D01*
X29527311Y-69218257D01*
X29537754Y-69240909D01*
X29549490Y-69257063D01*
X29556548Y-69281677D01*
X29569268Y-69309269D01*
X29570031Y-69328699D01*
X29574376Y-69343850D01*
X29572875Y-69401085D01*
X29573203Y-69409410D01*
X29504763Y-69841523D01*
X29501883Y-69849327D01*
X29485619Y-69904234D01*
X29476807Y-69917297D01*
X29470075Y-69935547D01*
X29449448Y-69957860D01*
X29435133Y-69979085D01*
X29418980Y-69990820D01*
X29402047Y-70009139D01*
X29379391Y-70019583D01*
X29363240Y-70031318D01*
X29338628Y-70038375D01*
X29311035Y-70051096D01*
X29291603Y-70051859D01*
X29276453Y-70056204D01*
X29219218Y-70054703D01*
X29210895Y-70055031D01*
X28759576Y-69983548D01*
X28708814Y-69975509D01*
X28708812Y-69975508D01*
X28704705Y-69974858D01*
X28696916Y-69971984D01*
X28641993Y-69955715D01*
X28628927Y-69946902D01*
X28610681Y-69940171D01*
X28588370Y-69919547D01*
X28567142Y-69905229D01*
X28555404Y-69889073D01*
X28537089Y-69872143D01*
X28526646Y-69849491D01*
X28514909Y-69833336D01*
X28507849Y-69808718D01*
X28495132Y-69781131D01*
X28494368Y-69761703D01*
X28490023Y-69746549D01*
X28491523Y-69689298D01*
X28491197Y-69680990D01*
X28542486Y-69357162D01*
X28558985Y-69252989D01*
X28558986Y-69252983D01*
X28559637Y-69248877D01*
X28562509Y-69241090D01*
X28578780Y-69186165D01*
X28587594Y-69173096D01*
X28594325Y-69154853D01*
X28614944Y-69132546D01*
X28629266Y-69111314D01*
X28645424Y-69099574D01*
X28662353Y-69081261D01*
X28685001Y-69070819D01*
X28701159Y-69059081D01*
X28725779Y-69052021D01*
X28753365Y-69039304D01*
X28772791Y-69038540D01*
X28787946Y-69034195D01*
X28845196Y-69035695D01*
G37*
G36*
X123382038Y-67496241D02*
G01*
X123401467Y-67497005D01*
X123429054Y-67509723D01*
X123453672Y-67516782D01*
X123469827Y-67528519D01*
X123492479Y-67538962D01*
X123509409Y-67557277D01*
X123525565Y-67569015D01*
X123539883Y-67590243D01*
X123560507Y-67612554D01*
X123567238Y-67630800D01*
X123576051Y-67643866D01*
X123592312Y-67698765D01*
X123595195Y-67706578D01*
X123663635Y-68138691D01*
X123663308Y-68147002D01*
X123664808Y-68204249D01*
X123660463Y-68219399D01*
X123659700Y-68238832D01*
X123646979Y-68266425D01*
X123639922Y-68291037D01*
X123628187Y-68307188D01*
X123617743Y-68329844D01*
X123599424Y-68346777D01*
X123587689Y-68362930D01*
X123566464Y-68377245D01*
X123544151Y-68397872D01*
X123525902Y-68404604D01*
X123512838Y-68413416D01*
X123457923Y-68429682D01*
X123450127Y-68432559D01*
X122943937Y-68512732D01*
X122935625Y-68512405D01*
X122878379Y-68513905D01*
X122863228Y-68509560D01*
X122843797Y-68508797D01*
X122816204Y-68496076D01*
X122791591Y-68489019D01*
X122775437Y-68477283D01*
X122752785Y-68466840D01*
X122735853Y-68448523D01*
X122719698Y-68436786D01*
X122705379Y-68415557D01*
X122684757Y-68393248D01*
X122678025Y-68375002D01*
X122669212Y-68361935D01*
X122652947Y-68307027D01*
X122650069Y-68299224D01*
X122581629Y-67867111D01*
X122581955Y-67858814D01*
X122580455Y-67801552D01*
X122584800Y-67786396D01*
X122585564Y-67766970D01*
X122598281Y-67739383D01*
X122605341Y-67714764D01*
X122617079Y-67698606D01*
X122627521Y-67675958D01*
X122645834Y-67659029D01*
X122657574Y-67642871D01*
X122678806Y-67628549D01*
X122701113Y-67607930D01*
X122719356Y-67601199D01*
X122732425Y-67592385D01*
X122787358Y-67576112D01*
X122795137Y-67573243D01*
X122799239Y-67572593D01*
X122799247Y-67572591D01*
X123297215Y-67493721D01*
X123297217Y-67493720D01*
X123301327Y-67493070D01*
X123309622Y-67493395D01*
X123366884Y-67491896D01*
X123382038Y-67496241D01*
G37*
G36*
X29091580Y-67480085D02*
G01*
X29099889Y-67479759D01*
X29332395Y-67516584D01*
X29601969Y-67559280D01*
X29601976Y-67559282D01*
X29606079Y-67559932D01*
X29613858Y-67562801D01*
X29668790Y-67579074D01*
X29681857Y-67587888D01*
X29700103Y-67594619D01*
X29722412Y-67615241D01*
X29743641Y-67629560D01*
X29755378Y-67645715D01*
X29773695Y-67662647D01*
X29784138Y-67685299D01*
X29795874Y-67701453D01*
X29802932Y-67726067D01*
X29815652Y-67753659D01*
X29816415Y-67773089D01*
X29820760Y-67788240D01*
X29819259Y-67845475D01*
X29819587Y-67853800D01*
X29751147Y-68285913D01*
X29748267Y-68293717D01*
X29732003Y-68348624D01*
X29723191Y-68361687D01*
X29716459Y-68379937D01*
X29695832Y-68402250D01*
X29681517Y-68423475D01*
X29665364Y-68435210D01*
X29648431Y-68453529D01*
X29625775Y-68463973D01*
X29609624Y-68475708D01*
X29585012Y-68482765D01*
X29557419Y-68495486D01*
X29537987Y-68496249D01*
X29522837Y-68500594D01*
X29465602Y-68499093D01*
X29457279Y-68499421D01*
X29005960Y-68427938D01*
X28955198Y-68419899D01*
X28955196Y-68419898D01*
X28951089Y-68419248D01*
X28943300Y-68416374D01*
X28888377Y-68400105D01*
X28875311Y-68391292D01*
X28857065Y-68384561D01*
X28834754Y-68363937D01*
X28813526Y-68349619D01*
X28801788Y-68333463D01*
X28783473Y-68316533D01*
X28773030Y-68293881D01*
X28761293Y-68277726D01*
X28754233Y-68253108D01*
X28741516Y-68225521D01*
X28740752Y-68206093D01*
X28736407Y-68190939D01*
X28737907Y-68133688D01*
X28737581Y-68125380D01*
X28788870Y-67801552D01*
X28805369Y-67697379D01*
X28805370Y-67697373D01*
X28806021Y-67693267D01*
X28808893Y-67685480D01*
X28825164Y-67630555D01*
X28833978Y-67617486D01*
X28840709Y-67599243D01*
X28861328Y-67576936D01*
X28875650Y-67555704D01*
X28891808Y-67543964D01*
X28908737Y-67525651D01*
X28931385Y-67515209D01*
X28947543Y-67503471D01*
X28972163Y-67496411D01*
X28999749Y-67483694D01*
X29019175Y-67482930D01*
X29034330Y-67478585D01*
X29091580Y-67480085D01*
G37*
G36*
X33336251Y-54733777D02*
G01*
X33352011Y-54734328D01*
X33405998Y-54753447D01*
X33413997Y-54755703D01*
X33870638Y-54988373D01*
X33877164Y-54993518D01*
X33924367Y-55025960D01*
X33934070Y-55038379D01*
X33949341Y-55050418D01*
X33964182Y-55076920D01*
X33979951Y-55097102D01*
X33986123Y-55116099D01*
X33998309Y-55137858D01*
X34001240Y-55162622D01*
X34007412Y-55181617D01*
X34006517Y-55207210D01*
X34010089Y-55237381D01*
X34004810Y-55256098D01*
X34004260Y-55271846D01*
X33985147Y-55325816D01*
X33982886Y-55333836D01*
X33784265Y-55723651D01*
X33779119Y-55730178D01*
X33746681Y-55777377D01*
X33734259Y-55787081D01*
X33722220Y-55802354D01*
X33695711Y-55817199D01*
X33675533Y-55832965D01*
X33656540Y-55839135D01*
X33634781Y-55851322D01*
X33610014Y-55854253D01*
X33591020Y-55860425D01*
X33565422Y-55859530D01*
X33535258Y-55863101D01*
X33516544Y-55857823D01*
X33500788Y-55857273D01*
X33446810Y-55838157D01*
X33438803Y-55835899D01*
X32982162Y-55603229D01*
X32975632Y-55598081D01*
X32928432Y-55565641D01*
X32918728Y-55553221D01*
X32903459Y-55541184D01*
X32888617Y-55514682D01*
X32872848Y-55494499D01*
X32866674Y-55475500D01*
X32854491Y-55453744D01*
X32851560Y-55428982D01*
X32845387Y-55409984D01*
X32846281Y-55384384D01*
X32842711Y-55354221D01*
X32847988Y-55335507D01*
X32848539Y-55319755D01*
X32867657Y-55265766D01*
X32869914Y-55257766D01*
X32931010Y-55137858D01*
X33066646Y-54871657D01*
X33066648Y-54871653D01*
X33068535Y-54867951D01*
X33073667Y-54861440D01*
X33106118Y-54814224D01*
X33118543Y-54804515D01*
X33130580Y-54789248D01*
X33157079Y-54774407D01*
X33177266Y-54758636D01*
X33196264Y-54752462D01*
X33218019Y-54740280D01*
X33242778Y-54737349D01*
X33261779Y-54731176D01*
X33287383Y-54732070D01*
X33317542Y-54728501D01*
X33336251Y-54733777D01*
G37*
G36*
X119102971Y-54722274D02*
G01*
X119128575Y-54721380D01*
X119147574Y-54727553D01*
X119172336Y-54730484D01*
X119194091Y-54742667D01*
X119213088Y-54748840D01*
X119233272Y-54764609D01*
X119259775Y-54779452D01*
X119271812Y-54794720D01*
X119284234Y-54804426D01*
X119316671Y-54851624D01*
X119321820Y-54858155D01*
X119520441Y-55247970D01*
X119522696Y-55255968D01*
X119541815Y-55309957D01*
X119542365Y-55325707D01*
X119547644Y-55344425D01*
X119544072Y-55374594D01*
X119544967Y-55400188D01*
X119538795Y-55419181D01*
X119535864Y-55443948D01*
X119523677Y-55465708D01*
X119517506Y-55484703D01*
X119501739Y-55504882D01*
X119486896Y-55531388D01*
X119471624Y-55543427D01*
X119461923Y-55555844D01*
X119414741Y-55588270D01*
X119408193Y-55593433D01*
X118951552Y-55826103D01*
X118943550Y-55828359D01*
X118889565Y-55847477D01*
X118873810Y-55848027D01*
X118855097Y-55853305D01*
X118824931Y-55849734D01*
X118799334Y-55850629D01*
X118780338Y-55844457D01*
X118755574Y-55841526D01*
X118733815Y-55829340D01*
X118714821Y-55823169D01*
X118694638Y-55807400D01*
X118668135Y-55792558D01*
X118656097Y-55777288D01*
X118643675Y-55767583D01*
X118611235Y-55720382D01*
X118606090Y-55713855D01*
X118525579Y-55555844D01*
X118409358Y-55327748D01*
X118409357Y-55327745D01*
X118407469Y-55324040D01*
X118405215Y-55316050D01*
X118386094Y-55262052D01*
X118385543Y-55246298D01*
X118380266Y-55227585D01*
X118383836Y-55197421D01*
X118382942Y-55171821D01*
X118389115Y-55152821D01*
X118392046Y-55128062D01*
X118404228Y-55106307D01*
X118410403Y-55087306D01*
X118426175Y-55067119D01*
X118441014Y-55040622D01*
X118456281Y-55028586D01*
X118465986Y-55016165D01*
X118513185Y-54983726D01*
X118519717Y-54978577D01*
X118658678Y-54907772D01*
X118972649Y-54747796D01*
X118972654Y-54747794D01*
X118976358Y-54745907D01*
X118984340Y-54743655D01*
X119038344Y-54724532D01*
X119054103Y-54723981D01*
X119072813Y-54718705D01*
X119102971Y-54722274D01*
G37*
G36*
X34051287Y-53330439D02*
G01*
X34067047Y-53330990D01*
X34121034Y-53350109D01*
X34129033Y-53352365D01*
X34585674Y-53585035D01*
X34592200Y-53590180D01*
X34639403Y-53622622D01*
X34649106Y-53635041D01*
X34664377Y-53647080D01*
X34679218Y-53673582D01*
X34694987Y-53693764D01*
X34701159Y-53712761D01*
X34713345Y-53734520D01*
X34716276Y-53759284D01*
X34722448Y-53778279D01*
X34721553Y-53803872D01*
X34725125Y-53834043D01*
X34719846Y-53852760D01*
X34719296Y-53868508D01*
X34700183Y-53922478D01*
X34697922Y-53930498D01*
X34499301Y-54320313D01*
X34494155Y-54326840D01*
X34461717Y-54374039D01*
X34449295Y-54383743D01*
X34437256Y-54399016D01*
X34410747Y-54413861D01*
X34390569Y-54429627D01*
X34371576Y-54435797D01*
X34349817Y-54447984D01*
X34325050Y-54450915D01*
X34306056Y-54457087D01*
X34280458Y-54456192D01*
X34250294Y-54459763D01*
X34231580Y-54454485D01*
X34215824Y-54453935D01*
X34161846Y-54434819D01*
X34153839Y-54432561D01*
X33697198Y-54199891D01*
X33690668Y-54194743D01*
X33643468Y-54162303D01*
X33633764Y-54149883D01*
X33618495Y-54137846D01*
X33603653Y-54111344D01*
X33587884Y-54091161D01*
X33581710Y-54072162D01*
X33569527Y-54050406D01*
X33566596Y-54025644D01*
X33560423Y-54006646D01*
X33561317Y-53981046D01*
X33557747Y-53950883D01*
X33563024Y-53932169D01*
X33563575Y-53916417D01*
X33582693Y-53862428D01*
X33584950Y-53854428D01*
X33646046Y-53734520D01*
X33781682Y-53468319D01*
X33781684Y-53468315D01*
X33783571Y-53464613D01*
X33788703Y-53458102D01*
X33821154Y-53410886D01*
X33833579Y-53401177D01*
X33845616Y-53385910D01*
X33872115Y-53371069D01*
X33892302Y-53355298D01*
X33911300Y-53349124D01*
X33933055Y-53336942D01*
X33957814Y-53334011D01*
X33976815Y-53327838D01*
X34002419Y-53328732D01*
X34032578Y-53325163D01*
X34051287Y-53330439D01*
G37*
G36*
X118387935Y-53318936D02*
G01*
X118413539Y-53318042D01*
X118432538Y-53324215D01*
X118457300Y-53327146D01*
X118479055Y-53339329D01*
X118498052Y-53345502D01*
X118518236Y-53361271D01*
X118544739Y-53376114D01*
X118556776Y-53391382D01*
X118569198Y-53401088D01*
X118601635Y-53448286D01*
X118606784Y-53454817D01*
X118805405Y-53844632D01*
X118807660Y-53852630D01*
X118826779Y-53906619D01*
X118827329Y-53922369D01*
X118832608Y-53941087D01*
X118829036Y-53971256D01*
X118829931Y-53996850D01*
X118823759Y-54015843D01*
X118820828Y-54040610D01*
X118808641Y-54062370D01*
X118802470Y-54081365D01*
X118786703Y-54101544D01*
X118771860Y-54128050D01*
X118756588Y-54140089D01*
X118746887Y-54152506D01*
X118699705Y-54184932D01*
X118693157Y-54190095D01*
X118236516Y-54422765D01*
X118228514Y-54425021D01*
X118174529Y-54444139D01*
X118158774Y-54444689D01*
X118140061Y-54449967D01*
X118109895Y-54446396D01*
X118084298Y-54447291D01*
X118065302Y-54441119D01*
X118040538Y-54438188D01*
X118018779Y-54426002D01*
X117999785Y-54419831D01*
X117979602Y-54404062D01*
X117953099Y-54389220D01*
X117941061Y-54373950D01*
X117928639Y-54364245D01*
X117896199Y-54317044D01*
X117891054Y-54310517D01*
X117810543Y-54152506D01*
X117694322Y-53924410D01*
X117694321Y-53924407D01*
X117692433Y-53920702D01*
X117690179Y-53912712D01*
X117671058Y-53858714D01*
X117670507Y-53842960D01*
X117665230Y-53824247D01*
X117668800Y-53794083D01*
X117667906Y-53768483D01*
X117674079Y-53749483D01*
X117677010Y-53724724D01*
X117689192Y-53702969D01*
X117695367Y-53683968D01*
X117711139Y-53663781D01*
X117725978Y-53637284D01*
X117741245Y-53625248D01*
X117750950Y-53612827D01*
X117798149Y-53580388D01*
X117804681Y-53575239D01*
X117943642Y-53504434D01*
X118257613Y-53344458D01*
X118257618Y-53344456D01*
X118261322Y-53342569D01*
X118269304Y-53340317D01*
X118323308Y-53321194D01*
X118339067Y-53320643D01*
X118357777Y-53315367D01*
X118387935Y-53318936D01*
G37*
G36*
X41960700Y-42488588D02*
G01*
X41980670Y-42488588D01*
X42004734Y-42497346D01*
X42034529Y-42503273D01*
X42050695Y-42514075D01*
X42065507Y-42519466D01*
X42110938Y-42554328D01*
X42117857Y-42558951D01*
X42480249Y-42921343D01*
X42484865Y-42928251D01*
X42519733Y-42973692D01*
X42525123Y-42988502D01*
X42535927Y-43004671D01*
X42541853Y-43034466D01*
X42550612Y-43058530D01*
X42550612Y-43078500D01*
X42555478Y-43102964D01*
X42550612Y-43127427D01*
X42550612Y-43147396D01*
X42541854Y-43171457D01*
X42535927Y-43201256D01*
X42525123Y-43217425D01*
X42519733Y-43232234D01*
X42484878Y-43277655D01*
X42480249Y-43284584D01*
X42170890Y-43593943D01*
X42163973Y-43598564D01*
X42118540Y-43633427D01*
X42103731Y-43638817D01*
X42087562Y-43649621D01*
X42057765Y-43655547D01*
X42033703Y-43664306D01*
X42013734Y-43664306D01*
X41989270Y-43669172D01*
X41964806Y-43664306D01*
X41944836Y-43664306D01*
X41920772Y-43655547D01*
X41890977Y-43649621D01*
X41874808Y-43638817D01*
X41859998Y-43633427D01*
X41814570Y-43598567D01*
X41807649Y-43593943D01*
X41445257Y-43231551D01*
X41440642Y-43224644D01*
X41405772Y-43179201D01*
X41400381Y-43164389D01*
X41389579Y-43148223D01*
X41383652Y-43118426D01*
X41374894Y-43094363D01*
X41374894Y-43074393D01*
X41370028Y-43049930D01*
X41374894Y-43025466D01*
X41374894Y-43005497D01*
X41383652Y-42981432D01*
X41389579Y-42951638D01*
X41400380Y-42935472D01*
X41405772Y-42920659D01*
X41440639Y-42875221D01*
X41445257Y-42868310D01*
X41599936Y-42713631D01*
X41751672Y-42561894D01*
X41751676Y-42561890D01*
X41754616Y-42558951D01*
X41761514Y-42554341D01*
X41806965Y-42519466D01*
X41821778Y-42514074D01*
X41837944Y-42503273D01*
X41867738Y-42497346D01*
X41891803Y-42488588D01*
X41911772Y-42488588D01*
X41936236Y-42483722D01*
X41960700Y-42488588D01*
G37*
G36*
X110486275Y-42486635D02*
G01*
X110506244Y-42486635D01*
X110530308Y-42495393D01*
X110560103Y-42501320D01*
X110576269Y-42512122D01*
X110591081Y-42517513D01*
X110636512Y-42552375D01*
X110643431Y-42556998D01*
X110952790Y-42866357D01*
X110957406Y-42873265D01*
X110992274Y-42918706D01*
X110997664Y-42933516D01*
X111008468Y-42949685D01*
X111014394Y-42979480D01*
X111023153Y-43003544D01*
X111023153Y-43023513D01*
X111028019Y-43047977D01*
X111023153Y-43072440D01*
X111023153Y-43092410D01*
X111014394Y-43116472D01*
X111008468Y-43146270D01*
X110997664Y-43162439D01*
X110992274Y-43177248D01*
X110957419Y-43222669D01*
X110952790Y-43229598D01*
X110590398Y-43591990D01*
X110583481Y-43596611D01*
X110538048Y-43631474D01*
X110523239Y-43636864D01*
X110507070Y-43647668D01*
X110477273Y-43653594D01*
X110453211Y-43662353D01*
X110433241Y-43662353D01*
X110408777Y-43667219D01*
X110384313Y-43662353D01*
X110364344Y-43662353D01*
X110340280Y-43653594D01*
X110310485Y-43647668D01*
X110294316Y-43636864D01*
X110279506Y-43631474D01*
X110234078Y-43596614D01*
X110227157Y-43591990D01*
X109917798Y-43282631D01*
X109913183Y-43275724D01*
X109878313Y-43230281D01*
X109872922Y-43215469D01*
X109862120Y-43199303D01*
X109856193Y-43169506D01*
X109847435Y-43145443D01*
X109847435Y-43125474D01*
X109842569Y-43101011D01*
X109847435Y-43076547D01*
X109847435Y-43056577D01*
X109856193Y-43032511D01*
X109862120Y-43002718D01*
X109872921Y-42986552D01*
X109878313Y-42971739D01*
X109913180Y-42926301D01*
X109917798Y-42919390D01*
X110098993Y-42738194D01*
X110277246Y-42559941D01*
X110277250Y-42559937D01*
X110280190Y-42556998D01*
X110287088Y-42552388D01*
X110332539Y-42517513D01*
X110347352Y-42512121D01*
X110363518Y-42501320D01*
X110393311Y-42495393D01*
X110417377Y-42486635D01*
X110437347Y-42486635D01*
X110461811Y-42481769D01*
X110486275Y-42486635D01*
G37*
G36*
X43074394Y-41374894D02*
G01*
X43094364Y-41374894D01*
X43118428Y-41383652D01*
X43148223Y-41389579D01*
X43164389Y-41400381D01*
X43179201Y-41405772D01*
X43224632Y-41440634D01*
X43231551Y-41445257D01*
X43593943Y-41807649D01*
X43598559Y-41814557D01*
X43633427Y-41859998D01*
X43638817Y-41874808D01*
X43649621Y-41890977D01*
X43655547Y-41920772D01*
X43664306Y-41944836D01*
X43664306Y-41964806D01*
X43669172Y-41989270D01*
X43664306Y-42013733D01*
X43664306Y-42033702D01*
X43655548Y-42057763D01*
X43649621Y-42087562D01*
X43638817Y-42103731D01*
X43633427Y-42118540D01*
X43598572Y-42163961D01*
X43593943Y-42170890D01*
X43284584Y-42480249D01*
X43277667Y-42484870D01*
X43232234Y-42519733D01*
X43217425Y-42525123D01*
X43201256Y-42535927D01*
X43171459Y-42541853D01*
X43147397Y-42550612D01*
X43127428Y-42550612D01*
X43102964Y-42555478D01*
X43078500Y-42550612D01*
X43058530Y-42550612D01*
X43034466Y-42541853D01*
X43004671Y-42535927D01*
X42988502Y-42525123D01*
X42973692Y-42519733D01*
X42928264Y-42484873D01*
X42921343Y-42480249D01*
X42558951Y-42117857D01*
X42554336Y-42110950D01*
X42519466Y-42065507D01*
X42514075Y-42050695D01*
X42503273Y-42034529D01*
X42497346Y-42004732D01*
X42488588Y-41980669D01*
X42488588Y-41960699D01*
X42483722Y-41936236D01*
X42488588Y-41911772D01*
X42488588Y-41891803D01*
X42497346Y-41867738D01*
X42503273Y-41837944D01*
X42514074Y-41821778D01*
X42519466Y-41806965D01*
X42554333Y-41761527D01*
X42558951Y-41754616D01*
X42713630Y-41599937D01*
X42865366Y-41448200D01*
X42865370Y-41448196D01*
X42868310Y-41445257D01*
X42875208Y-41440647D01*
X42920659Y-41405772D01*
X42935472Y-41400380D01*
X42951638Y-41389579D01*
X42981432Y-41383652D01*
X43005497Y-41374894D01*
X43025466Y-41374894D01*
X43049930Y-41370028D01*
X43074394Y-41374894D01*
G37*
G36*
X109372581Y-41372941D02*
G01*
X109392550Y-41372941D01*
X109416614Y-41381699D01*
X109446409Y-41387626D01*
X109462575Y-41398428D01*
X109477387Y-41403819D01*
X109522818Y-41438681D01*
X109529737Y-41443304D01*
X109839096Y-41752663D01*
X109843712Y-41759571D01*
X109878580Y-41805012D01*
X109883970Y-41819822D01*
X109894774Y-41835991D01*
X109900700Y-41865786D01*
X109909459Y-41889850D01*
X109909459Y-41909819D01*
X109914325Y-41934283D01*
X109909459Y-41958746D01*
X109909459Y-41978716D01*
X109900700Y-42002778D01*
X109894774Y-42032576D01*
X109883970Y-42048745D01*
X109878580Y-42063554D01*
X109843725Y-42108975D01*
X109839096Y-42115904D01*
X109476704Y-42478296D01*
X109469787Y-42482917D01*
X109424354Y-42517780D01*
X109409545Y-42523170D01*
X109393376Y-42533974D01*
X109363579Y-42539900D01*
X109339517Y-42548659D01*
X109319547Y-42548659D01*
X109295083Y-42553525D01*
X109270619Y-42548659D01*
X109250650Y-42548659D01*
X109226586Y-42539900D01*
X109196791Y-42533974D01*
X109180622Y-42523170D01*
X109165812Y-42517780D01*
X109120384Y-42482920D01*
X109113463Y-42478296D01*
X108804104Y-42168937D01*
X108799489Y-42162030D01*
X108764619Y-42116587D01*
X108759228Y-42101775D01*
X108748426Y-42085609D01*
X108742499Y-42055812D01*
X108733741Y-42031749D01*
X108733741Y-42011780D01*
X108728875Y-41987317D01*
X108733741Y-41962853D01*
X108733741Y-41942883D01*
X108742499Y-41918817D01*
X108748426Y-41889024D01*
X108759227Y-41872858D01*
X108764619Y-41858045D01*
X108799486Y-41812607D01*
X108804104Y-41805696D01*
X108985299Y-41624500D01*
X109163552Y-41446247D01*
X109163556Y-41446243D01*
X109166496Y-41443304D01*
X109173394Y-41438694D01*
X109218845Y-41403819D01*
X109233658Y-41398427D01*
X109249824Y-41387626D01*
X109279617Y-41381699D01*
X109303683Y-41372941D01*
X109323653Y-41372941D01*
X109348117Y-41368075D01*
X109372581Y-41372941D01*
G37*
G36*
X98502762Y-33561106D02*
G01*
X98518514Y-33561657D01*
X98572498Y-33580774D01*
X98580504Y-33583032D01*
X98882293Y-33736801D01*
X98929306Y-33760756D01*
X98970319Y-33781653D01*
X98976836Y-33786790D01*
X99024045Y-33819236D01*
X99033751Y-33831659D01*
X99049022Y-33843698D01*
X99063865Y-33870202D01*
X99079633Y-33890384D01*
X99085804Y-33909378D01*
X99097990Y-33931137D01*
X99100921Y-33955901D01*
X99107093Y-33974897D01*
X99106198Y-34000494D01*
X99109769Y-34030660D01*
X99104491Y-34049373D01*
X99103941Y-34065129D01*
X99084826Y-34119102D01*
X99082567Y-34127115D01*
X98849897Y-34583756D01*
X98844743Y-34590292D01*
X98812309Y-34637485D01*
X98799891Y-34647186D01*
X98787852Y-34662459D01*
X98761346Y-34677302D01*
X98741167Y-34693069D01*
X98722172Y-34699240D01*
X98700412Y-34711427D01*
X98675645Y-34714358D01*
X98656652Y-34720530D01*
X98631058Y-34719635D01*
X98600889Y-34723207D01*
X98582171Y-34717928D01*
X98566423Y-34717378D01*
X98512448Y-34698264D01*
X98504434Y-34696004D01*
X98114619Y-34497383D01*
X98108098Y-34492242D01*
X98060892Y-34459799D01*
X98051185Y-34447375D01*
X98035916Y-34435338D01*
X98021073Y-34408834D01*
X98005304Y-34388651D01*
X97999131Y-34369654D01*
X97986948Y-34347899D01*
X97984017Y-34323137D01*
X97977844Y-34304138D01*
X97978738Y-34278534D01*
X97975169Y-34248376D01*
X97980445Y-34229666D01*
X97980996Y-34213906D01*
X98000116Y-34159914D01*
X98002371Y-34151921D01*
X98148560Y-33865009D01*
X98233150Y-33698990D01*
X98233152Y-33698986D01*
X98235041Y-33695280D01*
X98240180Y-33688760D01*
X98272628Y-33641550D01*
X98285049Y-33631844D01*
X98297086Y-33616577D01*
X98323583Y-33601737D01*
X98343770Y-33585966D01*
X98362771Y-33579791D01*
X98384526Y-33567609D01*
X98409285Y-33564678D01*
X98428285Y-33558505D01*
X98453885Y-33559399D01*
X98484049Y-33555829D01*
X98502762Y-33561106D01*
G37*
G36*
X53981046Y-33535917D02*
G01*
X54006646Y-33535023D01*
X54025644Y-33541196D01*
X54050406Y-33544127D01*
X54072162Y-33556310D01*
X54091161Y-33562484D01*
X54111345Y-33578254D01*
X54137846Y-33593095D01*
X54149883Y-33608364D01*
X54162302Y-33618067D01*
X54194734Y-33665256D01*
X54199891Y-33671798D01*
X54432561Y-34128439D01*
X54434816Y-34136435D01*
X54453935Y-34190425D01*
X54454485Y-34206180D01*
X54459763Y-34224894D01*
X54456192Y-34255059D01*
X54457087Y-34280656D01*
X54450915Y-34299650D01*
X54447984Y-34324417D01*
X54435797Y-34346176D01*
X54429627Y-34365169D01*
X54413860Y-34385348D01*
X54399016Y-34411856D01*
X54383744Y-34423895D01*
X54374041Y-34436315D01*
X54326850Y-34468747D01*
X54320313Y-34473901D01*
X53930498Y-34672522D01*
X53922494Y-34674779D01*
X53868510Y-34693896D01*
X53852760Y-34694446D01*
X53834043Y-34699725D01*
X53803872Y-34696153D01*
X53778279Y-34697048D01*
X53759284Y-34690876D01*
X53734520Y-34687945D01*
X53712761Y-34675759D01*
X53693764Y-34669587D01*
X53673581Y-34653818D01*
X53647080Y-34638977D01*
X53635042Y-34623707D01*
X53622623Y-34614004D01*
X53590189Y-34566812D01*
X53585035Y-34560274D01*
X53376969Y-34151921D01*
X53354254Y-34107341D01*
X53354253Y-34107338D01*
X53352365Y-34103633D01*
X53350112Y-34095645D01*
X53330990Y-34041646D01*
X53330439Y-34025887D01*
X53325163Y-34007178D01*
X53328732Y-33977019D01*
X53327838Y-33951415D01*
X53334011Y-33932414D01*
X53336942Y-33907655D01*
X53349124Y-33885900D01*
X53355298Y-33866902D01*
X53371069Y-33846715D01*
X53385910Y-33820216D01*
X53401176Y-33808180D01*
X53410884Y-33795756D01*
X53458092Y-33763311D01*
X53464613Y-33758171D01*
X53468321Y-33756281D01*
X53468325Y-33756279D01*
X53850719Y-33561439D01*
X53850724Y-33561437D01*
X53854428Y-33559550D01*
X53862412Y-33557298D01*
X53916415Y-33538175D01*
X53932169Y-33537624D01*
X53950883Y-33532347D01*
X53981046Y-33535917D01*
G37*
G36*
X97099424Y-32846070D02*
G01*
X97115176Y-32846621D01*
X97169160Y-32865738D01*
X97177166Y-32867996D01*
X97401939Y-32982524D01*
X97531275Y-33048424D01*
X97566981Y-33066617D01*
X97573498Y-33071754D01*
X97620707Y-33104200D01*
X97630413Y-33116623D01*
X97645684Y-33128662D01*
X97660527Y-33155166D01*
X97676295Y-33175348D01*
X97682466Y-33194342D01*
X97694652Y-33216101D01*
X97697583Y-33240865D01*
X97703755Y-33259861D01*
X97702860Y-33285458D01*
X97706431Y-33315624D01*
X97701153Y-33334337D01*
X97700603Y-33350093D01*
X97681488Y-33404066D01*
X97679229Y-33412079D01*
X97446559Y-33868720D01*
X97441405Y-33875256D01*
X97408971Y-33922449D01*
X97396553Y-33932150D01*
X97384514Y-33947423D01*
X97358008Y-33962266D01*
X97337829Y-33978033D01*
X97318834Y-33984204D01*
X97297074Y-33996391D01*
X97272307Y-33999322D01*
X97253314Y-34005494D01*
X97227720Y-34004599D01*
X97197551Y-34008171D01*
X97178833Y-34002892D01*
X97163085Y-34002342D01*
X97109110Y-33983228D01*
X97101096Y-33980968D01*
X96711281Y-33782347D01*
X96704760Y-33777206D01*
X96657554Y-33744763D01*
X96647847Y-33732339D01*
X96632578Y-33720302D01*
X96617735Y-33693798D01*
X96601966Y-33673615D01*
X96595793Y-33654618D01*
X96583610Y-33632863D01*
X96580679Y-33608101D01*
X96574506Y-33589102D01*
X96575400Y-33563498D01*
X96571831Y-33533340D01*
X96577107Y-33514630D01*
X96577658Y-33498870D01*
X96596778Y-33444878D01*
X96599033Y-33436885D01*
X96765570Y-33110037D01*
X96829812Y-32983954D01*
X96829814Y-32983950D01*
X96831703Y-32980244D01*
X96836842Y-32973724D01*
X96869290Y-32926514D01*
X96881711Y-32916808D01*
X96893748Y-32901541D01*
X96920245Y-32886701D01*
X96940432Y-32870930D01*
X96959433Y-32864755D01*
X96981188Y-32852573D01*
X97005947Y-32849642D01*
X97024947Y-32843469D01*
X97050547Y-32844363D01*
X97080711Y-32840793D01*
X97099424Y-32846070D01*
G37*
G36*
X55384384Y-32820881D02*
G01*
X55409984Y-32819987D01*
X55428982Y-32826160D01*
X55453744Y-32829091D01*
X55475500Y-32841274D01*
X55494499Y-32847448D01*
X55514683Y-32863218D01*
X55541184Y-32878059D01*
X55553221Y-32893328D01*
X55565640Y-32903031D01*
X55598072Y-32950220D01*
X55603229Y-32956762D01*
X55835899Y-33413403D01*
X55838154Y-33421399D01*
X55857273Y-33475389D01*
X55857823Y-33491144D01*
X55863101Y-33509858D01*
X55859530Y-33540023D01*
X55860425Y-33565620D01*
X55854253Y-33584614D01*
X55851322Y-33609381D01*
X55839135Y-33631140D01*
X55832965Y-33650133D01*
X55817198Y-33670312D01*
X55802354Y-33696820D01*
X55787082Y-33708859D01*
X55777379Y-33721279D01*
X55730188Y-33753711D01*
X55723651Y-33758865D01*
X55333836Y-33957486D01*
X55325832Y-33959743D01*
X55271848Y-33978860D01*
X55256098Y-33979410D01*
X55237381Y-33984689D01*
X55207210Y-33981117D01*
X55181617Y-33982012D01*
X55162622Y-33975840D01*
X55137858Y-33972909D01*
X55116099Y-33960723D01*
X55097102Y-33954551D01*
X55076919Y-33938782D01*
X55050418Y-33923941D01*
X55038380Y-33908671D01*
X55025961Y-33898968D01*
X54993527Y-33851776D01*
X54988373Y-33845238D01*
X54780307Y-33436885D01*
X54757592Y-33392305D01*
X54757591Y-33392302D01*
X54755703Y-33388597D01*
X54753450Y-33380609D01*
X54734328Y-33326610D01*
X54733777Y-33310851D01*
X54728501Y-33292142D01*
X54732070Y-33261983D01*
X54731176Y-33236379D01*
X54737349Y-33217378D01*
X54740280Y-33192619D01*
X54752462Y-33170864D01*
X54758636Y-33151866D01*
X54774407Y-33131679D01*
X54789248Y-33105180D01*
X54804514Y-33093144D01*
X54814222Y-33080720D01*
X54861430Y-33048275D01*
X54867951Y-33043135D01*
X54871659Y-33041245D01*
X54871663Y-33041243D01*
X55254057Y-32846403D01*
X55254062Y-32846401D01*
X55257766Y-32844514D01*
X55265750Y-32842262D01*
X55319753Y-32823139D01*
X55335507Y-32822588D01*
X55354221Y-32817311D01*
X55384384Y-32820881D01*
G37*
G36*
X84285501Y-28745523D02*
G01*
X84293810Y-28745197D01*
X84556298Y-28786771D01*
X84721810Y-28812985D01*
X84721814Y-28812986D01*
X84725923Y-28813637D01*
X84733713Y-28816511D01*
X84788634Y-28832780D01*
X84801701Y-28841593D01*
X84819947Y-28848325D01*
X84842256Y-28868947D01*
X84863485Y-28883266D01*
X84875222Y-28899421D01*
X84893539Y-28916353D01*
X84903982Y-28939005D01*
X84915718Y-28955159D01*
X84922776Y-28979773D01*
X84935496Y-29007365D01*
X84936259Y-29026795D01*
X84940604Y-29041946D01*
X84939103Y-29099181D01*
X84939431Y-29107505D01*
X84859258Y-29613695D01*
X84856383Y-29621487D01*
X84840115Y-29676406D01*
X84831303Y-29689470D01*
X84824571Y-29707719D01*
X84803944Y-29730032D01*
X84789629Y-29751257D01*
X84773476Y-29762992D01*
X84756543Y-29781311D01*
X84733887Y-29791755D01*
X84717736Y-29803490D01*
X84693124Y-29810547D01*
X84665531Y-29823268D01*
X84646099Y-29824031D01*
X84630949Y-29828376D01*
X84573713Y-29826875D01*
X84565390Y-29827203D01*
X84133277Y-29758763D01*
X84125476Y-29755885D01*
X84070565Y-29739619D01*
X84057499Y-29730806D01*
X84039253Y-29724075D01*
X84016942Y-29703451D01*
X83995714Y-29689133D01*
X83983976Y-29672977D01*
X83965661Y-29656047D01*
X83955218Y-29633395D01*
X83943481Y-29617240D01*
X83936421Y-29592622D01*
X83923704Y-29565035D01*
X83922940Y-29545607D01*
X83918595Y-29530453D01*
X83920095Y-29473203D01*
X83919769Y-29464895D01*
X83950072Y-29273566D01*
X83999290Y-28962814D01*
X83999292Y-28962805D01*
X83999942Y-28958705D01*
X84002810Y-28950929D01*
X84019084Y-28895993D01*
X84027898Y-28882924D01*
X84034629Y-28864681D01*
X84055248Y-28842374D01*
X84069570Y-28821142D01*
X84085728Y-28809402D01*
X84102657Y-28791089D01*
X84125305Y-28780647D01*
X84141463Y-28768909D01*
X84166083Y-28761849D01*
X84193669Y-28749132D01*
X84213095Y-28748368D01*
X84228250Y-28744023D01*
X84285501Y-28745523D01*
G37*
G36*
X68213431Y-28744560D02*
G01*
X68232860Y-28745324D01*
X68260447Y-28758042D01*
X68285065Y-28765101D01*
X68301220Y-28776838D01*
X68323872Y-28787281D01*
X68340802Y-28805596D01*
X68356958Y-28817334D01*
X68371276Y-28838562D01*
X68391900Y-28860873D01*
X68398631Y-28879119D01*
X68407444Y-28892185D01*
X68423712Y-28947104D01*
X68426587Y-28954897D01*
X68506760Y-29461087D01*
X68506433Y-29469397D01*
X68507933Y-29526644D01*
X68503588Y-29541794D01*
X68502825Y-29561227D01*
X68490104Y-29588820D01*
X68483047Y-29613432D01*
X68471312Y-29629583D01*
X68460868Y-29652239D01*
X68442549Y-29669172D01*
X68430814Y-29685325D01*
X68409589Y-29699640D01*
X68387276Y-29720267D01*
X68369026Y-29726999D01*
X68355963Y-29735811D01*
X68301068Y-29752071D01*
X68293252Y-29754955D01*
X67861139Y-29823395D01*
X67852826Y-29823068D01*
X67795580Y-29824568D01*
X67780429Y-29820223D01*
X67760998Y-29819460D01*
X67733405Y-29806739D01*
X67708792Y-29799682D01*
X67692638Y-29787946D01*
X67669986Y-29777503D01*
X67653054Y-29759186D01*
X67636899Y-29747449D01*
X67622580Y-29726220D01*
X67601958Y-29703911D01*
X67595227Y-29685665D01*
X67586413Y-29672598D01*
X67570142Y-29617669D01*
X67567271Y-29609887D01*
X67566620Y-29605782D01*
X67566619Y-29605776D01*
X67487749Y-29107808D01*
X67487748Y-29107807D01*
X67487098Y-29103697D01*
X67487423Y-29095400D01*
X67485924Y-29038139D01*
X67490269Y-29022983D01*
X67491033Y-29003557D01*
X67503750Y-28975970D01*
X67510810Y-28951351D01*
X67522548Y-28935193D01*
X67532990Y-28912545D01*
X67551303Y-28895616D01*
X67563043Y-28879458D01*
X67584275Y-28865136D01*
X67606582Y-28844517D01*
X67624825Y-28837786D01*
X67637894Y-28828972D01*
X67692807Y-28812706D01*
X67700606Y-28809829D01*
X68132719Y-28741389D01*
X68141015Y-28741715D01*
X68198277Y-28740215D01*
X68213431Y-28744560D01*
G37*
G36*
X82729891Y-28499139D02*
G01*
X82738200Y-28498813D01*
X83000688Y-28540387D01*
X83166200Y-28566601D01*
X83166204Y-28566602D01*
X83170313Y-28567253D01*
X83178103Y-28570127D01*
X83233024Y-28586396D01*
X83246091Y-28595209D01*
X83264337Y-28601941D01*
X83286646Y-28622563D01*
X83307875Y-28636882D01*
X83319612Y-28653037D01*
X83337929Y-28669969D01*
X83348372Y-28692621D01*
X83360108Y-28708775D01*
X83367166Y-28733389D01*
X83379886Y-28760981D01*
X83380649Y-28780411D01*
X83384994Y-28795562D01*
X83383493Y-28852797D01*
X83383821Y-28861121D01*
X83303648Y-29367311D01*
X83300773Y-29375103D01*
X83284505Y-29430022D01*
X83275693Y-29443086D01*
X83268961Y-29461335D01*
X83248334Y-29483648D01*
X83234019Y-29504873D01*
X83217866Y-29516608D01*
X83200933Y-29534927D01*
X83178277Y-29545371D01*
X83162126Y-29557106D01*
X83137514Y-29564163D01*
X83109921Y-29576884D01*
X83090489Y-29577647D01*
X83075339Y-29581992D01*
X83018103Y-29580491D01*
X83009780Y-29580819D01*
X82577667Y-29512379D01*
X82569866Y-29509501D01*
X82514955Y-29493235D01*
X82501889Y-29484422D01*
X82483643Y-29477691D01*
X82461332Y-29457067D01*
X82440104Y-29442749D01*
X82428366Y-29426593D01*
X82410051Y-29409663D01*
X82399608Y-29387011D01*
X82387871Y-29370856D01*
X82380811Y-29346238D01*
X82368094Y-29318651D01*
X82367330Y-29299223D01*
X82362985Y-29284069D01*
X82364485Y-29226819D01*
X82364159Y-29218511D01*
X82397601Y-29007365D01*
X82443680Y-28716430D01*
X82443682Y-28716421D01*
X82444332Y-28712321D01*
X82447200Y-28704545D01*
X82463474Y-28649609D01*
X82472288Y-28636540D01*
X82479019Y-28618297D01*
X82499638Y-28595990D01*
X82513960Y-28574758D01*
X82530118Y-28563018D01*
X82547047Y-28544705D01*
X82569695Y-28534263D01*
X82585853Y-28522525D01*
X82610473Y-28515465D01*
X82638059Y-28502748D01*
X82657485Y-28501984D01*
X82672640Y-28497639D01*
X82729891Y-28499139D01*
G37*
G36*
X69769041Y-28498176D02*
G01*
X69788470Y-28498940D01*
X69816057Y-28511658D01*
X69840675Y-28518717D01*
X69856830Y-28530454D01*
X69879482Y-28540897D01*
X69896412Y-28559212D01*
X69912568Y-28570950D01*
X69926886Y-28592178D01*
X69947510Y-28614489D01*
X69954241Y-28632735D01*
X69963054Y-28645801D01*
X69979322Y-28700720D01*
X69982197Y-28708513D01*
X70062370Y-29214703D01*
X70062043Y-29223013D01*
X70063543Y-29280260D01*
X70059198Y-29295410D01*
X70058435Y-29314843D01*
X70045714Y-29342436D01*
X70038657Y-29367048D01*
X70026922Y-29383199D01*
X70016478Y-29405855D01*
X69998159Y-29422788D01*
X69986424Y-29438941D01*
X69965199Y-29453256D01*
X69942886Y-29473883D01*
X69924636Y-29480615D01*
X69911573Y-29489427D01*
X69856678Y-29505687D01*
X69848862Y-29508571D01*
X69416749Y-29577011D01*
X69408436Y-29576684D01*
X69351190Y-29578184D01*
X69336039Y-29573839D01*
X69316608Y-29573076D01*
X69289015Y-29560355D01*
X69264402Y-29553298D01*
X69248248Y-29541562D01*
X69225596Y-29531119D01*
X69208664Y-29512802D01*
X69192509Y-29501065D01*
X69178190Y-29479836D01*
X69157568Y-29457527D01*
X69150837Y-29439281D01*
X69142023Y-29426214D01*
X69125752Y-29371285D01*
X69122881Y-29363503D01*
X69122230Y-29359398D01*
X69122229Y-29359392D01*
X69043359Y-28861424D01*
X69043358Y-28861423D01*
X69042708Y-28857313D01*
X69043033Y-28849016D01*
X69041534Y-28791755D01*
X69045879Y-28776599D01*
X69046643Y-28757173D01*
X69059360Y-28729586D01*
X69066420Y-28704967D01*
X69078158Y-28688809D01*
X69088600Y-28666161D01*
X69106913Y-28649232D01*
X69118653Y-28633074D01*
X69139885Y-28618752D01*
X69162192Y-28598133D01*
X69180435Y-28591402D01*
X69193504Y-28582588D01*
X69248417Y-28566322D01*
X69256216Y-28563445D01*
X69688329Y-28495005D01*
X69696625Y-28495331D01*
X69753887Y-28493831D01*
X69769041Y-28498176D01*
G37*
M02*
