M48
; DRILL file KiCad 10.0.1 date 2026-04-26T23:12:04
; FORMAT={-:-/ absolute / metric / decimal}
; #@! TF.CreationDate,2026-04-26T23:12:04-06:00
; #@! TF.GenerationSoftware,Kicad,Pcbnew,10.0.1
; #@! TF.FileFunction,Plated,1,2,PTH
FMAT,2
METRIC
; #@! TA.AperFunction,Plated,PTH,ViaDrill
T1C0.220
; #@! TA.AperFunction,Plated,PTH,ViaDrill
T2C0.400
%
G90
G05
T1
X28.79Y-81.613
X28.834Y-70.779
X29.442Y-85.729
X29.486Y-66.663
X30.189Y-81.096
X32.771Y-95.976
X32.842Y-56.429
X34.292Y-57.53
X34.662Y-99.688
X34.734Y-52.716
X41.038Y-108.435
X41.046Y-43.993
X41.843Y-107.191
X43.18Y-83.82
X43.18Y-93.98
X43.18Y-99.06
X43.985Y-111.382
X43.993Y-41.046
X47.752Y-89.408
X48.26Y-83.82
X48.26Y-93.98
X48.26Y-99.06
X48.26Y-104.14
X52.706Y-117.735
X52.723Y-34.711
X53.34Y-83.82
X53.34Y-93.98
X53.34Y-99.06
X53.34Y-104.14
X54.864Y-88.9
X56.418Y-119.626
X56.436Y-32.819
X57.342Y-33.944
X58.42Y-83.82
X58.42Y-93.98
X58.42Y-99.06
X58.42Y-104.14
X58.42Y-109.22
X58.928Y-88.9
X63.5Y-83.82
X63.5Y-93.98
X63.5Y-99.06
X63.5Y-104.14
X64.262Y-88.9
X66.622Y-121.47
X66.697Y-122.952
X66.701Y-29.495
X70.812Y-123.604
X70.817Y-28.843
X76.2Y-84.328
X76.2Y-85.09
X76.2Y-85.852
X76.2Y-86.614
X76.2Y-87.376
X76.2Y-88.138
X76.2Y-88.9
X76.2Y-89.662
X76.2Y-97.282
X76.2Y-98.552
X76.2Y-108.204
X81.59Y-28.835
X81.607Y-123.573
X85.706Y-29.487
X85.723Y-122.921
X85.778Y-30.93
X95.058Y-118.456
X95.959Y-119.589
X95.985Y-32.824
X99.672Y-117.698
X99.697Y-34.716
X108.409Y-111.352
X108.431Y-41.061
X110.562Y-45.199
X111.355Y-108.405
X111.377Y-44.007
X117.667Y-52.728
X117.684Y-99.667
X118.118Y-94.88
X119.566Y-56.438
X119.589Y-95.959
X122.214Y-71.335
X122.922Y-85.733
X122.932Y-66.707
X123.574Y-81.617
X123.583Y-70.823
T2
X83.82Y-78.873
X86.349Y-78.891
M30
