%TF.GenerationSoftware,KiCad,Pcbnew,10.0.1*%
%TF.CreationDate,2026-06-21T01:48:39-06:00*%
%TF.ProjectId,All_Lit_Up,416c6c5f-4c69-4745-9f55-702e6b696361,1.1*%
%TF.SameCoordinates,Original*%
%TF.FileFunction,Paste,Top*%
%TF.FilePolarity,Positive*%
%FSLAX46Y46*%
G04 Gerber Fmt 4.6, Leading zero omitted, Abs format (unit mm)*
G04 Created by KiCad (PCBNEW 10.0.1) date 2026-06-21 01:48:39*
%MOMM*%
%LPD*%
G01*
G04 APERTURE LIST*
G04 Aperture macros list*
%AMRoundRect*
0 Rectangle with rounded corners*
0 $1 Rounding radius*
0 $2 $3 $4 $5 $6 $7 $8 $9 X,Y pos of 4 corners*
0 Add a 4 corners polygon primitive as box body*
4,1,4,$2,$3,$4,$5,$6,$7,$8,$9,$2,$3,0*
0 Add four circle primitives for the rounded corners*
1,1,$1+$1,$2,$3*
1,1,$1+$1,$4,$5*
1,1,$1+$1,$6,$7*
1,1,$1+$1,$8,$9*
0 Add four rect primitives between the rounded corners*
20,1,$1+$1,$2,$3,$4,$5,0*
20,1,$1+$1,$4,$5,$6,$7,0*
20,1,$1+$1,$6,$7,$8,$9,0*
20,1,$1+$1,$8,$9,$2,$3,0*%
G04 Aperture macros list end*
%ADD10RoundRect,0.218750X-0.175970X-0.287315X0.256143X-0.218875X0.175970X0.287315X-0.256143X0.218875X0*%
%ADD11RoundRect,0.218750X0.256143X0.218875X-0.175970X0.287315X-0.256143X-0.218875X0.175970X-0.287315X0*%
%ADD12RoundRect,0.218750X0.078573X0.327631X-0.311243X0.129010X-0.078573X-0.327631X0.311243X-0.129010X0*%
%ADD13RoundRect,0.218750X-0.311243X-0.129010X0.078573X-0.327631X0.311243X0.129010X-0.078573X0.327631X0*%
%ADD14RoundRect,0.218750X0.026517X-0.335876X0.335876X-0.026517X-0.026517X0.335876X-0.335876X0.026517X0*%
%ADD15RoundRect,0.218750X0.335876X0.026517X0.026517X0.335876X-0.335876X-0.026517X-0.026517X-0.335876X0*%
%ADD16RoundRect,0.218750X-0.129010X0.311243X-0.327631X-0.078573X0.129010X-0.311243X0.327631X0.078573X0*%
%ADD17RoundRect,0.218750X-0.327631X0.078573X-0.129010X-0.311243X0.327631X-0.078573X0.129010X0.311243X0*%
%ADD18RoundRect,0.218750X0.218875X-0.256143X0.287315X0.175970X-0.218875X0.256143X-0.287315X-0.175970X0*%
%ADD19RoundRect,0.218750X0.287315X-0.175970X0.218875X0.256143X-0.287315X0.175970X-0.218875X-0.256143X0*%
%ADD20RoundRect,0.218750X-0.287315X0.175970X-0.218875X-0.256143X0.287315X-0.175970X0.218875X0.256143X0*%
%ADD21RoundRect,0.218750X-0.218875X0.256143X-0.287315X-0.175970X0.218875X-0.256143X0.287315X0.175970X0*%
%ADD22RoundRect,0.218750X0.327631X-0.078573X0.129010X0.311243X-0.327631X0.078573X-0.129010X-0.311243X0*%
%ADD23RoundRect,0.218750X0.129010X-0.311243X0.327631X0.078573X-0.129010X0.311243X-0.327631X-0.078573X0*%
%ADD24RoundRect,0.218750X-0.335876X-0.026517X-0.026517X-0.335876X0.335876X0.026517X0.026517X0.335876X0*%
%ADD25RoundRect,0.218750X-0.026517X0.335876X-0.335876X0.026517X0.026517X-0.335876X0.335876X-0.026517X0*%
%ADD26RoundRect,0.218750X0.311243X0.129010X-0.078573X0.327631X-0.311243X-0.129010X0.078573X-0.327631X0*%
%ADD27RoundRect,0.218750X-0.078573X-0.327631X0.311243X-0.129010X0.078573X0.327631X-0.311243X0.129010X0*%
%ADD28RoundRect,0.218750X-0.256143X-0.218875X0.175970X-0.287315X0.256143X0.218875X-0.175970X0.287315X0*%
%ADD29RoundRect,0.218750X0.175970X0.287315X-0.256143X0.218875X-0.175970X-0.287315X0.256143X-0.218875X0*%
G04 APERTURE END LIST*
D10*
%TO.C,D1*%
X69552539Y-29036008D03*
X67996929Y-29282392D03*
%TD*%
D11*
%TO.C,D2*%
X82873990Y-29039816D03*
X84429600Y-29286200D03*
%TD*%
D12*
%TO.C,D3*%
X53892463Y-34116036D03*
X55295801Y-33401000D03*
%TD*%
D13*
%TO.C,D4*%
X98542469Y-34139518D03*
X97139131Y-33424482D03*
%TD*%
D14*
%TO.C,D5*%
X43076447Y-41962753D03*
X41962753Y-43076447D03*
%TD*%
D15*
%TO.C,D6*%
X109321600Y-41960800D03*
X110435294Y-43074494D03*
%TD*%
D16*
%TO.C,D7*%
X33426400Y-55295801D03*
X34141436Y-53892463D03*
%TD*%
D17*
%TO.C,D8*%
X118963955Y-55286005D03*
X118248919Y-53882667D03*
%TD*%
D18*
%TO.C,D9*%
X29278584Y-67989590D03*
X29032200Y-69545200D03*
%TD*%
D19*
%TO.C,D10*%
X123122632Y-68002901D03*
X123369016Y-69558511D03*
%TD*%
D20*
%TO.C,D11*%
X29282392Y-84445405D03*
X29036008Y-82889795D03*
%TD*%
D21*
%TO.C,D12*%
X123144006Y-84438728D03*
X123390390Y-82883118D03*
%TD*%
D22*
%TO.C,D13*%
X33399082Y-97113731D03*
X34114118Y-98517069D03*
%TD*%
D23*
%TO.C,D14*%
X119000918Y-97113731D03*
X118285882Y-98517069D03*
%TD*%
D24*
%TO.C,D15*%
X43097408Y-110437247D03*
X41983714Y-109323553D03*
%TD*%
D25*
%TO.C,D16*%
X109323553Y-110437247D03*
X110437247Y-109323553D03*
%TD*%
D26*
%TO.C,D17*%
X53882931Y-118285882D03*
X55286269Y-119000918D03*
%TD*%
D27*
%TO.C,D18*%
X98517069Y-118285882D03*
X97113731Y-119000918D03*
%TD*%
D28*
%TO.C,D19*%
X69535605Y-123363992D03*
X67979995Y-123117608D03*
%TD*%
D29*
%TO.C,D20*%
X82889795Y-123363992D03*
X84445405Y-123117608D03*
%TD*%
M02*
