%TF.GenerationSoftware,KiCad,Pcbnew,10.0.1*%
%TF.CreationDate,2026-04-26T19:23:27-06:00*%
%TF.ProjectId,All_Lit_Up,416c6c5f-4c69-4745-9f55-702e6b696361,1.1*%
%TF.SameCoordinates,Original*%
%TF.FileFunction,Copper,L1,Top*%
%TF.FilePolarity,Positive*%
%FSLAX46Y46*%
G04 Gerber Fmt 4.6, Leading zero omitted, Abs format (unit mm)*
G04 Created by KiCad (PCBNEW 10.0.1) date 2026-04-26 19:23:27*
%MOMM*%
%LPD*%
G01*
G04 APERTURE LIST*
G04 Aperture macros list*
%AMRoundRect*
0 Rectangle with rounded corners*
0 $1 Rounding radius*
0 $2 $3 $4 $5 $6 $7 $8 $9 X,Y pos of 4 corners*
0 Add a 4 corners polygon primitive as box body*
4,1,4,$2,$3,$4,$5,$6,$7,$8,$9,$2,$3,0*
0 Add four circle primitives for the rounded corners*
1,1,$1+$1,$2,$3*
1,1,$1+$1,$4,$5*
1,1,$1+$1,$6,$7*
1,1,$1+$1,$8,$9*
0 Add four rect primitives between the rounded corners*
20,1,$1+$1,$2,$3,$4,$5,0*
20,1,$1+$1,$4,$5,$6,$7,0*
20,1,$1+$1,$6,$7,$8,$9,0*
20,1,$1+$1,$8,$9,$2,$3,0*%
%AMFreePoly0*
4,1,130,0.383787,43.152861,0.683847,43.089281,0.974057,42.989996,1.250182,42.856454,1.508198,42.690603,1.744341,42.494860,1.955169,42.272081,2.137606,42.025513,2.288993,41.758753,2.407121,41.475690,2.490269,41.180453,2.537223,40.877345,2.547300,40.570788,2.540000,40.488023,2.540000,-40.640000,2.536752,-40.640000,2.528911,-40.877085,2.481895,-41.180183,2.398687,-41.475404,2.280501,-41.758443,
2.129060,-42.025172,1.946573,-42.271703,1.735700,-42.494439,1.499517,-42.690134,1.241468,-42.855933,0.965315,-42.989419,0.675085,-43.088644,0.375012,-43.152164,0.069470,-43.179050,-0.237085,-43.168911,-1.536654,-43.027283,-2.831363,-42.846541,-4.120034,-42.626850,-5.401496,-42.368409,-6.674585,-42.071454,-7.938143,-41.736254,-9.191021,-41.363114,-10.432081,-40.952374,-11.660194,-40.504406,-12.874244,-40.019617,
-14.073128,-39.498450,-15.255755,-38.941376,-16.421050,-38.348903,-17.567955,-37.721570,-18.695426,-37.059946,-19.802438,-36.364633,-20.887986,-35.636263,-21.951083,-34.875498,-22.990762,-34.083030,-24.006077,-33.259579,-24.996107,-32.405894,-25.959951,-31.522750,-26.896733,-30.610951,-27.805601,-29.671326,-28.685729,-28.704728,-29.536317,-27.712036,-30.356592,-26.694153,-31.145808,-25.652003,-31.903248,-24.586535,-32.628223,-23.498717,
-33.320074,-22.389537,-33.978173,-21.260005,-34.601920,-20.111146,-35.190749,-18.944005,-35.744125,-17.759644,-36.261545,-16.559138,-36.742538,-15.343579,-37.186667,-14.114072,-37.593529,-12.871735,-37.962753,-11.617698,-38.294004,-10.353099,-38.586980,-9.079088,-38.841416,-7.796825,-39.057080,-6.507474,-39.233776,-5.212207,-39.371344,-3.912202,-39.469658,-2.608641,-39.528629,-1.302708,-39.548203,0.004408,-39.528363,1.311521,
-39.469126,2.617442,-39.370547,3.920983,-39.232716,5.220960,-39.055756,6.516190,-38.839830,7.805498,-38.585133,9.087709,-38.291898,10.361660,-37.960390,11.626192,-37.590911,12.880154,-37.183797,14.122409,-36.739417,15.351825,-36.258177,16.567286,-35.740513,17.767686,-35.186896,18.951935,-34.597830,20.118956,-33.973849,21.267688,-33.315521,22.397087,-32.623444,23.506126,-31.898248,24.593797,-31.140591,25.659111,
-30.351163,26.701100,-29.530681,27.718816,-28.679891,28.711335,-27.799567,29.677754,-26.890507,30.617195,-25.953540,31.528803,-24.989517,32.411751,-23.999314,33.265235,-22.983831,34.088479,-21.943991,34.880736,-20.880740,35.641285,-19.795043,36.369434,-18.687889,37.064522,-17.560284,37.725916,-16.413251,38.353017,-15.247836,38.945252,-14.065095,39.502085,-12.866106,40.023009,-11.651957,40.507551,-10.423753,40.955269,
-9.182610,41.365757,-7.929656,41.738642,-6.666030,42.073585,-5.392880,42.370282,-4.111366,42.628462,-2.822650,42.847891,-1.527905,43.028369,-0.228307,43.169733,0.078250,43.179810,0.383787,43.152861,0.383787,43.152861,$1*%
G04 Aperture macros list end*
%TA.AperFunction,SMDPad,CuDef*%
%ADD10RoundRect,0.218750X0.287315X-0.175970X0.218875X0.256143X-0.287315X0.175970X-0.218875X-0.256143X0*%
%TD*%
%TA.AperFunction,SMDPad,CuDef*%
%ADD11RoundRect,0.218750X0.335876X0.026517X0.026517X0.335876X-0.335876X-0.026517X-0.026517X-0.335876X0*%
%TD*%
%TA.AperFunction,SMDPad,CuDef*%
%ADD12RoundRect,0.218750X-0.218875X0.256143X-0.287315X-0.175970X0.218875X-0.256143X0.287315X0.175970X0*%
%TD*%
%TA.AperFunction,SMDPad,CuDef*%
%ADD13RoundRect,0.218750X-0.175970X-0.287315X0.256143X-0.218875X0.175970X0.287315X-0.256143X0.218875X0*%
%TD*%
%TA.AperFunction,SMDPad,CuDef*%
%ADD14RoundRect,0.218750X0.026517X-0.335876X0.335876X-0.026517X-0.026517X0.335876X-0.335876X0.026517X0*%
%TD*%
%TA.AperFunction,SMDPad,CuDef*%
%ADD15RoundRect,0.218750X0.218875X-0.256143X0.287315X0.175970X-0.218875X0.256143X-0.287315X-0.175970X0*%
%TD*%
%TA.AperFunction,SMDPad,CuDef*%
%ADD16RoundRect,0.218750X-0.287315X0.175970X-0.218875X-0.256143X0.287315X-0.175970X0.218875X0.256143X0*%
%TD*%
%TA.AperFunction,SMDPad,CuDef*%
%ADD17RoundRect,0.218750X-0.335876X-0.026517X-0.026517X-0.335876X0.335876X0.026517X0.026517X0.335876X0*%
%TD*%
%TA.AperFunction,SMDPad,CuDef*%
%ADD18RoundRect,0.218750X0.311243X0.129010X-0.078573X0.327631X-0.311243X-0.129010X0.078573X-0.327631X0*%
%TD*%
%TA.AperFunction,SMDPad,CuDef*%
%ADD19RoundRect,0.218750X-0.256143X-0.218875X0.175970X-0.287315X0.256143X0.218875X-0.175970X0.287315X0*%
%TD*%
%TA.AperFunction,SMDPad,CuDef*%
%ADD20RoundRect,0.218750X0.175970X0.287315X-0.256143X0.218875X-0.175970X-0.287315X0.256143X-0.218875X0*%
%TD*%
%TA.AperFunction,SMDPad,CuDef*%
%ADD21RoundRect,0.218750X-0.078573X-0.327631X0.311243X-0.129010X0.078573X0.327631X-0.311243X0.129010X0*%
%TD*%
%TA.AperFunction,SMDPad,CuDef*%
%ADD22RoundRect,0.218750X-0.026517X0.335876X-0.335876X0.026517X0.026517X-0.335876X0.335876X-0.026517X0*%
%TD*%
%TA.AperFunction,SMDPad,CuDef*%
%ADD23RoundRect,0.218750X0.129010X-0.311243X0.327631X0.078573X-0.129010X0.311243X-0.327631X-0.078573X0*%
%TD*%
%TA.AperFunction,SMDPad,CuDef*%
%ADD24RoundRect,0.218750X-0.311243X-0.129010X0.078573X-0.327631X0.311243X0.129010X-0.078573X0.327631X0*%
%TD*%
%TA.AperFunction,SMDPad,CuDef*%
%ADD25RoundRect,0.218750X0.256143X0.218875X-0.175970X0.287315X-0.256143X-0.218875X0.175970X-0.287315X0*%
%TD*%
%TA.AperFunction,SMDPad,CuDef*%
%ADD26RoundRect,0.218750X0.327631X-0.078573X0.129010X0.311243X-0.327631X0.078573X-0.129010X-0.311243X0*%
%TD*%
%TA.AperFunction,SMDPad,CuDef*%
%ADD27RoundRect,0.218750X0.078573X0.327631X-0.311243X0.129010X-0.078573X-0.327631X0.311243X-0.129010X0*%
%TD*%
%TA.AperFunction,SMDPad,CuDef*%
%ADD28RoundRect,0.218750X-0.327631X0.078573X-0.129010X-0.311243X0.327631X-0.078573X0.129010X0.311243X0*%
%TD*%
%TA.AperFunction,SMDPad,CuDef*%
%ADD29RoundRect,0.218750X-0.129010X0.311243X-0.327631X-0.078573X0.129010X-0.311243X0.327631X0.078573X0*%
%TD*%
%TA.AperFunction,SMDPad,CuDef*%
%ADD30FreePoly0,0.000000*%
%TD*%
%TA.AperFunction,SMDPad,CuDef*%
%ADD31FreePoly0,180.000000*%
%TD*%
%TA.AperFunction,ViaPad*%
%ADD32C,0.800000*%
%TD*%
%TA.AperFunction,Conductor*%
%ADD33C,0.381000*%
%TD*%
%TA.AperFunction,Conductor*%
%ADD34C,0.635000*%
%TD*%
%TA.AperFunction,Conductor*%
%ADD35C,0.508000*%
%TD*%
G04 APERTURE END LIST*
D10*
%TO.P,D10,1,K_1*%
%TO.N,/LED_SET*%
X123369016Y-69558511D03*
%TO.P,D10,2,A_2*%
%TO.N,Net-(D10-A)*%
X123122632Y-68002901D03*
%TD*%
D11*
%TO.P,D6,1,K_1*%
%TO.N,/LED_SET*%
X110435294Y-43074494D03*
%TO.P,D6,2,A_2*%
%TO.N,Net-(D6-A)*%
X109321600Y-41960800D03*
%TD*%
D12*
%TO.P,D12,1,K_1*%
%TO.N,Net-(D12-K)*%
X123390390Y-82883118D03*
%TO.P,D12,2,A_2*%
%TO.N,/LED_SET*%
X123144006Y-84438728D03*
%TD*%
D13*
%TO.P,D1,1,K_1*%
%TO.N,Net-(D1-K)*%
X67996929Y-29282392D03*
%TO.P,D1,2,A_2*%
%TO.N,/LED_SET*%
X69552539Y-29036008D03*
%TD*%
D14*
%TO.P,D5,1,K_1*%
%TO.N,Net-(D5-K)*%
X41962753Y-43076447D03*
%TO.P,D5,2,A_2*%
%TO.N,/LED_SET*%
X43076447Y-41962753D03*
%TD*%
D15*
%TO.P,D9,1,K_1*%
%TO.N,Net-(D9-K)*%
X29032200Y-69545200D03*
%TO.P,D9,2,A_2*%
%TO.N,/LED_SET*%
X29278584Y-67989590D03*
%TD*%
D16*
%TO.P,D11,1,K_1*%
%TO.N,/LED_SET*%
X29036008Y-82889795D03*
%TO.P,D11,2,A_2*%
%TO.N,Net-(D11-A)*%
X29282392Y-84445405D03*
%TD*%
D17*
%TO.P,D15,1,K_1*%
%TO.N,/LED_SET*%
X41983714Y-109323553D03*
%TO.P,D15,2,A_2*%
%TO.N,Net-(D15-A)*%
X43097408Y-110437247D03*
%TD*%
D18*
%TO.P,D17,1,K_1*%
%TO.N,Net-(D17-K)*%
X55286269Y-119000918D03*
%TO.P,D17,2,A_2*%
%TO.N,/LED_SET*%
X53882931Y-118285882D03*
%TD*%
D19*
%TO.P,D19,1,K_1*%
%TO.N,/LED_SET*%
X67979995Y-123117608D03*
%TO.P,D19,2,A_2*%
%TO.N,Net-(D19-A)*%
X69535605Y-123363992D03*
%TD*%
D20*
%TO.P,D20,1,K_1*%
%TO.N,Net-(D20-K)*%
X84445405Y-123117608D03*
%TO.P,D20,2,A_2*%
%TO.N,/LED_SET*%
X82889795Y-123363992D03*
%TD*%
D21*
%TO.P,D18,1,K_1*%
%TO.N,/LED_SET*%
X97113731Y-119000918D03*
%TO.P,D18,2,A_2*%
%TO.N,Net-(D18-A)*%
X98517069Y-118285882D03*
%TD*%
D22*
%TO.P,D16,1,K_1*%
%TO.N,Net-(D16-K)*%
X110437247Y-109323553D03*
%TO.P,D16,2,A_2*%
%TO.N,/LED_SET*%
X109323553Y-110437247D03*
%TD*%
D23*
%TO.P,D14,1,K_1*%
%TO.N,/LED_SET*%
X118285882Y-98517069D03*
%TO.P,D14,2,A_2*%
%TO.N,Net-(D14-A)*%
X119000918Y-97113731D03*
%TD*%
D24*
%TO.P,D4,1,K_1*%
%TO.N,Net-(D4-K)*%
X97139131Y-33424482D03*
%TO.P,D4,2,A_2*%
%TO.N,/LED_SET*%
X98542469Y-34139518D03*
%TD*%
D25*
%TO.P,D2,1,K_1*%
%TO.N,/LED_SET*%
X84429600Y-29286200D03*
%TO.P,D2,2,A_2*%
%TO.N,Net-(D2-A)*%
X82873990Y-29039816D03*
%TD*%
D26*
%TO.P,D13,1,K_1*%
%TO.N,Net-(D13-K)*%
X34114118Y-98517069D03*
%TO.P,D13,2,A_2*%
%TO.N,/LED_SET*%
X33399082Y-97113731D03*
%TD*%
D27*
%TO.P,D3,1,K_1*%
%TO.N,/LED_SET*%
X55295801Y-33401000D03*
%TO.P,D3,2,A_2*%
%TO.N,Net-(D3-A)*%
X53892463Y-34116036D03*
%TD*%
D28*
%TO.P,D8,1,K_1*%
%TO.N,Net-(D8-K)*%
X118248919Y-53882667D03*
%TO.P,D8,2,A_2*%
%TO.N,/LED_SET*%
X118963955Y-55286005D03*
%TD*%
D29*
%TO.P,D7,1,K_1*%
%TO.N,/LED_SET*%
X34141436Y-53892463D03*
%TO.P,D7,2,A_2*%
%TO.N,Net-(D7-A)*%
X33426400Y-55295801D03*
%TD*%
D30*
%TO.P,JP1,1,A_1*%
%TO.N,V_{BAT}*%
X72390000Y-76200000D03*
D31*
%TO.P,JP1,2,B_2*%
%TO.N,/PWR_EN*%
X80010000Y-76200000D03*
%TD*%
D32*
%TO.N,V_{BAT}*%
X58420000Y-87630000D03*
X58420000Y-83820000D03*
X49530000Y-87630000D03*
X49530000Y-83820000D03*
%TO.N,/LED_SET*%
X108408917Y-111351886D03*
X41038448Y-108435432D03*
X43992800Y-41046400D03*
X56435694Y-32819106D03*
X119559010Y-56441054D03*
X32770614Y-95975707D03*
X81607396Y-123572994D03*
X34733641Y-52716193D03*
X117697549Y-99671739D03*
X52705576Y-117734605D03*
X28789969Y-81613260D03*
X123583438Y-70822980D03*
X29485960Y-66663092D03*
X99697258Y-34716176D03*
X95959062Y-119589252D03*
X111377292Y-44007441D03*
X66696561Y-122952300D03*
X122922465Y-85732661D03*
X85705572Y-29486882D03*
X70816870Y-28842839D03*
%TO.N,Net-(D11-A)*%
X29441806Y-85728797D03*
%TO.N,Net-(D7-A)*%
X32841936Y-56428873D03*
%TO.N,Net-(D5-K)*%
X41046400Y-43992800D03*
%TO.N,Net-(D1-K)*%
X66701331Y-29494677D03*
%TO.N,Net-(D19-A)*%
X70812097Y-123604136D03*
%TO.N,Net-(D20-K)*%
X85722932Y-122921156D03*
%TO.N,Net-(D2-A)*%
X81590033Y-28835045D03*
%TO.N,Net-(D9-K)*%
X28834122Y-70778630D03*
%TO.N,V_{BAT}*%
X68580000Y-83820000D03*
X68580000Y-87630000D03*
%TO.N,/PWR_EN*%
X80137000Y-76708000D03*
%TO.N,VCC*%
X76200000Y-89154000D03*
X36123357Y-53117034D03*
X122213975Y-71334897D03*
X76200000Y-90424000D03*
X76200000Y-92964000D03*
X76137000Y-73343000D03*
X30189213Y-81095900D03*
X76200000Y-104140000D03*
X57342381Y-33943956D03*
X116278034Y-99272078D03*
X110562272Y-45198601D03*
X76200000Y-94234000D03*
X76200000Y-102870000D03*
X85778021Y-30929850D03*
X76200000Y-106680000D03*
X66621979Y-121470149D03*
X95057619Y-118456044D03*
X41843045Y-107191357D03*
X76200000Y-91694000D03*
%TO.N,Net-(D3-A)*%
X52723013Y-34710812D03*
%TO.N,Net-(D4-K)*%
X95984576Y-32824471D03*
%TO.N,Net-(D6-A)*%
X108430891Y-41061041D03*
%TO.N,Net-(D8-K)*%
X117667303Y-52728373D03*
%TO.N,Net-(D10-A)*%
X122931601Y-66707441D03*
%TO.N,Net-(D12-K)*%
X123574302Y-81617122D03*
%TO.N,Net-(D13-K)*%
X34662319Y-99688387D03*
%TO.N,Net-(D14-A)*%
X119589251Y-95959059D03*
%TO.N,Net-(D15-A)*%
X43984847Y-111381831D03*
%TO.N,Net-(D16-K)*%
X111355315Y-108405486D03*
%TO.N,Net-(D17-K)*%
X56418255Y-119626309D03*
%TO.N,Net-(D18-A)*%
X99671740Y-117697546D03*
%TD*%
%TO.N,/LED_SET*%
D33*
X119559010Y-56441054D02*
X118970675Y-55286380D01*
X32770614Y-95975707D02*
X33358948Y-97130378D01*
X70816870Y-28842839D02*
X69536904Y-29045564D01*
X111377292Y-44007441D02*
X110460939Y-43091086D01*
X95959062Y-119589252D02*
X97113732Y-119000918D01*
X99697258Y-34716176D02*
X98542585Y-34127839D01*
X52705576Y-117734605D02*
X53860247Y-118322939D01*
X56435694Y-32819106D02*
X55281020Y-33407440D01*
X117697549Y-99671739D02*
X118285882Y-98517068D01*
X108408917Y-111351886D02*
X109325269Y-110435534D01*
X41038448Y-108435432D02*
X41954800Y-109351784D01*
X81607396Y-123572994D02*
X82887358Y-123370268D01*
X43992800Y-41046400D02*
X43076447Y-41962753D01*
X28789969Y-81613260D02*
X28992695Y-82893223D01*
X29485960Y-66663092D02*
X29283233Y-67943056D01*
X85705572Y-29486882D02*
X84425607Y-29284153D01*
X34733641Y-52716193D02*
X34145306Y-53870865D01*
X66696561Y-122952300D02*
X67976523Y-123155026D01*
X122922465Y-85732661D02*
X123125194Y-84452696D01*
X123583438Y-70822980D02*
X123380714Y-69543014D01*
%TO.N,Net-(D11-A)*%
X29441806Y-85728797D02*
X29239080Y-84448833D01*
%TO.N,Net-(D7-A)*%
X32841936Y-56428873D02*
X33430271Y-55274201D01*
%TO.N,Net-(D5-K)*%
X41046400Y-43992800D02*
X41962753Y-43076447D01*
%TO.N,Net-(D1-K)*%
X66701331Y-29494677D02*
X67981296Y-29291952D01*
%TO.N,Net-(D19-A)*%
X70812097Y-123604136D02*
X69532133Y-123401409D01*
%TO.N,Net-(D20-K)*%
X85722932Y-122921156D02*
X84442967Y-123123882D01*
%TO.N,Net-(D2-A)*%
X81590033Y-28835045D02*
X82869997Y-29037773D01*
%TO.N,Net-(D9-K)*%
X28834122Y-70778630D02*
X29036849Y-69498666D01*
%TO.N,V_{BAT}*%
D34*
X73634600Y-68656200D02*
X72390000Y-69900800D01*
X72390000Y-69900800D02*
X72390000Y-76200000D01*
X72390000Y-80848198D02*
X74599802Y-83058000D01*
D35*
X73710800Y-68580000D02*
X73634600Y-68656200D01*
D34*
X72390000Y-104724199D02*
X74345801Y-106680000D01*
X72390000Y-76200000D02*
X72390000Y-104724199D01*
X72390000Y-106298999D02*
X74345801Y-108254800D01*
X72390000Y-76200000D02*
X72390000Y-94716598D01*
X72390000Y-94716598D02*
X74701402Y-97028000D01*
X72390000Y-76200000D02*
X72390000Y-106298999D01*
X72390000Y-76200000D02*
X72390000Y-80848198D01*
%TO.N,Net-(D3-A)*%
D33*
X52723013Y-34710812D02*
X53877687Y-34122478D01*
%TO.N,Net-(D4-K)*%
X95984576Y-32824471D02*
X97139248Y-33412808D01*
%TO.N,Net-(D6-A)*%
X108430891Y-41061041D02*
X109347244Y-41977395D01*
%TO.N,Net-(D8-K)*%
X117667303Y-52728373D02*
X118255637Y-53883047D01*
%TO.N,Net-(D10-A)*%
X122931601Y-66707441D02*
X123134326Y-67987406D01*
%TO.N,Net-(D12-K)*%
X123574302Y-81617122D02*
X123371574Y-82897087D01*
%TO.N,Net-(D13-K)*%
X34662319Y-99688387D02*
X34073984Y-98533714D01*
%TO.N,Net-(D14-A)*%
X119589251Y-95959059D02*
X119000915Y-97113731D01*
%TO.N,Net-(D15-A)*%
X43984847Y-111381831D02*
X43068494Y-110465477D01*
%TO.N,Net-(D16-K)*%
X111355315Y-108405486D02*
X110438961Y-109321839D01*
%TO.N,Net-(D17-K)*%
X56418255Y-119626309D02*
X55263583Y-119037973D01*
%TO.N,Net-(D18-A)*%
X99671740Y-117697546D02*
X98517067Y-118285881D01*
%TD*%
%TA.AperFunction,Conductor*%
%TO.N,VCC*%
G36*
X76911762Y-25606200D02*
G01*
X78326223Y-25645886D01*
X78330356Y-25646059D01*
X79743283Y-25725408D01*
X79747400Y-25725697D01*
X81157488Y-25844636D01*
X81161589Y-25845040D01*
X82567830Y-26003486D01*
X82571950Y-26004009D01*
X83973107Y-26201820D01*
X83977225Y-26202460D01*
X85372310Y-26439493D01*
X85376438Y-26440254D01*
X86356407Y-26635182D01*
X86764284Y-26716315D01*
X86768437Y-26717202D01*
X86983129Y-26766203D01*
X88148022Y-27032082D01*
X88152026Y-27033056D01*
X89522256Y-27386511D01*
X89526280Y-27387609D01*
X90886079Y-27779360D01*
X90890050Y-27780565D01*
X91992819Y-28132049D01*
X92238266Y-28210280D01*
X92242293Y-28211626D01*
X92248846Y-28213919D01*
X93577924Y-28678983D01*
X93581873Y-28680428D01*
X94903857Y-29185056D01*
X94907769Y-29186612D01*
X96215113Y-29728132D01*
X96218947Y-29729784D01*
X97510554Y-30307740D01*
X97514375Y-30309514D01*
X98789303Y-30923487D01*
X98793069Y-30925366D01*
X99356752Y-31216572D01*
X100050246Y-31574840D01*
X100053991Y-31576842D01*
X101292449Y-32261312D01*
X101296073Y-32263382D01*
X102036743Y-32700292D01*
X102514880Y-32982338D01*
X102518507Y-32984547D01*
X103288991Y-33468674D01*
X103709617Y-33732971D01*
X103716636Y-33737381D01*
X103720197Y-33739689D01*
X103793010Y-33788342D01*
X104896684Y-34525794D01*
X104900182Y-34528202D01*
X105291216Y-34805655D01*
X106054260Y-35347063D01*
X106057615Y-35349515D01*
X107188270Y-36200422D01*
X107191610Y-36203010D01*
X107568237Y-36503359D01*
X108297921Y-37085262D01*
X108301153Y-37087914D01*
X109028290Y-37701927D01*
X109382293Y-38000856D01*
X109385499Y-38003641D01*
X110440598Y-38946535D01*
X110443724Y-38949409D01*
X111471924Y-39921486D01*
X111474969Y-39924446D01*
X112475553Y-40925030D01*
X112478513Y-40928075D01*
X113450590Y-41956275D01*
X113453464Y-41959401D01*
X114396358Y-43014500D01*
X114399143Y-43017706D01*
X114409230Y-43029651D01*
X115310458Y-44096920D01*
X115312064Y-44098821D01*
X115314743Y-44102086D01*
X115570771Y-44423135D01*
X116196989Y-45208389D01*
X116199585Y-45211739D01*
X117050474Y-46342372D01*
X117052950Y-46345759D01*
X117871797Y-47499817D01*
X117874205Y-47503315D01*
X118660308Y-48679800D01*
X118662618Y-48683363D01*
X119415452Y-49881492D01*
X119417661Y-49885119D01*
X120136599Y-51103894D01*
X120138705Y-51107582D01*
X120823157Y-52346008D01*
X120825159Y-52349753D01*
X121474624Y-53606913D01*
X121476520Y-53610713D01*
X122090478Y-54885609D01*
X122092266Y-54889461D01*
X122670201Y-56181019D01*
X122671881Y-56184919D01*
X123213380Y-57492213D01*
X123214950Y-57496159D01*
X123719564Y-58818107D01*
X123721023Y-58822095D01*
X124188373Y-60157706D01*
X124189719Y-60161733D01*
X124619420Y-61509903D01*
X124620653Y-61513967D01*
X125012380Y-62873683D01*
X125013498Y-62877780D01*
X125253021Y-63806334D01*
X125366928Y-64247912D01*
X125367931Y-64252038D01*
X125682797Y-65631562D01*
X125683684Y-65635715D01*
X125959740Y-67023537D01*
X125960510Y-67027714D01*
X126197533Y-68422735D01*
X126198185Y-68426931D01*
X126395984Y-69828007D01*
X126396519Y-69832219D01*
X126554952Y-71238343D01*
X126555368Y-71242570D01*
X126674297Y-72652539D01*
X126674595Y-72656775D01*
X126753937Y-74069589D01*
X126754115Y-74073832D01*
X126793800Y-75488237D01*
X126793860Y-75492483D01*
X126793860Y-76907516D01*
X126793800Y-76911762D01*
X126754115Y-78326167D01*
X126753937Y-78330410D01*
X126674595Y-79743224D01*
X126674297Y-79747460D01*
X126555368Y-81157429D01*
X126554952Y-81161656D01*
X126396519Y-82567780D01*
X126395984Y-82571992D01*
X126198185Y-83973068D01*
X126197533Y-83977264D01*
X125960510Y-85372285D01*
X125959740Y-85376462D01*
X125683684Y-86764284D01*
X125682797Y-86768437D01*
X125367931Y-88147961D01*
X125366928Y-88152087D01*
X125013498Y-89522219D01*
X125012380Y-89526316D01*
X124620653Y-90886032D01*
X124619420Y-90890096D01*
X124189719Y-92238266D01*
X124188373Y-92242293D01*
X123721023Y-93577904D01*
X123719564Y-93581892D01*
X123214950Y-94903840D01*
X123213380Y-94907786D01*
X122671881Y-96215080D01*
X122670201Y-96218980D01*
X122092266Y-97510538D01*
X122090478Y-97514390D01*
X121476520Y-98789286D01*
X121474624Y-98793086D01*
X120825159Y-100050246D01*
X120823157Y-100053991D01*
X120138705Y-101292417D01*
X120136599Y-101296105D01*
X119417661Y-102514880D01*
X119415452Y-102518507D01*
X118662618Y-103716636D01*
X118660308Y-103720199D01*
X117874205Y-104896684D01*
X117871797Y-104900182D01*
X117052950Y-106054240D01*
X117050444Y-106057669D01*
X116199590Y-107188254D01*
X116196989Y-107191610D01*
X115314758Y-108297895D01*
X115312064Y-108301178D01*
X114399143Y-109382293D01*
X114396358Y-109385499D01*
X113453464Y-110440598D01*
X113450590Y-110443724D01*
X112478513Y-111471924D01*
X112475553Y-111474969D01*
X111474969Y-112475553D01*
X111471924Y-112478513D01*
X110443724Y-113450590D01*
X110440598Y-113453464D01*
X109385499Y-114396358D01*
X109382293Y-114399143D01*
X108301178Y-115312064D01*
X108297895Y-115314758D01*
X107191610Y-116196989D01*
X107188254Y-116199590D01*
X106057669Y-117050444D01*
X106054240Y-117052950D01*
X104900182Y-117871797D01*
X104896684Y-117874205D01*
X103720199Y-118660308D01*
X103716636Y-118662618D01*
X102518507Y-119415452D01*
X102514880Y-119417661D01*
X101296105Y-120136599D01*
X101292417Y-120138705D01*
X100053991Y-120823157D01*
X100050246Y-120825159D01*
X98793086Y-121474624D01*
X98789286Y-121476520D01*
X97514390Y-122090478D01*
X97510538Y-122092266D01*
X96218980Y-122670201D01*
X96215080Y-122671881D01*
X94907786Y-123213380D01*
X94903840Y-123214950D01*
X93581892Y-123719564D01*
X93577904Y-123721023D01*
X92242293Y-124188373D01*
X92238266Y-124189719D01*
X90890096Y-124619420D01*
X90886032Y-124620653D01*
X89526316Y-125012380D01*
X89522219Y-125013498D01*
X88152087Y-125366928D01*
X88147961Y-125367931D01*
X86768437Y-125682797D01*
X86764284Y-125683684D01*
X85376462Y-125959740D01*
X85372285Y-125960510D01*
X83977264Y-126197533D01*
X83973068Y-126198185D01*
X82571992Y-126395984D01*
X82567780Y-126396519D01*
X81161656Y-126554952D01*
X81157429Y-126555368D01*
X79747460Y-126674297D01*
X79743224Y-126674595D01*
X78330410Y-126753937D01*
X78326167Y-126754115D01*
X76911762Y-126793800D01*
X76907516Y-126793860D01*
X75492484Y-126793860D01*
X75488238Y-126793800D01*
X74073832Y-126754115D01*
X74069589Y-126753937D01*
X72656775Y-126674595D01*
X72652539Y-126674297D01*
X71242570Y-126555368D01*
X71238347Y-126554952D01*
X70838991Y-126509955D01*
X69832219Y-126396519D01*
X69828007Y-126395984D01*
X68426931Y-126198185D01*
X68422735Y-126197533D01*
X67027714Y-125960510D01*
X67023537Y-125959740D01*
X65635715Y-125683684D01*
X65631562Y-125682797D01*
X64418497Y-125405924D01*
X64252028Y-125367928D01*
X64247922Y-125366930D01*
X63625855Y-125206466D01*
X62877780Y-125013498D01*
X62873683Y-125012380D01*
X61513967Y-124620653D01*
X61509903Y-124619420D01*
X60161733Y-124189719D01*
X60157706Y-124188373D01*
X58822095Y-123721023D01*
X58818107Y-123719564D01*
X57496159Y-123214950D01*
X57492213Y-123213380D01*
X56965620Y-122995258D01*
X56645889Y-122862821D01*
X65788061Y-122862821D01*
X65788061Y-123041778D01*
X65822974Y-123217302D01*
X65891458Y-123382635D01*
X65891459Y-123382636D01*
X65990883Y-123531435D01*
X66117426Y-123657978D01*
X66170761Y-123693615D01*
X66266225Y-123757402D01*
X66431558Y-123825886D01*
X66431560Y-123825886D01*
X66431561Y-123825887D01*
X66607082Y-123860800D01*
X66786040Y-123860800D01*
X66961561Y-123825887D01*
X67021399Y-123801100D01*
X67099098Y-123790871D01*
X67171503Y-123820861D01*
X67178517Y-123827267D01*
X67178770Y-123826973D01*
X67185457Y-123832718D01*
X67185458Y-123832719D01*
X67314410Y-123943505D01*
X67381198Y-123978026D01*
X67465427Y-124021562D01*
X67465431Y-124021563D01*
X67465436Y-124021566D01*
X67562221Y-124047198D01*
X68090062Y-124130799D01*
X68190031Y-124136331D01*
X68357788Y-124108760D01*
X68514663Y-124043245D01*
X68523302Y-124036968D01*
X68596463Y-124008878D01*
X68673869Y-124021131D01*
X68734778Y-124070447D01*
X68734784Y-124070454D01*
X68741068Y-124079103D01*
X68870020Y-124189889D01*
X68936808Y-124224410D01*
X69021037Y-124267946D01*
X69021041Y-124267947D01*
X69021046Y-124267950D01*
X69117831Y-124293582D01*
X69645672Y-124377183D01*
X69745641Y-124382715D01*
X69913398Y-124355144D01*
X70070273Y-124289629D01*
X70070275Y-124289626D01*
X70077780Y-124286493D01*
X70155449Y-124276037D01*
X70227941Y-124305817D01*
X70232178Y-124309170D01*
X70232957Y-124309809D01*
X70232962Y-124309814D01*
X70381761Y-124409238D01*
X70547094Y-124477722D01*
X70547096Y-124477722D01*
X70547097Y-124477723D01*
X70722618Y-124512636D01*
X70901576Y-124512636D01*
X71077097Y-124477723D01*
X71242433Y-124409238D01*
X71391232Y-124309814D01*
X71517775Y-124183271D01*
X71617199Y-124034472D01*
X71685684Y-123869136D01*
X71720597Y-123693615D01*
X71720597Y-123514657D01*
X71714403Y-123483515D01*
X80698896Y-123483515D01*
X80698896Y-123662473D01*
X80710252Y-123719564D01*
X80733809Y-123837996D01*
X80802293Y-124003329D01*
X80847148Y-124070459D01*
X80901718Y-124152129D01*
X81028261Y-124278672D01*
X81142710Y-124355144D01*
X81177060Y-124378096D01*
X81342393Y-124446580D01*
X81342395Y-124446580D01*
X81342396Y-124446581D01*
X81517917Y-124481494D01*
X81696875Y-124481494D01*
X81872396Y-124446581D01*
X82037732Y-124378096D01*
X82178764Y-124283861D01*
X82252975Y-124258670D01*
X82329839Y-124273959D01*
X82351866Y-124287260D01*
X82355127Y-124289629D01*
X82512002Y-124355144D01*
X82679759Y-124382715D01*
X82779727Y-124377184D01*
X83307568Y-124293582D01*
X83404354Y-124267950D01*
X83555380Y-124189889D01*
X83684332Y-124079103D01*
X83690612Y-124070458D01*
X83751516Y-124021138D01*
X83828921Y-124008876D01*
X83902086Y-124036959D01*
X83910737Y-124043245D01*
X84067612Y-124108760D01*
X84235369Y-124136331D01*
X84335337Y-124130800D01*
X84863178Y-124047198D01*
X84959964Y-124021566D01*
X85110990Y-123943505D01*
X85239942Y-123832719D01*
X85241422Y-123830681D01*
X85242989Y-123829411D01*
X85245916Y-123826237D01*
X85246380Y-123826665D01*
X85302322Y-123781362D01*
X85379727Y-123769099D01*
X85421840Y-123779793D01*
X85457932Y-123794743D01*
X85457936Y-123794743D01*
X85457937Y-123794744D01*
X85633452Y-123829656D01*
X85633453Y-123829656D01*
X85812411Y-123829656D01*
X85987932Y-123794743D01*
X86153268Y-123726258D01*
X86302067Y-123626834D01*
X86428610Y-123500291D01*
X86528034Y-123351492D01*
X86596519Y-123186156D01*
X86631432Y-123010635D01*
X86631432Y-122831677D01*
X86596519Y-122656156D01*
X86528034Y-122490820D01*
X86428610Y-122342021D01*
X86302067Y-122215478D01*
X86260967Y-122188016D01*
X86153267Y-122116053D01*
X85987934Y-122047569D01*
X85987935Y-122047569D01*
X85812411Y-122012656D01*
X85633453Y-122012656D01*
X85457929Y-122047569D01*
X85292596Y-122116053D01*
X85163099Y-122202580D01*
X85088887Y-122227771D01*
X85012023Y-122212481D01*
X84989995Y-122199180D01*
X84980073Y-122191971D01*
X84823198Y-122126456D01*
X84823197Y-122126455D01*
X84683011Y-122103416D01*
X84655441Y-122098885D01*
X84655440Y-122098885D01*
X84555472Y-122104416D01*
X84027641Y-122188016D01*
X84027626Y-122188019D01*
X83930847Y-122213649D01*
X83779820Y-122291710D01*
X83650869Y-122402495D01*
X83644582Y-122411149D01*
X83583674Y-122460466D01*
X83506268Y-122472722D01*
X83433113Y-122444639D01*
X83424463Y-122438355D01*
X83424462Y-122438354D01*
X83268366Y-122373165D01*
X83267588Y-122372840D01*
X83267587Y-122372839D01*
X83127401Y-122349800D01*
X83099831Y-122345269D01*
X83099830Y-122345269D01*
X82999862Y-122350800D01*
X82472031Y-122434400D01*
X82472016Y-122434403D01*
X82375237Y-122460033D01*
X82224210Y-122538094D01*
X82095258Y-122648880D01*
X82095257Y-122648882D01*
X82085637Y-122662122D01*
X82024730Y-122711439D01*
X81947324Y-122723696D01*
X81905219Y-122713002D01*
X81872396Y-122699406D01*
X81696876Y-122664494D01*
X81696875Y-122664494D01*
X81517917Y-122664494D01*
X81342393Y-122699407D01*
X81177060Y-122767891D01*
X81028260Y-122867316D01*
X80901718Y-122993858D01*
X80802293Y-123142658D01*
X80733809Y-123307991D01*
X80718962Y-123382635D01*
X80698896Y-123483515D01*
X71714403Y-123483515D01*
X71685684Y-123339136D01*
X71672784Y-123307994D01*
X71617199Y-123173800D01*
X71531255Y-123045176D01*
X71517775Y-123025001D01*
X71391232Y-122898458D01*
X71242433Y-122799034D01*
X71242434Y-122799034D01*
X71242432Y-122799033D01*
X71077099Y-122730549D01*
X71077100Y-122730549D01*
X70901576Y-122695636D01*
X70722618Y-122695636D01*
X70547094Y-122730549D01*
X70536199Y-122735062D01*
X70458498Y-122745287D01*
X70386095Y-122715291D01*
X70355784Y-122684174D01*
X70330139Y-122648877D01*
X70201193Y-122538097D01*
X70201191Y-122538096D01*
X70201190Y-122538095D01*
X70153934Y-122513670D01*
X70050172Y-122460037D01*
X70050159Y-122460032D01*
X69953392Y-122434405D01*
X69953382Y-122434402D01*
X69953379Y-122434402D01*
X69953376Y-122434401D01*
X69953369Y-122434400D01*
X69425540Y-122350801D01*
X69375553Y-122348035D01*
X69325569Y-122345269D01*
X69325568Y-122345269D01*
X69325567Y-122345269D01*
X69157813Y-122372839D01*
X69000937Y-122438354D01*
X69000936Y-122438355D01*
X68992287Y-122444639D01*
X68919121Y-122472723D01*
X68841716Y-122460461D01*
X68780814Y-122411143D01*
X68774534Y-122402499D01*
X68774531Y-122402496D01*
X68707920Y-122345269D01*
X68645580Y-122291711D01*
X68605044Y-122270759D01*
X68494562Y-122213653D01*
X68494549Y-122213648D01*
X68397782Y-122188021D01*
X68397772Y-122188018D01*
X68397769Y-122188018D01*
X68397766Y-122188017D01*
X68397759Y-122188016D01*
X67869930Y-122104417D01*
X67819943Y-122101651D01*
X67769959Y-122098885D01*
X67769958Y-122098885D01*
X67769957Y-122098885D01*
X67602203Y-122126455D01*
X67445327Y-122191970D01*
X67445325Y-122191971D01*
X67410239Y-122217462D01*
X67337073Y-122245545D01*
X67259668Y-122233283D01*
X67237139Y-122220859D01*
X67126896Y-122147197D01*
X66961563Y-122078713D01*
X66961564Y-122078713D01*
X66786040Y-122043800D01*
X66607082Y-122043800D01*
X66431558Y-122078713D01*
X66266225Y-122147197D01*
X66117425Y-122246622D01*
X65990883Y-122373164D01*
X65891458Y-122521964D01*
X65822974Y-122687297D01*
X65788061Y-122862821D01*
X56645889Y-122862821D01*
X56184919Y-122671881D01*
X56181019Y-122670201D01*
X54889461Y-122092266D01*
X54885609Y-122090478D01*
X53610713Y-121476520D01*
X53606913Y-121474624D01*
X52349753Y-120825159D01*
X52346008Y-120823157D01*
X51322687Y-120257589D01*
X51107573Y-120138700D01*
X51103894Y-120136599D01*
X51063791Y-120112943D01*
X50698305Y-119897348D01*
X49885119Y-119417661D01*
X49881492Y-119415452D01*
X48683363Y-118662618D01*
X48679800Y-118660308D01*
X47503315Y-117874205D01*
X47499817Y-117871797D01*
X47343894Y-117761164D01*
X47180354Y-117645126D01*
X51797076Y-117645126D01*
X51797076Y-117824084D01*
X51803210Y-117854924D01*
X51831989Y-117999607D01*
X51900473Y-118164940D01*
X51999898Y-118313740D01*
X52126440Y-118440282D01*
X52275240Y-118539707D01*
X52440573Y-118608191D01*
X52440575Y-118608191D01*
X52440576Y-118608192D01*
X52616097Y-118643105D01*
X52774123Y-118643105D01*
X52849823Y-118663389D01*
X52903442Y-118715774D01*
X52994701Y-118865673D01*
X52994704Y-118865676D01*
X52994706Y-118865679D01*
X53012394Y-118883574D01*
X53114213Y-118986587D01*
X53114215Y-118986588D01*
X53114217Y-118986590D01*
X53198345Y-119040876D01*
X53674518Y-119283497D01*
X53674526Y-119283500D01*
X53674528Y-119283501D01*
X53767884Y-119319650D01*
X53767887Y-119319651D01*
X53875517Y-119336056D01*
X53935951Y-119345268D01*
X53935953Y-119345267D01*
X53935956Y-119345268D01*
X54056981Y-119335388D01*
X54105393Y-119331436D01*
X54115552Y-119328134D01*
X54193814Y-119324029D01*
X54263644Y-119359604D01*
X54306331Y-119425329D01*
X54306333Y-119425334D01*
X54309637Y-119435502D01*
X54309638Y-119435505D01*
X54398039Y-119580709D01*
X54398042Y-119580712D01*
X54398044Y-119580715D01*
X54456777Y-119640136D01*
X54517551Y-119701623D01*
X54517553Y-119701624D01*
X54517555Y-119701626D01*
X54601683Y-119755912D01*
X55077856Y-119998533D01*
X55077864Y-119998536D01*
X55077866Y-119998537D01*
X55171222Y-120034686D01*
X55171225Y-120034687D01*
X55278855Y-120051092D01*
X55339289Y-120060304D01*
X55339291Y-120060303D01*
X55339293Y-120060304D01*
X55512566Y-120046159D01*
X55589666Y-120060216D01*
X55649407Y-120110940D01*
X55650769Y-120112943D01*
X55712576Y-120205442D01*
X55712577Y-120205444D01*
X55839119Y-120331986D01*
X55987919Y-120431411D01*
X56153252Y-120499895D01*
X56153254Y-120499895D01*
X56153255Y-120499896D01*
X56328776Y-120534809D01*
X56507734Y-120534809D01*
X56683255Y-120499896D01*
X56848591Y-120431411D01*
X56997390Y-120331987D01*
X57123933Y-120205444D01*
X57223357Y-120056645D01*
X57291842Y-119891309D01*
X57326755Y-119715788D01*
X57326755Y-119536830D01*
X57291842Y-119361309D01*
X57276492Y-119324252D01*
X57223357Y-119195973D01*
X57209147Y-119174706D01*
X57123933Y-119047174D01*
X56997390Y-118920631D01*
X56941930Y-118883574D01*
X56848590Y-118821206D01*
X56683257Y-118752722D01*
X56683258Y-118752722D01*
X56507734Y-118717809D01*
X56422116Y-118717809D01*
X56346416Y-118697525D01*
X56291000Y-118642109D01*
X56278126Y-118613193D01*
X56277081Y-118609976D01*
X56262900Y-118566332D01*
X56262898Y-118566329D01*
X56174498Y-118421126D01*
X56174495Y-118421123D01*
X56174494Y-118421121D01*
X56115079Y-118361010D01*
X56054986Y-118300212D01*
X56054978Y-118300207D01*
X55970855Y-118245924D01*
X55494682Y-118003303D01*
X55494677Y-118003301D01*
X55494671Y-118003298D01*
X55401315Y-117967149D01*
X55401312Y-117967148D01*
X55233252Y-117941532D01*
X55233243Y-117941531D01*
X55063808Y-117955363D01*
X55063805Y-117955363D01*
X55053636Y-117958668D01*
X54975373Y-117962768D01*
X54905546Y-117927186D01*
X54862865Y-117861461D01*
X54859826Y-117852109D01*
X54859562Y-117851296D01*
X54842995Y-117824084D01*
X54771160Y-117706090D01*
X54771157Y-117706087D01*
X54771156Y-117706085D01*
X54710903Y-117645126D01*
X54651648Y-117585176D01*
X54651640Y-117585171D01*
X54567517Y-117530888D01*
X54091344Y-117288267D01*
X54091339Y-117288265D01*
X54091333Y-117288262D01*
X53997977Y-117252113D01*
X53997974Y-117252112D01*
X53829914Y-117226496D01*
X53829905Y-117226495D01*
X53660468Y-117240327D01*
X53611290Y-117256306D01*
X53533027Y-117260407D01*
X53463198Y-117224827D01*
X53438624Y-117196433D01*
X53411254Y-117155470D01*
X53284711Y-117028927D01*
X53229248Y-116991868D01*
X53135911Y-116929502D01*
X52970578Y-116861018D01*
X52970579Y-116861018D01*
X52795055Y-116826105D01*
X52616097Y-116826105D01*
X52440573Y-116861018D01*
X52275240Y-116929502D01*
X52126440Y-117028927D01*
X51999898Y-117155469D01*
X51900473Y-117304269D01*
X51831989Y-117469602D01*
X51797076Y-117645126D01*
X47180354Y-117645126D01*
X46587997Y-117224827D01*
X46345752Y-117052945D01*
X46342372Y-117050474D01*
X45211739Y-116199585D01*
X45208389Y-116196989D01*
X44495279Y-115628304D01*
X44102086Y-115314743D01*
X44098839Y-115312078D01*
X43017706Y-114399143D01*
X43014500Y-114396358D01*
X41959401Y-113453464D01*
X41956275Y-113450590D01*
X40928075Y-112478513D01*
X40925030Y-112475553D01*
X39924446Y-111474969D01*
X39921486Y-111471924D01*
X38949409Y-110443724D01*
X38946535Y-110440598D01*
X38003641Y-109385499D01*
X38000856Y-109382293D01*
X37972902Y-109349189D01*
X37125744Y-108345953D01*
X40129948Y-108345953D01*
X40129948Y-108524911D01*
X40137213Y-108561433D01*
X40164861Y-108700434D01*
X40233345Y-108865767D01*
X40332770Y-109014567D01*
X40459312Y-109141109D01*
X40608112Y-109240534D01*
X40742174Y-109296065D01*
X40773448Y-109309019D01*
X40801153Y-109314529D01*
X40871439Y-109349189D01*
X40914981Y-109414350D01*
X40918936Y-109428104D01*
X40959794Y-109600497D01*
X41036094Y-109752422D01*
X41099320Y-109830037D01*
X41099325Y-109830042D01*
X41099328Y-109830046D01*
X41477221Y-110207938D01*
X41554847Y-110271174D01*
X41706771Y-110347473D01*
X41872194Y-110386679D01*
X41882882Y-110386679D01*
X41958582Y-110406963D01*
X42013998Y-110462379D01*
X42034282Y-110538079D01*
X42034282Y-110548769D01*
X42073488Y-110714191D01*
X42149788Y-110866116D01*
X42213014Y-110943731D01*
X42213019Y-110943736D01*
X42213022Y-110943740D01*
X42590915Y-111321632D01*
X42668541Y-111384868D01*
X42820465Y-111461167D01*
X42985888Y-111500373D01*
X42985889Y-111500373D01*
X42992281Y-111501888D01*
X43061263Y-111539083D01*
X43102406Y-111605785D01*
X43105857Y-111619668D01*
X43111261Y-111646835D01*
X43179744Y-111812166D01*
X43279169Y-111960966D01*
X43405711Y-112087508D01*
X43554511Y-112186933D01*
X43719844Y-112255417D01*
X43719846Y-112255417D01*
X43719847Y-112255418D01*
X43895368Y-112290331D01*
X44074326Y-112290331D01*
X44249847Y-112255418D01*
X44415183Y-112186933D01*
X44563982Y-112087509D01*
X44690525Y-111960966D01*
X44789949Y-111812167D01*
X44858434Y-111646831D01*
X44893347Y-111471310D01*
X44893347Y-111292352D01*
X44858434Y-111116831D01*
X44847644Y-111090783D01*
X44789949Y-110951495D01*
X44690524Y-110802695D01*
X44563982Y-110676153D01*
X44415182Y-110576728D01*
X44253995Y-110509962D01*
X44191820Y-110462253D01*
X44161829Y-110389848D01*
X44160534Y-110370087D01*
X44160534Y-110325727D01*
X44160533Y-110325724D01*
X44151646Y-110288227D01*
X44121328Y-110160304D01*
X44045029Y-110008380D01*
X43981794Y-109930754D01*
X43603901Y-109552862D01*
X43526275Y-109489626D01*
X43417649Y-109435072D01*
X43374352Y-109413327D01*
X43208930Y-109374121D01*
X43208928Y-109374121D01*
X43198240Y-109374121D01*
X43122540Y-109353837D01*
X43067124Y-109298421D01*
X43046840Y-109222721D01*
X43046840Y-109212033D01*
X43046839Y-109212030D01*
X43007634Y-109046610D01*
X42931335Y-108894686D01*
X42931333Y-108894683D01*
X42868107Y-108817068D01*
X42868103Y-108817064D01*
X42868100Y-108817060D01*
X42490207Y-108439168D01*
X42412581Y-108375932D01*
X42311298Y-108325066D01*
X42260658Y-108299633D01*
X42095236Y-108260427D01*
X42095234Y-108260427D01*
X42050475Y-108260427D01*
X41974775Y-108240143D01*
X41919359Y-108184727D01*
X41910600Y-108166966D01*
X41843550Y-108005096D01*
X41744125Y-107856296D01*
X41617583Y-107729754D01*
X41468783Y-107630329D01*
X41303450Y-107561845D01*
X41303451Y-107561845D01*
X41127927Y-107526932D01*
X40948969Y-107526932D01*
X40773445Y-107561845D01*
X40608112Y-107630329D01*
X40459312Y-107729754D01*
X40332770Y-107856296D01*
X40233345Y-108005096D01*
X40164861Y-108170429D01*
X40129948Y-108345953D01*
X37125744Y-108345953D01*
X37087914Y-108301153D01*
X37085262Y-108297921D01*
X36203010Y-107191610D01*
X36200409Y-107188254D01*
X35845731Y-106716970D01*
X35349515Y-106057615D01*
X35347049Y-106054240D01*
X35133050Y-105752637D01*
X34528202Y-104900182D01*
X34525794Y-104896684D01*
X33739691Y-103720199D01*
X33737381Y-103716636D01*
X32984547Y-102518507D01*
X32982338Y-102514880D01*
X32463921Y-101636037D01*
X32263382Y-101296073D01*
X32261312Y-101292449D01*
X31576842Y-100053991D01*
X31574840Y-100050246D01*
X31250995Y-99423384D01*
X30925366Y-98793069D01*
X30923479Y-98789286D01*
X30899518Y-98739531D01*
X30309514Y-97514375D01*
X30307733Y-97510538D01*
X30269287Y-97424619D01*
X29729784Y-96218947D01*
X29728132Y-96215113D01*
X29591903Y-95886228D01*
X31862114Y-95886228D01*
X31862114Y-96065185D01*
X31897027Y-96240709D01*
X31965511Y-96406042D01*
X32053812Y-96538194D01*
X32064936Y-96554842D01*
X32191479Y-96681385D01*
X32287363Y-96745453D01*
X32339037Y-96804374D01*
X32354327Y-96881238D01*
X32354149Y-96883655D01*
X32339695Y-97060705D01*
X32339696Y-97060714D01*
X32365312Y-97228773D01*
X32365313Y-97228775D01*
X32401463Y-97322138D01*
X32401470Y-97322153D01*
X32644087Y-97798314D01*
X32644088Y-97798316D01*
X32688353Y-97866916D01*
X32698374Y-97882445D01*
X32819285Y-98001956D01*
X32819289Y-98001958D01*
X32819290Y-98001960D01*
X32964489Y-98090358D01*
X32964496Y-98090362D01*
X32970642Y-98092359D01*
X32974661Y-98093665D01*
X33040388Y-98136347D01*
X33075968Y-98206175D01*
X33071868Y-98284436D01*
X33068563Y-98294605D01*
X33068563Y-98294608D01*
X33054731Y-98464043D01*
X33054732Y-98464052D01*
X33080348Y-98632111D01*
X33080349Y-98632113D01*
X33116499Y-98725476D01*
X33116506Y-98725491D01*
X33359123Y-99201652D01*
X33359124Y-99201654D01*
X33403389Y-99270254D01*
X33413410Y-99285783D01*
X33534321Y-99405294D01*
X33534327Y-99405297D01*
X33534330Y-99405300D01*
X33681149Y-99494685D01*
X33735261Y-99551375D01*
X33753819Y-99624004D01*
X33753819Y-99777865D01*
X33788732Y-99953389D01*
X33857216Y-100118722D01*
X33857217Y-100118723D01*
X33956641Y-100267522D01*
X34083184Y-100394065D01*
X34231983Y-100493489D01*
X34397316Y-100561973D01*
X34397318Y-100561973D01*
X34397319Y-100561974D01*
X34572840Y-100596887D01*
X34751798Y-100596887D01*
X34927319Y-100561974D01*
X35092655Y-100493489D01*
X35241454Y-100394065D01*
X35367997Y-100267522D01*
X35467421Y-100118723D01*
X35535906Y-99953387D01*
X35570819Y-99777866D01*
X35570819Y-99598908D01*
X35535906Y-99423387D01*
X35532231Y-99414516D01*
X35467421Y-99258051D01*
X35429739Y-99201656D01*
X35367997Y-99109252D01*
X35241454Y-98982709D01*
X35227025Y-98973068D01*
X35204633Y-98958106D01*
X35152959Y-98899184D01*
X35137670Y-98822319D01*
X35144757Y-98785434D01*
X35147541Y-98776865D01*
X35159672Y-98739531D01*
X35173504Y-98570089D01*
X35157340Y-98464043D01*
X35147887Y-98402026D01*
X35147886Y-98402024D01*
X35147885Y-98402022D01*
X35111734Y-98308656D01*
X35108655Y-98302613D01*
X34869112Y-97832485D01*
X34869111Y-97832483D01*
X34840548Y-97788218D01*
X34814826Y-97748355D01*
X34693915Y-97628844D01*
X34693909Y-97628840D01*
X34693909Y-97628839D01*
X34548705Y-97540438D01*
X34548702Y-97540437D01*
X34538534Y-97537133D01*
X34472808Y-97494448D01*
X34437230Y-97424619D01*
X34441332Y-97346358D01*
X34444636Y-97336193D01*
X34448588Y-97287781D01*
X34458468Y-97166756D01*
X34458467Y-97166753D01*
X34458468Y-97166751D01*
X34442304Y-97060705D01*
X34432851Y-96998688D01*
X34432850Y-96998686D01*
X34432849Y-96998684D01*
X34396698Y-96905318D01*
X34315242Y-96745452D01*
X34154076Y-96429147D01*
X34154075Y-96429145D01*
X34121190Y-96378182D01*
X34099790Y-96345017D01*
X33978879Y-96225506D01*
X33978873Y-96225502D01*
X33978873Y-96225501D01*
X33833669Y-96137100D01*
X33833664Y-96137098D01*
X33783727Y-96120872D01*
X33718001Y-96078188D01*
X33682422Y-96008359D01*
X33679114Y-95976883D01*
X33679114Y-95886228D01*
X33644201Y-95710707D01*
X33575716Y-95545371D01*
X33476292Y-95396572D01*
X33349749Y-95270029D01*
X33200949Y-95170604D01*
X33035616Y-95102120D01*
X33035617Y-95102120D01*
X32860093Y-95067207D01*
X32681135Y-95067207D01*
X32505611Y-95102120D01*
X32340278Y-95170604D01*
X32191478Y-95270029D01*
X32064936Y-95396571D01*
X31965511Y-95545371D01*
X31897027Y-95710704D01*
X31862114Y-95886228D01*
X29591903Y-95886228D01*
X29186612Y-94907769D01*
X29185049Y-94903840D01*
X29140994Y-94788428D01*
X28680428Y-93581873D01*
X28678976Y-93577904D01*
X28677480Y-93573630D01*
X28252603Y-92359400D01*
X28211626Y-92242293D01*
X28210280Y-92238266D01*
X27854596Y-91122320D01*
X27780565Y-90890050D01*
X27779360Y-90886079D01*
X27387609Y-89526280D01*
X27386511Y-89522256D01*
X27033056Y-88152026D01*
X27032082Y-88148022D01*
X26717202Y-86768437D01*
X26716315Y-86764284D01*
X26574158Y-86049614D01*
X26440254Y-85376438D01*
X26439489Y-85372285D01*
X26429507Y-85313534D01*
X26202460Y-83977225D01*
X26201820Y-83973107D01*
X26004009Y-82571950D01*
X26003485Y-82567821D01*
X25885849Y-81523781D01*
X27881469Y-81523781D01*
X27881469Y-81702738D01*
X27916382Y-81878262D01*
X27984866Y-82043595D01*
X28084291Y-82192395D01*
X28088859Y-82197961D01*
X28121201Y-82269346D01*
X28113518Y-82347339D01*
X28111530Y-82352350D01*
X28064347Y-82465330D01*
X28047645Y-82505325D01*
X28044855Y-82512005D01*
X28017285Y-82679758D01*
X28022816Y-82779727D01*
X28106416Y-83307558D01*
X28106419Y-83307573D01*
X28132049Y-83404352D01*
X28210110Y-83555379D01*
X28320896Y-83684331D01*
X28320899Y-83684334D01*
X28329543Y-83690614D01*
X28378863Y-83751520D01*
X28391123Y-83828926D01*
X28363039Y-83902087D01*
X28356755Y-83910736D01*
X28356754Y-83910737D01*
X28291239Y-84067613D01*
X28263669Y-84235368D01*
X28269200Y-84335337D01*
X28352800Y-84863168D01*
X28352803Y-84863183D01*
X28376667Y-84953295D01*
X28378434Y-84959964D01*
X28456495Y-85110990D01*
X28458535Y-85113364D01*
X28569818Y-85242896D01*
X28603762Y-85313534D01*
X28597840Y-85391680D01*
X28594854Y-85399494D01*
X28568219Y-85463797D01*
X28533306Y-85639318D01*
X28533306Y-85818276D01*
X28534075Y-85822140D01*
X28568219Y-85993799D01*
X28636703Y-86159132D01*
X28636704Y-86159133D01*
X28736128Y-86307932D01*
X28862671Y-86434475D01*
X28868454Y-86438339D01*
X29011470Y-86533899D01*
X29176803Y-86602383D01*
X29176805Y-86602383D01*
X29176806Y-86602384D01*
X29352327Y-86637297D01*
X29531285Y-86637297D01*
X29706806Y-86602384D01*
X29872142Y-86533899D01*
X30020941Y-86434475D01*
X30147484Y-86307932D01*
X30246908Y-86159133D01*
X30315393Y-85993797D01*
X30350306Y-85818276D01*
X30350306Y-85639318D01*
X30315393Y-85463797D01*
X30246908Y-85298461D01*
X30176083Y-85192464D01*
X30150892Y-85118255D01*
X30166181Y-85041390D01*
X30179481Y-85019364D01*
X30208029Y-84980073D01*
X30273544Y-84823198D01*
X30301115Y-84655441D01*
X30295584Y-84555473D01*
X30211982Y-84027632D01*
X30186350Y-83930846D01*
X30108289Y-83779820D01*
X29997503Y-83650868D01*
X29988854Y-83644584D01*
X29939535Y-83583677D01*
X29927277Y-83506272D01*
X29955361Y-83433111D01*
X29961645Y-83424463D01*
X30027160Y-83267588D01*
X30054731Y-83099831D01*
X30049200Y-82999863D01*
X29965598Y-82472022D01*
X29939966Y-82375236D01*
X29861905Y-82224210D01*
X29751119Y-82095258D01*
X29751116Y-82095255D01*
X29711279Y-82066312D01*
X29661959Y-82005406D01*
X29649699Y-81928001D01*
X29660396Y-81885886D01*
X29663556Y-81878260D01*
X29698469Y-81702739D01*
X29698469Y-81523781D01*
X29663556Y-81348260D01*
X29595071Y-81182924D01*
X29495647Y-81034125D01*
X29369104Y-80907582D01*
X29220304Y-80808157D01*
X29054971Y-80739673D01*
X29054972Y-80739673D01*
X28879448Y-80704760D01*
X28700490Y-80704760D01*
X28524966Y-80739673D01*
X28359633Y-80808157D01*
X28210833Y-80907582D01*
X28084291Y-81034124D01*
X27984866Y-81182924D01*
X27916382Y-81348257D01*
X27881469Y-81523781D01*
X25885849Y-81523781D01*
X25845040Y-81161589D01*
X25844636Y-81157488D01*
X25725697Y-79747400D01*
X25725408Y-79743283D01*
X25646059Y-78330356D01*
X25645886Y-78326223D01*
X25606200Y-76911762D01*
X25606140Y-76907516D01*
X25606140Y-76849248D01*
X32328212Y-76849248D01*
X32328443Y-76864701D01*
X32367728Y-78171602D01*
X32368421Y-78186974D01*
X32447083Y-79492047D01*
X32448253Y-79507551D01*
X32566212Y-80809537D01*
X32567847Y-80824984D01*
X32725012Y-82122898D01*
X32727106Y-82138253D01*
X32923327Y-83430829D01*
X32925887Y-83446130D01*
X33146953Y-84655441D01*
X33160988Y-84732217D01*
X33164001Y-84747404D01*
X33431738Y-85997663D01*
X33437784Y-86025896D01*
X33441227Y-86040869D01*
X33587885Y-86637297D01*
X33753425Y-87310514D01*
X33757348Y-87325491D01*
X34107665Y-88585096D01*
X34112038Y-88599948D01*
X34500169Y-89848420D01*
X34504987Y-89863133D01*
X34930579Y-91099336D01*
X34933604Y-91107711D01*
X34935852Y-91113934D01*
X35324954Y-92142314D01*
X35398506Y-92336708D01*
X35404203Y-92351104D01*
X35903523Y-93559412D01*
X35903539Y-93559449D01*
X35909640Y-93573608D01*
X36445169Y-94766332D01*
X36451738Y-94780392D01*
X36689572Y-95270029D01*
X37022957Y-95956381D01*
X37026976Y-95964347D01*
X37029947Y-95970235D01*
X37626350Y-97109353D01*
X37636357Y-97128466D01*
X37643744Y-97142073D01*
X37745054Y-97322144D01*
X38284816Y-98281534D01*
X38289297Y-98289224D01*
X38292607Y-98294905D01*
X38566866Y-98749728D01*
X38967733Y-99414513D01*
X38975905Y-99427615D01*
X39086371Y-99598908D01*
X39684504Y-100526401D01*
X39689452Y-100533826D01*
X39693113Y-100539318D01*
X40434455Y-101616159D01*
X40443434Y-101628790D01*
X41216939Y-102682839D01*
X41226294Y-102695192D01*
X42031228Y-103725449D01*
X42040916Y-103737470D01*
X42876543Y-104742994D01*
X42886639Y-104754777D01*
X43752159Y-105734606D01*
X43752181Y-105734630D01*
X43762605Y-105746078D01*
X44657307Y-106699407D01*
X44668071Y-106710535D01*
X45144300Y-107188254D01*
X45591126Y-107636478D01*
X45602200Y-107647256D01*
X46552729Y-108544932D01*
X46564144Y-108555392D01*
X47485186Y-109374121D01*
X47541310Y-109424010D01*
X47553023Y-109434110D01*
X48239678Y-110008381D01*
X48555930Y-110272873D01*
X48562861Y-110278494D01*
X48567946Y-110282619D01*
X49595705Y-111090783D01*
X49602807Y-111096196D01*
X49607999Y-111100153D01*
X50571927Y-111812167D01*
X50659629Y-111876949D01*
X50672264Y-111885991D01*
X51746759Y-112630677D01*
X51759618Y-112639307D01*
X51767303Y-112644297D01*
X52856170Y-113351324D01*
X52856203Y-113351345D01*
X52856225Y-113351359D01*
X52864605Y-113356621D01*
X52869281Y-113359558D01*
X53021605Y-113452060D01*
X53986743Y-114038161D01*
X53986774Y-114038179D01*
X53986777Y-114038181D01*
X54000129Y-114046017D01*
X55137576Y-114690643D01*
X55151160Y-114698073D01*
X55657507Y-114965197D01*
X56307514Y-115308111D01*
X56315289Y-115312064D01*
X56321323Y-115315132D01*
X57495552Y-115890036D01*
X57509559Y-115896633D01*
X58700585Y-116435876D01*
X58714783Y-116442048D01*
X59921525Y-116945141D01*
X59927243Y-116947424D01*
X59935904Y-116950884D01*
X60471557Y-117155470D01*
X61157262Y-117417367D01*
X61171807Y-117422672D01*
X62406675Y-117852124D01*
X62421373Y-117856989D01*
X63668626Y-118249019D01*
X63683465Y-118253438D01*
X63683484Y-118253443D01*
X63683503Y-118253449D01*
X64215593Y-118403224D01*
X64941970Y-118607688D01*
X64956934Y-118611658D01*
X65913403Y-118850019D01*
X66225541Y-118927807D01*
X66228438Y-118928482D01*
X66240623Y-118931325D01*
X67518189Y-119209086D01*
X67533366Y-119212146D01*
X68451328Y-119382917D01*
X68818725Y-119451266D01*
X68826904Y-119452660D01*
X68833988Y-119453868D01*
X69130143Y-119499773D01*
X70125943Y-119654126D01*
X70125972Y-119654130D01*
X70141305Y-119656271D01*
X71438739Y-119817493D01*
X71451982Y-119818936D01*
X71454153Y-119819173D01*
X72149454Y-119884338D01*
X72149457Y-119884338D01*
X72257956Y-119894510D01*
X72257973Y-119894510D01*
X72257978Y-119894511D01*
X72257968Y-119894511D01*
X72281277Y-119895281D01*
X72319930Y-119896560D01*
X72544004Y-119890429D01*
X72627075Y-119888157D01*
X72627083Y-119888156D01*
X72627098Y-119888156D01*
X72688868Y-119882720D01*
X72992784Y-119837352D01*
X73028651Y-119829759D01*
X73053427Y-119824516D01*
X73053433Y-119824514D01*
X73053449Y-119824511D01*
X73349680Y-119742841D01*
X73349686Y-119742838D01*
X73349693Y-119742837D01*
X73408348Y-119722783D01*
X73408347Y-119722783D01*
X73408354Y-119722781D01*
X73692582Y-119605999D01*
X73748411Y-119579013D01*
X74016489Y-119428823D01*
X74068657Y-119395304D01*
X74316678Y-119213896D01*
X74364426Y-119174334D01*
X74588772Y-118964353D01*
X74588791Y-118964333D01*
X74631377Y-118919351D01*
X74631383Y-118919343D01*
X74631404Y-118919322D01*
X74828803Y-118683830D01*
X74865695Y-118633991D01*
X75033270Y-118376422D01*
X75063886Y-118322499D01*
X75199193Y-118046609D01*
X75223087Y-117989387D01*
X75324152Y-117699199D01*
X75340973Y-117639516D01*
X75406323Y-117339262D01*
X75415828Y-117277986D01*
X75417861Y-117256306D01*
X75439177Y-117028927D01*
X75444510Y-116972044D01*
X75445291Y-116948451D01*
X75446555Y-116910221D01*
X76945162Y-116910221D01*
X76947198Y-116972176D01*
X76947200Y-116972211D01*
X76975817Y-117278141D01*
X76975820Y-117278164D01*
X76985310Y-117339418D01*
X76985314Y-117339440D01*
X77050597Y-117639677D01*
X77050606Y-117639714D01*
X77067407Y-117699374D01*
X77097914Y-117787024D01*
X77168346Y-117989387D01*
X77168422Y-117989603D01*
X77189366Y-118039789D01*
X77192297Y-118046811D01*
X77327547Y-118322728D01*
X77358153Y-118376659D01*
X77358167Y-118376681D01*
X77358171Y-118376687D01*
X77525677Y-118634264D01*
X77562562Y-118684113D01*
X77620050Y-118752722D01*
X77759911Y-118919641D01*
X77802223Y-118964353D01*
X77802539Y-118964686D01*
X77883906Y-119040874D01*
X78026835Y-119174706D01*
X78042163Y-119187412D01*
X78074570Y-119214275D01*
X78322564Y-119395740D01*
X78350976Y-119414003D01*
X78374720Y-119429265D01*
X78642768Y-119579510D01*
X78698592Y-119606508D01*
X78698607Y-119606514D01*
X78698611Y-119606516D01*
X78982770Y-119723337D01*
X78982776Y-119723339D01*
X78982795Y-119723347D01*
X78999244Y-119728974D01*
X79041449Y-119743414D01*
X79041458Y-119743416D01*
X79041465Y-119743419D01*
X79086743Y-119755912D01*
X79337639Y-119825139D01*
X79337647Y-119825140D01*
X79337680Y-119825150D01*
X79398342Y-119838004D01*
X79702249Y-119883434D01*
X79764019Y-119888882D01*
X80071185Y-119897348D01*
X80133160Y-119895311D01*
X80286134Y-119881001D01*
X80286133Y-119881000D01*
X80310357Y-119878734D01*
X80936986Y-119820135D01*
X80952392Y-119818460D01*
X82249858Y-119657502D01*
X82265192Y-119655364D01*
X83270334Y-119499773D01*
X95050562Y-119499773D01*
X95050562Y-119678731D01*
X95057933Y-119715787D01*
X95085475Y-119854254D01*
X95153959Y-120019587D01*
X95232144Y-120136599D01*
X95253384Y-120168387D01*
X95379927Y-120294930D01*
X95435387Y-120331987D01*
X95528726Y-120394354D01*
X95694059Y-120462838D01*
X95694061Y-120462838D01*
X95694062Y-120462839D01*
X95869583Y-120497752D01*
X96048541Y-120497752D01*
X96224062Y-120462839D01*
X96389398Y-120394354D01*
X96538197Y-120294930D01*
X96664740Y-120168387D01*
X96708405Y-120103036D01*
X96767326Y-120051363D01*
X96844191Y-120036073D01*
X96881074Y-120043159D01*
X96891269Y-120046472D01*
X96947749Y-120051082D01*
X97060705Y-120060304D01*
X97060707Y-120060303D01*
X97060711Y-120060304D01*
X97158471Y-120045402D01*
X97228773Y-120034687D01*
X97228774Y-120034686D01*
X97228777Y-120034686D01*
X97322144Y-119998534D01*
X97798316Y-119755911D01*
X97882445Y-119701626D01*
X98001956Y-119580715D01*
X98002988Y-119579021D01*
X98051234Y-119499773D01*
X98090362Y-119435504D01*
X98093664Y-119425339D01*
X98136341Y-119359616D01*
X98206167Y-119324032D01*
X98284428Y-119328128D01*
X98294607Y-119331436D01*
X98318813Y-119333412D01*
X98464043Y-119345268D01*
X98464045Y-119345267D01*
X98464049Y-119345268D01*
X98561809Y-119330366D01*
X98632111Y-119319651D01*
X98632112Y-119319650D01*
X98632115Y-119319650D01*
X98725482Y-119283498D01*
X99201654Y-119040875D01*
X99285783Y-118986590D01*
X99405294Y-118865679D01*
X99454930Y-118784150D01*
X99493698Y-118720472D01*
X99493698Y-118720470D01*
X99493700Y-118720468D01*
X99496886Y-118710660D01*
X99539568Y-118644935D01*
X99609396Y-118609355D01*
X99640876Y-118606046D01*
X99761219Y-118606046D01*
X99936740Y-118571133D01*
X100102076Y-118502648D01*
X100250875Y-118403224D01*
X100377418Y-118276681D01*
X100476842Y-118127882D01*
X100545327Y-117962546D01*
X100580240Y-117787025D01*
X100580240Y-117608067D01*
X100545327Y-117432546D01*
X100506688Y-117339265D01*
X100476842Y-117267210D01*
X100402179Y-117155469D01*
X100377418Y-117118411D01*
X100250875Y-116991868D01*
X100189538Y-116950884D01*
X100102075Y-116892443D01*
X99936742Y-116823959D01*
X99936743Y-116823959D01*
X99761219Y-116789046D01*
X99582261Y-116789046D01*
X99406737Y-116823959D01*
X99241404Y-116892443D01*
X99092604Y-116991868D01*
X98966061Y-117118411D01*
X98922394Y-117183764D01*
X98863472Y-117235437D01*
X98786607Y-117250726D01*
X98749725Y-117243640D01*
X98739529Y-117240327D01*
X98570094Y-117226495D01*
X98570085Y-117226496D01*
X98402026Y-117252112D01*
X98402024Y-117252113D01*
X98308661Y-117288263D01*
X98308646Y-117288270D01*
X97832485Y-117530887D01*
X97832483Y-117530888D01*
X97748359Y-117585171D01*
X97748356Y-117585173D01*
X97748355Y-117585173D01*
X97748355Y-117585174D01*
X97628844Y-117706085D01*
X97628842Y-117706087D01*
X97628841Y-117706089D01*
X97628839Y-117706090D01*
X97540438Y-117851294D01*
X97540436Y-117851298D01*
X97537132Y-117861468D01*
X97494446Y-117927193D01*
X97424616Y-117962770D01*
X97346358Y-117958667D01*
X97336193Y-117955364D01*
X97336190Y-117955363D01*
X97166756Y-117941531D01*
X97166747Y-117941532D01*
X96998688Y-117967148D01*
X96998686Y-117967149D01*
X96905323Y-118003299D01*
X96905308Y-118003306D01*
X96429147Y-118245923D01*
X96429145Y-118245924D01*
X96345021Y-118300207D01*
X96345018Y-118300209D01*
X96345017Y-118300209D01*
X96345017Y-118300210D01*
X96225506Y-118421121D01*
X96225504Y-118421123D01*
X96225503Y-118421125D01*
X96225501Y-118421126D01*
X96137100Y-118566329D01*
X96133914Y-118576138D01*
X96091230Y-118641864D01*
X96021401Y-118677444D01*
X95989924Y-118680752D01*
X95869583Y-118680752D01*
X95694059Y-118715665D01*
X95528726Y-118784149D01*
X95379926Y-118883574D01*
X95253384Y-119010116D01*
X95153959Y-119158916D01*
X95085475Y-119324249D01*
X95059912Y-119452767D01*
X95050562Y-119499773D01*
X83270334Y-119499773D01*
X83557217Y-119455365D01*
X83572479Y-119452767D01*
X84857887Y-119213908D01*
X84873064Y-119210850D01*
X86150687Y-118933349D01*
X86165766Y-118929835D01*
X87434442Y-118613943D01*
X87449407Y-118609976D01*
X88707984Y-118255982D01*
X88722823Y-118251566D01*
X89970156Y-117859790D01*
X89984855Y-117854929D01*
X91219810Y-117425728D01*
X91234356Y-117420425D01*
X92455810Y-116954189D01*
X92470189Y-116948451D01*
X93677033Y-116445604D01*
X93691233Y-116439434D01*
X94882369Y-115900433D01*
X94896377Y-115893838D01*
X96070722Y-115319172D01*
X96084524Y-115312159D01*
X97241012Y-114702352D01*
X97254597Y-114694925D01*
X98392175Y-114050531D01*
X98405529Y-114042698D01*
X99523163Y-113364302D01*
X99536275Y-113356070D01*
X100632950Y-112644290D01*
X100645809Y-112635666D01*
X101720527Y-111891147D01*
X101733119Y-111882140D01*
X102492271Y-111321625D01*
X102572475Y-111262407D01*
X107500417Y-111262407D01*
X107500417Y-111441365D01*
X107507101Y-111474969D01*
X107535330Y-111616888D01*
X107603814Y-111782221D01*
X107703239Y-111931021D01*
X107829781Y-112057563D01*
X107978581Y-112156988D01*
X108143914Y-112225472D01*
X108143916Y-112225472D01*
X108143917Y-112225473D01*
X108319438Y-112260386D01*
X108498396Y-112260386D01*
X108673917Y-112225473D01*
X108839253Y-112156988D01*
X108988052Y-112057564D01*
X109114595Y-111931021D01*
X109214019Y-111782222D01*
X109282504Y-111616886D01*
X109284663Y-111609770D01*
X109287205Y-111610541D01*
X109316108Y-111551942D01*
X109381273Y-111508405D01*
X109429931Y-111500373D01*
X109435072Y-111500373D01*
X109435073Y-111500373D01*
X109600496Y-111461167D01*
X109752420Y-111384868D01*
X109830046Y-111321633D01*
X110207938Y-110943740D01*
X110271174Y-110866114D01*
X110347473Y-110714190D01*
X110386679Y-110548767D01*
X110386679Y-110538079D01*
X110406963Y-110462379D01*
X110462379Y-110406963D01*
X110538079Y-110386679D01*
X110548766Y-110386679D01*
X110548767Y-110386679D01*
X110714190Y-110347473D01*
X110866114Y-110271174D01*
X110943740Y-110207939D01*
X111321632Y-109830046D01*
X111384868Y-109752420D01*
X111461167Y-109600496D01*
X111500373Y-109435073D01*
X111500373Y-109427181D01*
X111520657Y-109351481D01*
X111576073Y-109296065D01*
X111613435Y-109282005D01*
X111613201Y-109281231D01*
X111620311Y-109279073D01*
X111620315Y-109279073D01*
X111785651Y-109210588D01*
X111934450Y-109111164D01*
X112060993Y-108984621D01*
X112160417Y-108835822D01*
X112228902Y-108670486D01*
X112263815Y-108494965D01*
X112263815Y-108316007D01*
X112228902Y-108140486D01*
X112160417Y-107975150D01*
X112060993Y-107826351D01*
X111934450Y-107699808D01*
X111848953Y-107642681D01*
X111785650Y-107600383D01*
X111620317Y-107531899D01*
X111620318Y-107531899D01*
X111444794Y-107496986D01*
X111265836Y-107496986D01*
X111090312Y-107531899D01*
X110924979Y-107600383D01*
X110776179Y-107699808D01*
X110649637Y-107826350D01*
X110550212Y-107975150D01*
X110481727Y-108140485D01*
X110479569Y-108147602D01*
X110477903Y-108147096D01*
X110447443Y-108208857D01*
X110382279Y-108252394D01*
X110333619Y-108260427D01*
X110325724Y-108260427D01*
X110160302Y-108299633D01*
X110008377Y-108375933D01*
X109930762Y-108439159D01*
X109930746Y-108439174D01*
X109552870Y-108817051D01*
X109552863Y-108817058D01*
X109552862Y-108817060D01*
X109489626Y-108894686D01*
X109464193Y-108945327D01*
X109413327Y-109046608D01*
X109374121Y-109212030D01*
X109374121Y-109222721D01*
X109353837Y-109298421D01*
X109298421Y-109353837D01*
X109222721Y-109374121D01*
X109212030Y-109374121D01*
X109046608Y-109413327D01*
X108894683Y-109489627D01*
X108817068Y-109552853D01*
X108817052Y-109552868D01*
X108439176Y-109930745D01*
X108439169Y-109930752D01*
X108439168Y-109930754D01*
X108375932Y-110008380D01*
X108350499Y-110059021D01*
X108299633Y-110160302D01*
X108260427Y-110325724D01*
X108260427Y-110330872D01*
X108240143Y-110406572D01*
X108184727Y-110461988D01*
X108150643Y-110474822D01*
X108151042Y-110476137D01*
X108143919Y-110478297D01*
X107978582Y-110546782D01*
X107829781Y-110646208D01*
X107703239Y-110772750D01*
X107603814Y-110921550D01*
X107535330Y-111086883D01*
X107526123Y-111133171D01*
X107500417Y-111262407D01*
X102572475Y-111262407D01*
X102747510Y-111133171D01*
X102747512Y-111133170D01*
X102784872Y-111105585D01*
X102784887Y-111105573D01*
X102784904Y-111105561D01*
X102797219Y-111096178D01*
X103825115Y-110288244D01*
X103837142Y-110278494D01*
X104840213Y-109439938D01*
X104851939Y-109429830D01*
X105829275Y-108561417D01*
X105840693Y-108550960D01*
X106791405Y-107653478D01*
X106802502Y-107642681D01*
X106814820Y-107630330D01*
X107725700Y-106716970D01*
X107725725Y-106716945D01*
X107736490Y-106705820D01*
X108631386Y-105752673D01*
X108631419Y-105752637D01*
X108641792Y-105741250D01*
X108803220Y-105558576D01*
X109507566Y-104761535D01*
X109517642Y-104749781D01*
X110353468Y-103744435D01*
X110363186Y-103732382D01*
X111168325Y-102702294D01*
X111177674Y-102689953D01*
X111951392Y-101636062D01*
X111960365Y-101623445D01*
X112701960Y-100546707D01*
X112710549Y-100533826D01*
X113324480Y-99582260D01*
X116789049Y-99582260D01*
X116789049Y-99761218D01*
X116800686Y-99819725D01*
X116823962Y-99936741D01*
X116892446Y-100102074D01*
X116991871Y-100250874D01*
X117118413Y-100377416D01*
X117267213Y-100476841D01*
X117432546Y-100545325D01*
X117432548Y-100545325D01*
X117432549Y-100545326D01*
X117608070Y-100580239D01*
X117787028Y-100580239D01*
X117962549Y-100545326D01*
X118127885Y-100476841D01*
X118276684Y-100377417D01*
X118403227Y-100250874D01*
X118502651Y-100102075D01*
X118571136Y-99936739D01*
X118606049Y-99761218D01*
X118606049Y-99640875D01*
X118626333Y-99565175D01*
X118681749Y-99509759D01*
X118710659Y-99496887D01*
X118720468Y-99493700D01*
X118816518Y-99435224D01*
X118865673Y-99405298D01*
X118865673Y-99405297D01*
X118865679Y-99405294D01*
X118986590Y-99285783D01*
X119040876Y-99201655D01*
X119283497Y-98725482D01*
X119319650Y-98632115D01*
X119319651Y-98632112D01*
X119332459Y-98548082D01*
X119345268Y-98464049D01*
X119331436Y-98294607D01*
X119328132Y-98284441D01*
X119324030Y-98206179D01*
X119359608Y-98136350D01*
X119425329Y-98093667D01*
X119435504Y-98090362D01*
X119542028Y-98025508D01*
X119580709Y-98001960D01*
X119580709Y-98001959D01*
X119580715Y-98001956D01*
X119701626Y-97882445D01*
X119755912Y-97798317D01*
X119998533Y-97322144D01*
X120034686Y-97228777D01*
X120034687Y-97228774D01*
X120049976Y-97128466D01*
X120060304Y-97060711D01*
X120046472Y-96891269D01*
X120043159Y-96881072D01*
X120039057Y-96802809D01*
X120074637Y-96732981D01*
X120103034Y-96708403D01*
X120168386Y-96664737D01*
X120294929Y-96538194D01*
X120394353Y-96389395D01*
X120462838Y-96224059D01*
X120497751Y-96048538D01*
X120497751Y-95869580D01*
X120462838Y-95694059D01*
X120394353Y-95528723D01*
X120294929Y-95379924D01*
X120168386Y-95253381D01*
X120019587Y-95153957D01*
X120019588Y-95153957D01*
X120019586Y-95153956D01*
X119854253Y-95085472D01*
X119854254Y-95085472D01*
X119678730Y-95050559D01*
X119499772Y-95050559D01*
X119324248Y-95085472D01*
X119158915Y-95153956D01*
X119010115Y-95253381D01*
X118883573Y-95379923D01*
X118784148Y-95528723D01*
X118715664Y-95694056D01*
X118680751Y-95869580D01*
X118680751Y-95989924D01*
X118660467Y-96065624D01*
X118605051Y-96121040D01*
X118576139Y-96133913D01*
X118566333Y-96137099D01*
X118566330Y-96137100D01*
X118421126Y-96225501D01*
X118421120Y-96225507D01*
X118300212Y-96345013D01*
X118260832Y-96406042D01*
X118245924Y-96429145D01*
X118117402Y-96681386D01*
X118003298Y-96905328D01*
X117967149Y-96998684D01*
X117967148Y-96998687D01*
X117941532Y-97166747D01*
X117941531Y-97166756D01*
X117955363Y-97336190D01*
X117958667Y-97346358D01*
X117962769Y-97424621D01*
X117927190Y-97494450D01*
X117861468Y-97537132D01*
X117851298Y-97540436D01*
X117851294Y-97540438D01*
X117706090Y-97628839D01*
X117706084Y-97628845D01*
X117585176Y-97748351D01*
X117552934Y-97798318D01*
X117530888Y-97832483D01*
X117291342Y-98302622D01*
X117288262Y-98308666D01*
X117252113Y-98402022D01*
X117252112Y-98402025D01*
X117226496Y-98570085D01*
X117226495Y-98570094D01*
X117240327Y-98739529D01*
X117243641Y-98749728D01*
X117247741Y-98827991D01*
X117212160Y-98897819D01*
X117183764Y-98922395D01*
X117118414Y-98966060D01*
X116991871Y-99092603D01*
X116892446Y-99241403D01*
X116823962Y-99406736D01*
X116798649Y-99533996D01*
X116789049Y-99582260D01*
X113324480Y-99582260D01*
X113419347Y-99435221D01*
X113427543Y-99422086D01*
X114102899Y-98302613D01*
X114110696Y-98289238D01*
X114115033Y-98281534D01*
X114272398Y-98001960D01*
X114751997Y-97149913D01*
X114759387Y-97136308D01*
X115366049Y-95978168D01*
X115373025Y-95964347D01*
X115839832Y-95003808D01*
X115944505Y-94788428D01*
X115948275Y-94780362D01*
X115951054Y-94774418D01*
X116486816Y-93581822D01*
X116492947Y-93567606D01*
X116992513Y-92359400D01*
X116998212Y-92345005D01*
X117001361Y-92336689D01*
X117067789Y-92161227D01*
X117461127Y-91122288D01*
X117466390Y-91107728D01*
X117892234Y-89871611D01*
X117897055Y-89856898D01*
X118285440Y-88608506D01*
X118289816Y-88593655D01*
X118640389Y-87334121D01*
X118644315Y-87319145D01*
X118646437Y-87310525D01*
X118861089Y-86438339D01*
X118956758Y-86049614D01*
X118960231Y-86034526D01*
X118960239Y-86034492D01*
X119044118Y-85643182D01*
X122013965Y-85643182D01*
X122013965Y-85822139D01*
X122048878Y-85997663D01*
X122117362Y-86162996D01*
X122216787Y-86311796D01*
X122343329Y-86438338D01*
X122492129Y-86537763D01*
X122657462Y-86606247D01*
X122657464Y-86606247D01*
X122657465Y-86606248D01*
X122832986Y-86641161D01*
X123011944Y-86641161D01*
X123187465Y-86606248D01*
X123352801Y-86537763D01*
X123501600Y-86438339D01*
X123628143Y-86311796D01*
X123727567Y-86162997D01*
X123796052Y-85997661D01*
X123830965Y-85822140D01*
X123830965Y-85643182D01*
X123796052Y-85467661D01*
X123796051Y-85467658D01*
X123796051Y-85467657D01*
X123781686Y-85432979D01*
X123771455Y-85355279D01*
X123801445Y-85282874D01*
X123832567Y-85252554D01*
X123859117Y-85233265D01*
X123859119Y-85233262D01*
X123859121Y-85233261D01*
X123927623Y-85153526D01*
X123969903Y-85104313D01*
X124047964Y-84953287D01*
X124073596Y-84856502D01*
X124157197Y-84328661D01*
X124162729Y-84228692D01*
X124135158Y-84060935D01*
X124069643Y-83904060D01*
X124063359Y-83895412D01*
X124035275Y-83822250D01*
X124047533Y-83744845D01*
X124096850Y-83683940D01*
X124105501Y-83677655D01*
X124128515Y-83650868D01*
X124191970Y-83577007D01*
X124216287Y-83548703D01*
X124294348Y-83397677D01*
X124319980Y-83300892D01*
X124403581Y-82773051D01*
X124409113Y-82673082D01*
X124381542Y-82505325D01*
X124316027Y-82348450D01*
X124306295Y-82335056D01*
X124278212Y-82261893D01*
X124290473Y-82184488D01*
X124302895Y-82161961D01*
X124379404Y-82047458D01*
X124447889Y-81882122D01*
X124482802Y-81706601D01*
X124482802Y-81527643D01*
X124447889Y-81352122D01*
X124446289Y-81348260D01*
X124379404Y-81186786D01*
X124279980Y-81037987D01*
X124153437Y-80911444D01*
X124004638Y-80812020D01*
X124004639Y-80812020D01*
X124004637Y-80812019D01*
X123839304Y-80743535D01*
X123839305Y-80743535D01*
X123663781Y-80708622D01*
X123484823Y-80708622D01*
X123309299Y-80743535D01*
X123143966Y-80812019D01*
X122995166Y-80911444D01*
X122868624Y-81037986D01*
X122769199Y-81186786D01*
X122700715Y-81352119D01*
X122665802Y-81527643D01*
X122665802Y-81706600D01*
X122700715Y-81882124D01*
X122715133Y-81916931D01*
X122725363Y-81994631D01*
X122695372Y-82067036D01*
X122677869Y-82086194D01*
X122675278Y-82088581D01*
X122564492Y-82217534D01*
X122486435Y-82368550D01*
X122486430Y-82368563D01*
X122460803Y-82465330D01*
X122460798Y-82465353D01*
X122377199Y-82993182D01*
X122371667Y-83093154D01*
X122399237Y-83260909D01*
X122464752Y-83417785D01*
X122464753Y-83417786D01*
X122471037Y-83426436D01*
X122499121Y-83499602D01*
X122486859Y-83577007D01*
X122437547Y-83637905D01*
X122428893Y-83644192D01*
X122318108Y-83773144D01*
X122240051Y-83924160D01*
X122240046Y-83924173D01*
X122214419Y-84020940D01*
X122214414Y-84020963D01*
X122130815Y-84548792D01*
X122125283Y-84648764D01*
X122152853Y-84816519D01*
X122218368Y-84973395D01*
X122222688Y-84981082D01*
X122221533Y-84981730D01*
X122246380Y-85046463D01*
X122234118Y-85123868D01*
X122220008Y-85146733D01*
X122220919Y-85147342D01*
X122117362Y-85302325D01*
X122048878Y-85467658D01*
X122013965Y-85643182D01*
X119044118Y-85643182D01*
X119052515Y-85604011D01*
X119140732Y-85192466D01*
X119234259Y-84756154D01*
X119237276Y-84740969D01*
X119472641Y-83454917D01*
X119475198Y-83439648D01*
X119671686Y-82147085D01*
X119673782Y-82131745D01*
X119674855Y-82122904D01*
X119747058Y-81527643D01*
X119831214Y-80833845D01*
X119832153Y-80824984D01*
X119832843Y-80818481D01*
X119833780Y-80808158D01*
X119951078Y-79516394D01*
X119952245Y-79500956D01*
X120031171Y-78195928D01*
X120031576Y-78187015D01*
X120031871Y-78180514D01*
X120032141Y-78171602D01*
X120071420Y-76873648D01*
X120071655Y-76858167D01*
X120071788Y-75550754D01*
X120071556Y-75535274D01*
X120032274Y-74228452D01*
X120031576Y-74212985D01*
X119952916Y-72907941D01*
X119951751Y-72892503D01*
X119839382Y-71652217D01*
X119833787Y-71590462D01*
X119832844Y-71581551D01*
X119832154Y-71575027D01*
X119674987Y-70277096D01*
X119672895Y-70261756D01*
X119476670Y-68969153D01*
X119474115Y-68953883D01*
X119239012Y-67667783D01*
X119235999Y-67652596D01*
X119014437Y-66617962D01*
X122023101Y-66617962D01*
X122023101Y-66796919D01*
X122058014Y-66972443D01*
X122108128Y-67093427D01*
X122126499Y-67137777D01*
X122199835Y-67247533D01*
X122216669Y-67272726D01*
X122241861Y-67346938D01*
X122226572Y-67423802D01*
X122213272Y-67445828D01*
X122196996Y-67468230D01*
X122196994Y-67468233D01*
X122131479Y-67625109D01*
X122103909Y-67792864D01*
X122109440Y-67892833D01*
X122193040Y-68420664D01*
X122193043Y-68420679D01*
X122218673Y-68517458D01*
X122296734Y-68668485D01*
X122407520Y-68797437D01*
X122407523Y-68797440D01*
X122416167Y-68803720D01*
X122465487Y-68864626D01*
X122477747Y-68942032D01*
X122449663Y-69015193D01*
X122443379Y-69023842D01*
X122443378Y-69023843D01*
X122377863Y-69180719D01*
X122350293Y-69348474D01*
X122355824Y-69448443D01*
X122439424Y-69976274D01*
X122439427Y-69976289D01*
X122465057Y-70073068D01*
X122543118Y-70224095D01*
X122653904Y-70353047D01*
X122653909Y-70353051D01*
X122665597Y-70361543D01*
X122714918Y-70422447D01*
X122727179Y-70499853D01*
X122716484Y-70541966D01*
X122709851Y-70557979D01*
X122674938Y-70733501D01*
X122674938Y-70912458D01*
X122709851Y-71087982D01*
X122778335Y-71253315D01*
X122778336Y-71253316D01*
X122877760Y-71402115D01*
X123004303Y-71528658D01*
X123096741Y-71590423D01*
X123153102Y-71628082D01*
X123318435Y-71696566D01*
X123318437Y-71696566D01*
X123318438Y-71696567D01*
X123493959Y-71731480D01*
X123672917Y-71731480D01*
X123848438Y-71696567D01*
X124013774Y-71628082D01*
X124162573Y-71528658D01*
X124289116Y-71402115D01*
X124388540Y-71253316D01*
X124457025Y-71087980D01*
X124491938Y-70912459D01*
X124491938Y-70733501D01*
X124457025Y-70557980D01*
X124438654Y-70513630D01*
X124400885Y-70422447D01*
X124388540Y-70392644D01*
X124362083Y-70353048D01*
X124297764Y-70256787D01*
X124272572Y-70182576D01*
X124287861Y-70105712D01*
X124291662Y-70098501D01*
X124294649Y-70093183D01*
X124294653Y-70093179D01*
X124360168Y-69936304D01*
X124387739Y-69768547D01*
X124382208Y-69668579D01*
X124298606Y-69140738D01*
X124272974Y-69043952D01*
X124194913Y-68892926D01*
X124084127Y-68763974D01*
X124075478Y-68757690D01*
X124026159Y-68696783D01*
X124013901Y-68619378D01*
X124041985Y-68546217D01*
X124048269Y-68537569D01*
X124113784Y-68380694D01*
X124141355Y-68212937D01*
X124135824Y-68112969D01*
X124052222Y-67585128D01*
X124026590Y-67488342D01*
X123948529Y-67337316D01*
X123837743Y-67208364D01*
X123837736Y-67208358D01*
X123834159Y-67205759D01*
X123831930Y-67203006D01*
X123831257Y-67202386D01*
X123831347Y-67202287D01*
X123784840Y-67144853D01*
X123772582Y-67067447D01*
X123783276Y-67025339D01*
X123805188Y-66972441D01*
X123840101Y-66796920D01*
X123840101Y-66617962D01*
X123805188Y-66442441D01*
X123770658Y-66359080D01*
X123736703Y-66277105D01*
X123637278Y-66128305D01*
X123510736Y-66001763D01*
X123361936Y-65902338D01*
X123196603Y-65833854D01*
X123196604Y-65833854D01*
X123021080Y-65798941D01*
X122842122Y-65798941D01*
X122666598Y-65833854D01*
X122501265Y-65902338D01*
X122352465Y-66001763D01*
X122225923Y-66128305D01*
X122126498Y-66277105D01*
X122058014Y-66442438D01*
X122023101Y-66617962D01*
X119014437Y-66617962D01*
X118962230Y-66374168D01*
X118961896Y-66372718D01*
X118958772Y-66359130D01*
X118938603Y-66277105D01*
X118646575Y-65089486D01*
X118642652Y-65074509D01*
X118292335Y-63814904D01*
X118287962Y-63800052D01*
X117899831Y-62551580D01*
X117895013Y-62536867D01*
X117469421Y-61300664D01*
X117464161Y-61286103D01*
X117460986Y-61277712D01*
X117038740Y-60161733D01*
X117001494Y-60063292D01*
X116995797Y-60048896D01*
X116496477Y-58840588D01*
X116490350Y-58826370D01*
X115954830Y-57633665D01*
X115948276Y-57619638D01*
X115377043Y-56443619D01*
X115370069Y-56429797D01*
X115365897Y-56421829D01*
X114967523Y-55660942D01*
X114763643Y-55271534D01*
X114756256Y-55257927D01*
X114115187Y-54118472D01*
X114107393Y-54105095D01*
X113432265Y-52985484D01*
X113424071Y-52972348D01*
X113257147Y-52713509D01*
X113257147Y-52713506D01*
X113209030Y-52638894D01*
X116758803Y-52638894D01*
X116758803Y-52817851D01*
X116793716Y-52993375D01*
X116862200Y-53158708D01*
X116961625Y-53307508D01*
X117088167Y-53434050D01*
X117088173Y-53434055D01*
X117147898Y-53473962D01*
X117199572Y-53532883D01*
X117214861Y-53609748D01*
X117207776Y-53646628D01*
X117203364Y-53660206D01*
X117189532Y-53829641D01*
X117189533Y-53829650D01*
X117215149Y-53997709D01*
X117215150Y-53997711D01*
X117251300Y-54091074D01*
X117251307Y-54091089D01*
X117493924Y-54567250D01*
X117493925Y-54567252D01*
X117538190Y-54635852D01*
X117548211Y-54651381D01*
X117669122Y-54770892D01*
X117669126Y-54770894D01*
X117669127Y-54770896D01*
X117814331Y-54859297D01*
X117814333Y-54859298D01*
X117820479Y-54861295D01*
X117824498Y-54862601D01*
X117890225Y-54905283D01*
X117925805Y-54975111D01*
X117921705Y-55053372D01*
X117918400Y-55063541D01*
X117918400Y-55063544D01*
X117904568Y-55232979D01*
X117904569Y-55232988D01*
X117930185Y-55401047D01*
X117930186Y-55401049D01*
X117966336Y-55494412D01*
X117966343Y-55494427D01*
X118208960Y-55970588D01*
X118208961Y-55970590D01*
X118234855Y-56010718D01*
X118263247Y-56054719D01*
X118384158Y-56174230D01*
X118384162Y-56174232D01*
X118384163Y-56174234D01*
X118529364Y-56262633D01*
X118529369Y-56262636D01*
X118545895Y-56268005D01*
X118611621Y-56310687D01*
X118647201Y-56380515D01*
X118650510Y-56411995D01*
X118650510Y-56530532D01*
X118685423Y-56706056D01*
X118753907Y-56871389D01*
X118853332Y-57020189D01*
X118979874Y-57146731D01*
X119128674Y-57246156D01*
X119294007Y-57314640D01*
X119294009Y-57314640D01*
X119294010Y-57314641D01*
X119469531Y-57349554D01*
X119648489Y-57349554D01*
X119824010Y-57314641D01*
X119989346Y-57246156D01*
X120138145Y-57146732D01*
X120264688Y-57020189D01*
X120364112Y-56871390D01*
X120432597Y-56706054D01*
X120467510Y-56530533D01*
X120467510Y-56351575D01*
X120432597Y-56176054D01*
X120431842Y-56174232D01*
X120364112Y-56010718D01*
X120343846Y-55980388D01*
X120264688Y-55861919D01*
X120138145Y-55735376D01*
X120138139Y-55735371D01*
X120067171Y-55687952D01*
X120015497Y-55629031D01*
X120000208Y-55552166D01*
X120007296Y-55515278D01*
X120009509Y-55508466D01*
X120023341Y-55339030D01*
X120023340Y-55339027D01*
X120023341Y-55339025D01*
X120007177Y-55232979D01*
X119997724Y-55170962D01*
X119997723Y-55170960D01*
X119961573Y-55077597D01*
X119961566Y-55077582D01*
X119718949Y-54601421D01*
X119718948Y-54601419D01*
X119670981Y-54527083D01*
X119664663Y-54517291D01*
X119543752Y-54397780D01*
X119543746Y-54397776D01*
X119543746Y-54397775D01*
X119398542Y-54309374D01*
X119398539Y-54309373D01*
X119388371Y-54306069D01*
X119322645Y-54263384D01*
X119287067Y-54193555D01*
X119291169Y-54115294D01*
X119294473Y-54105129D01*
X119307505Y-53945488D01*
X119308305Y-53935692D01*
X119308304Y-53935689D01*
X119308305Y-53935687D01*
X119292141Y-53829641D01*
X119282688Y-53767624D01*
X119282687Y-53767622D01*
X119246537Y-53674259D01*
X119246530Y-53674244D01*
X119003913Y-53198083D01*
X119003912Y-53198081D01*
X118955945Y-53123745D01*
X118949627Y-53113953D01*
X118828716Y-52994442D01*
X118828710Y-52994438D01*
X118828710Y-52994437D01*
X118683506Y-52906036D01*
X118683502Y-52906034D01*
X118680408Y-52905029D01*
X118678225Y-52903611D01*
X118675494Y-52902357D01*
X118675677Y-52901956D01*
X118614684Y-52862341D01*
X118579109Y-52792510D01*
X118575803Y-52761042D01*
X118575803Y-52638894D01*
X118540889Y-52463370D01*
X118472405Y-52298037D01*
X118464267Y-52285857D01*
X118372981Y-52149238D01*
X118246438Y-52022695D01*
X118097639Y-51923271D01*
X118097640Y-51923271D01*
X118097638Y-51923270D01*
X117932305Y-51854786D01*
X117932306Y-51854786D01*
X117756782Y-51819873D01*
X117577824Y-51819873D01*
X117402300Y-51854786D01*
X117236967Y-51923270D01*
X117088167Y-52022695D01*
X116961625Y-52149237D01*
X116862200Y-52298037D01*
X116793716Y-52463370D01*
X116758803Y-52638894D01*
X113209030Y-52638894D01*
X112715523Y-51873640D01*
X112715496Y-51873599D01*
X112706910Y-51860716D01*
X112188421Y-51107582D01*
X111965544Y-50783840D01*
X111956565Y-50771209D01*
X111183060Y-49717160D01*
X111173705Y-49704807D01*
X110368771Y-48674550D01*
X110359083Y-48662529D01*
X109523456Y-47657005D01*
X109513360Y-47645222D01*
X108647840Y-46665393D01*
X108641790Y-46658749D01*
X108637395Y-46653922D01*
X107742693Y-45700593D01*
X107731929Y-45689465D01*
X106808894Y-44763542D01*
X106808891Y-44763539D01*
X106808873Y-44763521D01*
X106797796Y-44752740D01*
X106544325Y-44513363D01*
X105847271Y-43855068D01*
X105835856Y-43844608D01*
X104858697Y-42975996D01*
X104853419Y-42971445D01*
X104846976Y-42965889D01*
X103844094Y-42127147D01*
X103844091Y-42127144D01*
X103844070Y-42127127D01*
X103838780Y-42122837D01*
X103832053Y-42117380D01*
X102804294Y-41309216D01*
X102792028Y-41299867D01*
X102589841Y-41150520D01*
X102347567Y-40971562D01*
X107522391Y-40971562D01*
X107522391Y-41150519D01*
X107557304Y-41326043D01*
X107625788Y-41491376D01*
X107725213Y-41640176D01*
X107851755Y-41766718D01*
X108000556Y-41866144D01*
X108165012Y-41934264D01*
X108227188Y-41981973D01*
X108257179Y-42054377D01*
X108258202Y-42069995D01*
X108258474Y-42072322D01*
X108297680Y-42237744D01*
X108373980Y-42389669D01*
X108437206Y-42467284D01*
X108437211Y-42467289D01*
X108437214Y-42467293D01*
X108815107Y-42845185D01*
X108892733Y-42908421D01*
X109044657Y-42984720D01*
X109210080Y-43023926D01*
X109220768Y-43023926D01*
X109296468Y-43044210D01*
X109351884Y-43099626D01*
X109372168Y-43175326D01*
X109372168Y-43186016D01*
X109411374Y-43351438D01*
X109487674Y-43503363D01*
X109550900Y-43580978D01*
X109550905Y-43580983D01*
X109550908Y-43580987D01*
X109928801Y-43958879D01*
X110006427Y-44022115D01*
X110158351Y-44098414D01*
X110323774Y-44137620D01*
X110352637Y-44137620D01*
X110428337Y-44157904D01*
X110483753Y-44213320D01*
X110501128Y-44259486D01*
X110503704Y-44272439D01*
X110503705Y-44272443D01*
X110572189Y-44437776D01*
X110572190Y-44437777D01*
X110671614Y-44586576D01*
X110798157Y-44713119D01*
X110857460Y-44752744D01*
X110946956Y-44812543D01*
X111112289Y-44881027D01*
X111112291Y-44881027D01*
X111112292Y-44881028D01*
X111287813Y-44915941D01*
X111466771Y-44915941D01*
X111642292Y-44881028D01*
X111807628Y-44812543D01*
X111956427Y-44713119D01*
X112082970Y-44586576D01*
X112182394Y-44437777D01*
X112250879Y-44272441D01*
X112285792Y-44096920D01*
X112285792Y-43917962D01*
X112250879Y-43742441D01*
X112244814Y-43727800D01*
X112182394Y-43577105D01*
X112134425Y-43505314D01*
X112082970Y-43428306D01*
X111956427Y-43301763D01*
X111807628Y-43202339D01*
X111807629Y-43202339D01*
X111807627Y-43202338D01*
X111642293Y-43133854D01*
X111620283Y-43129476D01*
X111549995Y-43094813D01*
X111506455Y-43029651D01*
X111498420Y-42980985D01*
X111498420Y-42962974D01*
X111498419Y-42962971D01*
X111497730Y-42960062D01*
X111459214Y-42797551D01*
X111382915Y-42645627D01*
X111321271Y-42569954D01*
X111319687Y-42568009D01*
X111319683Y-42568005D01*
X111319680Y-42568001D01*
X110941787Y-42190109D01*
X110864161Y-42126873D01*
X110755537Y-42072320D01*
X110712238Y-42050574D01*
X110546816Y-42011368D01*
X110546814Y-42011368D01*
X110536126Y-42011368D01*
X110460426Y-41991084D01*
X110405010Y-41935668D01*
X110384726Y-41859968D01*
X110384726Y-41849280D01*
X110384725Y-41849277D01*
X110345520Y-41683857D01*
X110269221Y-41531933D01*
X110224257Y-41476736D01*
X110205993Y-41454315D01*
X110205989Y-41454311D01*
X110205986Y-41454307D01*
X109828093Y-41076415D01*
X109750467Y-41013179D01*
X109638448Y-40956921D01*
X109598544Y-40936880D01*
X109433115Y-40897672D01*
X109430226Y-40897335D01*
X109428059Y-40896474D01*
X109424539Y-40895640D01*
X109424661Y-40895124D01*
X109357393Y-40868401D01*
X109308784Y-40806926D01*
X109307240Y-40802709D01*
X109235993Y-40630705D01*
X109160594Y-40517862D01*
X109136569Y-40481906D01*
X109010026Y-40355363D01*
X108861227Y-40255939D01*
X108861228Y-40255939D01*
X108861226Y-40255938D01*
X108695893Y-40187454D01*
X108695894Y-40187454D01*
X108520370Y-40152541D01*
X108341412Y-40152541D01*
X108165888Y-40187454D01*
X108000555Y-40255938D01*
X107851755Y-40355363D01*
X107725213Y-40481905D01*
X107625788Y-40630705D01*
X107557304Y-40796038D01*
X107522391Y-40971562D01*
X102347567Y-40971562D01*
X101740374Y-40523053D01*
X101733120Y-40517862D01*
X101727735Y-40514008D01*
X100653240Y-39769322D01*
X100640381Y-39760692D01*
X99941713Y-39307031D01*
X99543830Y-39048676D01*
X99543813Y-39048665D01*
X99543774Y-39048640D01*
X99530716Y-39040440D01*
X98413256Y-38361838D01*
X98399903Y-38354002D01*
X98399871Y-38353983D01*
X97262424Y-37709357D01*
X97262396Y-37709341D01*
X97248836Y-37701925D01*
X96092485Y-37091888D01*
X96078683Y-37084871D01*
X94904445Y-36509962D01*
X94890424Y-36503359D01*
X93699462Y-35964145D01*
X93699446Y-35964138D01*
X93699415Y-35964124D01*
X93685217Y-35957952D01*
X93685197Y-35957943D01*
X93685184Y-35957938D01*
X92478468Y-35454856D01*
X92464095Y-35449115D01*
X91242759Y-34982641D01*
X91242757Y-34982640D01*
X91242738Y-34982633D01*
X91228193Y-34977328D01*
X91228180Y-34977323D01*
X91228165Y-34977318D01*
X89993366Y-34547890D01*
X89993350Y-34547884D01*
X89993325Y-34547876D01*
X89978627Y-34543011D01*
X89978613Y-34543006D01*
X89978584Y-34542997D01*
X88731408Y-34150991D01*
X88716496Y-34146550D01*
X87458053Y-33792318D01*
X87443070Y-33788343D01*
X86174458Y-33472192D01*
X86159373Y-33468674D01*
X84881804Y-33190912D01*
X84866609Y-33187849D01*
X83581274Y-32948733D01*
X83566016Y-32946132D01*
X83121087Y-32877167D01*
X82274056Y-32745873D01*
X82258661Y-32743724D01*
X82188390Y-32734992D01*
X95076076Y-32734992D01*
X95076076Y-32913949D01*
X95110989Y-33089473D01*
X95179473Y-33254806D01*
X95274263Y-33396669D01*
X95278898Y-33403606D01*
X95405441Y-33530149D01*
X95546211Y-33624208D01*
X95554240Y-33629573D01*
X95719573Y-33698057D01*
X95719575Y-33698057D01*
X95719576Y-33698058D01*
X95895097Y-33732971D01*
X96011530Y-33732971D01*
X96087230Y-33753255D01*
X96142646Y-33808671D01*
X96155520Y-33837586D01*
X96162500Y-33859068D01*
X96162500Y-33859069D01*
X96250901Y-34004273D01*
X96250904Y-34004276D01*
X96250906Y-34004279D01*
X96309639Y-34063700D01*
X96370413Y-34125187D01*
X96370415Y-34125188D01*
X96370417Y-34125190D01*
X96454545Y-34179476D01*
X96930718Y-34422097D01*
X96930726Y-34422100D01*
X96930728Y-34422101D01*
X97024084Y-34458250D01*
X97024087Y-34458251D01*
X97131717Y-34474656D01*
X97192151Y-34483868D01*
X97192153Y-34483867D01*
X97192156Y-34483868D01*
X97313181Y-34473988D01*
X97361593Y-34470036D01*
X97371752Y-34466734D01*
X97450014Y-34462629D01*
X97519844Y-34498204D01*
X97562531Y-34563929D01*
X97562533Y-34563934D01*
X97565837Y-34574102D01*
X97565838Y-34574105D01*
X97654239Y-34719309D01*
X97654242Y-34719312D01*
X97654244Y-34719315D01*
X97712977Y-34778736D01*
X97773751Y-34840223D01*
X97773753Y-34840224D01*
X97773755Y-34840226D01*
X97857883Y-34894512D01*
X98334056Y-35137133D01*
X98334064Y-35137136D01*
X98334066Y-35137137D01*
X98427422Y-35173286D01*
X98427425Y-35173287D01*
X98535055Y-35189692D01*
X98595489Y-35198904D01*
X98595491Y-35198903D01*
X98595494Y-35198904D01*
X98689623Y-35191219D01*
X98764931Y-35185072D01*
X98781630Y-35179645D01*
X98859892Y-35175543D01*
X98929721Y-35211120D01*
X98954302Y-35239521D01*
X98991579Y-35295310D01*
X98991580Y-35295311D01*
X99118123Y-35421854D01*
X99153985Y-35445816D01*
X99266922Y-35521278D01*
X99432255Y-35589762D01*
X99432257Y-35589762D01*
X99432258Y-35589763D01*
X99607779Y-35624676D01*
X99786737Y-35624676D01*
X99962258Y-35589763D01*
X100127594Y-35521278D01*
X100276393Y-35421854D01*
X100402936Y-35295311D01*
X100502360Y-35146512D01*
X100570845Y-34981176D01*
X100605758Y-34805655D01*
X100605758Y-34626697D01*
X100570845Y-34451176D01*
X100568930Y-34446554D01*
X100502360Y-34285840D01*
X100431290Y-34179476D01*
X100402936Y-34137041D01*
X100276393Y-34010498D01*
X100127594Y-33911074D01*
X100127595Y-33911074D01*
X100127593Y-33911073D01*
X99962260Y-33842589D01*
X99962261Y-33842589D01*
X99786737Y-33807676D01*
X99662482Y-33807676D01*
X99586782Y-33787392D01*
X99531366Y-33731976D01*
X99522871Y-33712898D01*
X99522778Y-33712941D01*
X99519101Y-33704936D01*
X99519100Y-33704932D01*
X99473221Y-33629573D01*
X99430698Y-33559726D01*
X99430695Y-33559723D01*
X99430694Y-33559721D01*
X99371279Y-33499610D01*
X99311186Y-33438812D01*
X99305764Y-33435313D01*
X99227055Y-33384524D01*
X98750882Y-33141903D01*
X98750877Y-33141901D01*
X98750871Y-33141898D01*
X98657515Y-33105749D01*
X98657512Y-33105748D01*
X98489452Y-33080132D01*
X98489443Y-33080131D01*
X98320008Y-33093963D01*
X98320005Y-33093963D01*
X98309836Y-33097268D01*
X98231573Y-33101368D01*
X98161746Y-33065786D01*
X98119065Y-33000061D01*
X98115762Y-32989897D01*
X98115761Y-32989894D01*
X98027360Y-32844690D01*
X98027357Y-32844687D01*
X98027356Y-32844685D01*
X97967941Y-32784574D01*
X97907848Y-32723776D01*
X97907845Y-32723774D01*
X97823717Y-32669488D01*
X97347544Y-32426867D01*
X97347539Y-32426865D01*
X97347533Y-32426862D01*
X97254177Y-32390713D01*
X97254174Y-32390712D01*
X97086114Y-32365096D01*
X97086105Y-32365095D01*
X96916669Y-32378927D01*
X96912971Y-32380129D01*
X96909862Y-32380291D01*
X96908025Y-32380660D01*
X96907971Y-32380390D01*
X96834708Y-32384226D01*
X96764881Y-32348643D01*
X96740310Y-32320249D01*
X96690258Y-32245341D01*
X96690253Y-32245335D01*
X96563711Y-32118793D01*
X96414911Y-32019368D01*
X96249578Y-31950884D01*
X96249579Y-31950884D01*
X96074055Y-31915971D01*
X95895097Y-31915971D01*
X95719573Y-31950884D01*
X95554240Y-32019368D01*
X95405440Y-32118793D01*
X95278898Y-32245335D01*
X95179473Y-32394135D01*
X95110989Y-32559468D01*
X95076076Y-32734992D01*
X82188390Y-32734992D01*
X80961262Y-32582507D01*
X80945852Y-32580827D01*
X80291525Y-32519502D01*
X80291464Y-32519497D01*
X80142028Y-32505488D01*
X80142031Y-32505488D01*
X80080068Y-32503439D01*
X79772924Y-32511842D01*
X79772883Y-32511845D01*
X79711146Y-32517278D01*
X79711133Y-32517279D01*
X79711132Y-32517280D01*
X79464458Y-32554103D01*
X79407216Y-32562648D01*
X79407189Y-32562653D01*
X79346572Y-32575483D01*
X79346549Y-32575489D01*
X79050306Y-32657162D01*
X78991651Y-32677216D01*
X78991645Y-32677219D01*
X78707414Y-32794002D01*
X78651609Y-32820976D01*
X78651605Y-32820978D01*
X78383516Y-32971173D01*
X78331347Y-33004692D01*
X78083317Y-33186107D01*
X78035575Y-33225664D01*
X77811222Y-33435652D01*
X77811208Y-33435666D01*
X77768622Y-33480648D01*
X77768599Y-33480674D01*
X77571197Y-33716169D01*
X77534299Y-33766017D01*
X77366741Y-34023559D01*
X77366725Y-34023584D01*
X77336113Y-34077502D01*
X77200815Y-34353372D01*
X77200807Y-34353391D01*
X77176913Y-34410613D01*
X77176910Y-34410620D01*
X77176906Y-34410631D01*
X77075842Y-34700818D01*
X77059030Y-34760471D01*
X76993677Y-35060734D01*
X76984169Y-35122032D01*
X76955488Y-35427972D01*
X76953439Y-35489930D01*
X76956443Y-35599690D01*
X76956500Y-35603831D01*
X76956500Y-116563826D01*
X76955915Y-116577123D01*
X76953627Y-116603063D01*
X76953627Y-116603064D01*
X76945162Y-116910221D01*
X75446555Y-116910221D01*
X75446558Y-116910122D01*
X75446560Y-116910070D01*
X75443557Y-116800304D01*
X75443500Y-116796167D01*
X75443500Y-97424974D01*
X75455024Y-97367038D01*
X75495660Y-97268935D01*
X75527402Y-97109353D01*
X75527402Y-96946647D01*
X75495660Y-96787065D01*
X75495659Y-96787062D01*
X75495659Y-96787061D01*
X75455025Y-96688962D01*
X75443500Y-96631024D01*
X75443500Y-35836172D01*
X75444085Y-35822874D01*
X75444426Y-35818999D01*
X75446372Y-35796943D01*
X75454838Y-35489777D01*
X75452801Y-35427804D01*
X75424182Y-35121856D01*
X75422911Y-35113654D01*
X75421426Y-35104066D01*
X75414689Y-35060577D01*
X75349400Y-34760310D01*
X75332646Y-34700818D01*
X75332592Y-34700625D01*
X75306861Y-34626697D01*
X75231584Y-34410413D01*
X75207703Y-34353189D01*
X75072453Y-34077272D01*
X75041847Y-34023341D01*
X74874324Y-33765738D01*
X74837441Y-33715891D01*
X74828258Y-33704932D01*
X74760620Y-33624208D01*
X74640089Y-33480359D01*
X74597468Y-33435321D01*
X74597464Y-33435317D01*
X74597460Y-33435313D01*
X74373179Y-33225307D01*
X74373177Y-33225305D01*
X74373165Y-33225294D01*
X74363530Y-33217308D01*
X74325429Y-33185724D01*
X74077435Y-33004259D01*
X74025294Y-32970744D01*
X74025280Y-32970735D01*
X73757232Y-32820490D01*
X73701408Y-32793492D01*
X73701401Y-32793489D01*
X73701388Y-32793483D01*
X73417229Y-32676662D01*
X73417183Y-32676645D01*
X73358550Y-32656585D01*
X73358526Y-32656578D01*
X73062360Y-32574860D01*
X73062332Y-32574853D01*
X73062320Y-32574850D01*
X73037269Y-32569541D01*
X73001675Y-32561999D01*
X73001652Y-32561995D01*
X72697748Y-32516565D01*
X72640512Y-32511517D01*
X72635981Y-32511118D01*
X72635980Y-32511117D01*
X72635969Y-32511117D01*
X72328816Y-32502652D01*
X72328815Y-32502652D01*
X72323829Y-32502815D01*
X72266859Y-32504688D01*
X72266843Y-32504688D01*
X72266840Y-32504689D01*
X72266837Y-32504689D01*
X72266824Y-32504690D01*
X72113866Y-32518999D01*
X72113862Y-32518999D01*
X71463035Y-32579862D01*
X71447585Y-32581542D01*
X70150173Y-32742494D01*
X70150162Y-32742495D01*
X70150142Y-32742498D01*
X70134808Y-32744636D01*
X70134803Y-32744636D01*
X70134787Y-32744639D01*
X68842791Y-32944633D01*
X68827525Y-32947232D01*
X67542122Y-33186090D01*
X67526900Y-33189157D01*
X66249318Y-33466649D01*
X66234235Y-33470164D01*
X64965607Y-33786044D01*
X64965558Y-33786057D01*
X64950593Y-33790024D01*
X64816538Y-33827729D01*
X63692003Y-34144021D01*
X63677189Y-34148430D01*
X63540035Y-34191509D01*
X62429844Y-34540210D01*
X62429831Y-34540214D01*
X62429816Y-34540219D01*
X62415131Y-34545075D01*
X61180205Y-34974266D01*
X61165656Y-34979570D01*
X59944174Y-35445816D01*
X59929809Y-35451549D01*
X58722993Y-35954385D01*
X58722967Y-35954396D01*
X58718048Y-35956533D01*
X58708745Y-35960575D01*
X57517630Y-36499567D01*
X57503643Y-36506152D01*
X56329242Y-37080845D01*
X56315497Y-37087829D01*
X55159002Y-37697640D01*
X55145395Y-37705079D01*
X54007835Y-38349462D01*
X53994427Y-38357328D01*
X52876827Y-39035703D01*
X52863742Y-39043918D01*
X51767061Y-39755702D01*
X51754204Y-39764325D01*
X50679475Y-40508851D01*
X50666877Y-40517862D01*
X49615096Y-41294438D01*
X49603367Y-41303374D01*
X49602781Y-41303822D01*
X48574885Y-42111756D01*
X48574865Y-42111772D01*
X48562865Y-42121499D01*
X47933574Y-42647580D01*
X47559787Y-42960062D01*
X47559772Y-42960075D01*
X47548061Y-42970169D01*
X46570743Y-43838566D01*
X46559316Y-43849031D01*
X46126303Y-44257800D01*
X45778028Y-44586576D01*
X45608574Y-44746542D01*
X45597463Y-44757352D01*
X44674299Y-45683029D01*
X44663521Y-45694167D01*
X43768580Y-46647362D01*
X43758207Y-46658749D01*
X42892430Y-47638469D01*
X42882349Y-47650228D01*
X42046531Y-48655564D01*
X42036809Y-48667623D01*
X41231678Y-49697700D01*
X41222350Y-49710014D01*
X40448589Y-50763962D01*
X40439661Y-50776516D01*
X39987014Y-51433724D01*
X39698040Y-51853293D01*
X39698023Y-51853318D01*
X39698013Y-51853333D01*
X39689465Y-51866151D01*
X39377455Y-52349753D01*
X38980653Y-52964779D01*
X38975930Y-52972348D01*
X38972428Y-52977960D01*
X38300906Y-54091080D01*
X38297101Y-54097387D01*
X38295067Y-54100876D01*
X38289295Y-54110775D01*
X37648012Y-55250070D01*
X37640607Y-55263700D01*
X37033952Y-56421829D01*
X37026975Y-56435652D01*
X36455494Y-57611571D01*
X36448954Y-57625563D01*
X35913186Y-58818171D01*
X35907055Y-58832387D01*
X35407489Y-60040592D01*
X35401777Y-60055020D01*
X34938885Y-61277679D01*
X34933604Y-61292288D01*
X34507762Y-62528399D01*
X34502937Y-62543124D01*
X34114575Y-63791442D01*
X34110187Y-63806334D01*
X33759605Y-65065899D01*
X33755678Y-65080878D01*
X33443250Y-66350349D01*
X33439763Y-66365500D01*
X33165745Y-67643823D01*
X33162717Y-67659067D01*
X32927367Y-68945036D01*
X32924794Y-68960398D01*
X32728316Y-70252898D01*
X32726215Y-70268269D01*
X32568786Y-71566148D01*
X32567156Y-71581518D01*
X32448918Y-72883644D01*
X32447757Y-72899014D01*
X32368826Y-74204109D01*
X32368128Y-74219485D01*
X32328580Y-75526340D01*
X32328344Y-75541866D01*
X32328212Y-76849248D01*
X25606140Y-76849248D01*
X25606140Y-75492483D01*
X25606200Y-75488237D01*
X25606300Y-75484664D01*
X25645886Y-74073773D01*
X25646059Y-74069646D01*
X25725408Y-72656711D01*
X25725697Y-72652604D01*
X25844637Y-71242504D01*
X25845039Y-71238417D01*
X25906927Y-70689151D01*
X27925622Y-70689151D01*
X27925622Y-70868109D01*
X27934444Y-70912459D01*
X27960535Y-71043632D01*
X28029019Y-71208965D01*
X28128444Y-71357765D01*
X28254986Y-71484307D01*
X28403786Y-71583732D01*
X28569119Y-71652216D01*
X28569121Y-71652216D01*
X28569122Y-71652217D01*
X28744643Y-71687130D01*
X28923601Y-71687130D01*
X29099122Y-71652217D01*
X29264458Y-71583732D01*
X29413257Y-71484308D01*
X29539800Y-71357765D01*
X29639224Y-71208966D01*
X29707709Y-71043630D01*
X29742622Y-70868109D01*
X29742622Y-70689151D01*
X29707709Y-70513630D01*
X29707708Y-70513627D01*
X29707708Y-70513626D01*
X29706966Y-70511834D01*
X29706813Y-70510676D01*
X29705550Y-70506511D01*
X29706237Y-70506302D01*
X29696738Y-70434134D01*
X29726730Y-70361730D01*
X29744242Y-70342564D01*
X29747299Y-70339745D01*
X29747311Y-70339737D01*
X29858097Y-70210785D01*
X29936158Y-70059759D01*
X29961790Y-69962974D01*
X30045391Y-69435133D01*
X30050923Y-69335164D01*
X30023352Y-69167407D01*
X29957837Y-69010532D01*
X29951553Y-69001884D01*
X29923469Y-68928722D01*
X29935727Y-68851317D01*
X29985044Y-68790412D01*
X29993695Y-68784127D01*
X30104481Y-68655175D01*
X30182542Y-68504149D01*
X30208174Y-68407364D01*
X30291775Y-67879523D01*
X30297307Y-67779554D01*
X30269736Y-67611797D01*
X30204221Y-67454922D01*
X30197614Y-67445828D01*
X30185094Y-67428595D01*
X30157008Y-67355430D01*
X30169268Y-67278025D01*
X30187536Y-67248433D01*
X30187505Y-67248412D01*
X30188092Y-67247533D01*
X30190550Y-67243552D01*
X30191628Y-67242236D01*
X30191638Y-67242227D01*
X30291062Y-67093428D01*
X30359547Y-66928092D01*
X30394460Y-66752571D01*
X30394460Y-66573613D01*
X30359547Y-66398092D01*
X30349610Y-66374103D01*
X30291062Y-66232756D01*
X30191637Y-66083956D01*
X30065095Y-65957414D01*
X29916295Y-65857989D01*
X29750962Y-65789505D01*
X29750963Y-65789505D01*
X29575439Y-65754592D01*
X29396481Y-65754592D01*
X29220957Y-65789505D01*
X29055624Y-65857989D01*
X28906824Y-65957414D01*
X28780282Y-66083956D01*
X28680857Y-66232756D01*
X28612373Y-66398089D01*
X28577460Y-66573613D01*
X28577460Y-66752570D01*
X28612373Y-66928095D01*
X28612374Y-66928098D01*
X28640384Y-66995719D01*
X28650614Y-67073419D01*
X28620623Y-67145824D01*
X28589502Y-67176140D01*
X28563479Y-67195047D01*
X28563472Y-67195053D01*
X28452686Y-67324006D01*
X28374629Y-67475022D01*
X28374624Y-67475035D01*
X28348997Y-67571802D01*
X28348992Y-67571825D01*
X28265393Y-68099654D01*
X28259861Y-68199626D01*
X28287431Y-68367381D01*
X28352946Y-68524257D01*
X28352947Y-68524258D01*
X28359231Y-68532908D01*
X28387315Y-68606074D01*
X28375053Y-68683479D01*
X28325741Y-68744377D01*
X28317087Y-68750664D01*
X28206302Y-68879616D01*
X28128245Y-69030632D01*
X28128240Y-69030645D01*
X28102613Y-69127412D01*
X28102608Y-69127435D01*
X28019009Y-69655264D01*
X28013477Y-69755236D01*
X28041047Y-69922991D01*
X28106562Y-70079866D01*
X28107548Y-70081621D01*
X28107946Y-70083182D01*
X28109961Y-70088005D01*
X28109254Y-70088300D01*
X28126949Y-70157552D01*
X28105785Y-70233011D01*
X28101444Y-70239901D01*
X28029021Y-70348291D01*
X28029020Y-70348292D01*
X27960535Y-70513627D01*
X27951713Y-70557980D01*
X27925622Y-70689151D01*
X25906927Y-70689151D01*
X26003486Y-69832169D01*
X26004008Y-69828058D01*
X26201821Y-68426881D01*
X26202458Y-68422784D01*
X26439495Y-67027676D01*
X26440252Y-67023574D01*
X26716315Y-65635711D01*
X26717202Y-65631562D01*
X26840930Y-65089474D01*
X27032086Y-64251961D01*
X27033052Y-64247989D01*
X27386515Y-62877725D01*
X27387604Y-62873737D01*
X27779366Y-61513900D01*
X27780558Y-61509969D01*
X28210284Y-60161719D01*
X28211626Y-60157706D01*
X28244663Y-60063292D01*
X28678991Y-58822053D01*
X28680419Y-58818149D01*
X29185065Y-57496117D01*
X29186602Y-57492255D01*
X29664133Y-56339394D01*
X31933436Y-56339394D01*
X31933436Y-56518351D01*
X31968349Y-56693875D01*
X32036833Y-56859208D01*
X32036834Y-56859209D01*
X32136258Y-57008008D01*
X32262801Y-57134551D01*
X32411600Y-57233975D01*
X32576933Y-57302459D01*
X32576935Y-57302459D01*
X32576936Y-57302460D01*
X32752457Y-57337373D01*
X32931415Y-57337373D01*
X33106936Y-57302460D01*
X33272272Y-57233975D01*
X33421071Y-57134551D01*
X33547614Y-57008008D01*
X33647038Y-56859209D01*
X33715523Y-56693873D01*
X33750436Y-56518352D01*
X33750436Y-56418350D01*
X33770720Y-56342650D01*
X33826136Y-56287234D01*
X33855052Y-56274360D01*
X33860986Y-56272432D01*
X33937920Y-56225593D01*
X34006191Y-56184030D01*
X34006191Y-56184029D01*
X34006197Y-56184026D01*
X34127108Y-56064515D01*
X34181394Y-55980387D01*
X34424015Y-55504214D01*
X34460168Y-55410847D01*
X34460169Y-55410844D01*
X34482597Y-55263700D01*
X34485786Y-55242781D01*
X34484986Y-55232985D01*
X34471954Y-55073340D01*
X34468651Y-55063174D01*
X34464548Y-54984911D01*
X34500126Y-54915082D01*
X34565847Y-54872399D01*
X34576022Y-54869094D01*
X34682546Y-54804240D01*
X34721227Y-54780692D01*
X34721227Y-54780691D01*
X34721233Y-54780688D01*
X34842144Y-54661177D01*
X34896430Y-54577049D01*
X35139051Y-54100876D01*
X35175204Y-54007509D01*
X35175205Y-54007506D01*
X35188013Y-53923476D01*
X35200822Y-53839443D01*
X35200022Y-53829647D01*
X35186990Y-53670002D01*
X35183807Y-53660205D01*
X35178601Y-53644185D01*
X35174499Y-53565924D01*
X35210077Y-53496095D01*
X35238476Y-53471516D01*
X35312776Y-53421871D01*
X35439319Y-53295328D01*
X35538743Y-53146529D01*
X35607228Y-52981193D01*
X35642141Y-52805672D01*
X35642141Y-52626714D01*
X35607228Y-52451193D01*
X35538743Y-52285857D01*
X35439319Y-52137058D01*
X35312776Y-52010515D01*
X35182206Y-51923271D01*
X35163976Y-51911090D01*
X34998643Y-51842606D01*
X34998644Y-51842606D01*
X34823120Y-51807693D01*
X34644162Y-51807693D01*
X34468638Y-51842606D01*
X34303305Y-51911090D01*
X34154505Y-52010515D01*
X34027963Y-52137057D01*
X33928538Y-52285857D01*
X33860054Y-52451190D01*
X33825141Y-52626714D01*
X33825141Y-52767398D01*
X33804857Y-52843098D01*
X33749441Y-52898514D01*
X33720528Y-52911387D01*
X33706853Y-52915830D01*
X33706848Y-52915832D01*
X33561644Y-53004233D01*
X33561638Y-53004239D01*
X33440730Y-53123745D01*
X33392762Y-53198083D01*
X33386442Y-53207877D01*
X33274829Y-53426932D01*
X33143816Y-53684060D01*
X33107667Y-53777416D01*
X33107666Y-53777419D01*
X33082050Y-53945479D01*
X33082049Y-53945488D01*
X33095881Y-54114922D01*
X33095882Y-54114925D01*
X33097034Y-54118472D01*
X33099185Y-54125090D01*
X33103287Y-54203353D01*
X33067708Y-54273182D01*
X33001986Y-54315864D01*
X32991816Y-54319168D01*
X32991812Y-54319170D01*
X32846608Y-54407571D01*
X32846602Y-54407577D01*
X32725694Y-54527083D01*
X32671407Y-54611213D01*
X32428780Y-55087398D01*
X32392631Y-55180754D01*
X32392630Y-55180757D01*
X32367014Y-55348817D01*
X32367013Y-55348826D01*
X32380845Y-55518264D01*
X32382578Y-55526907D01*
X32379851Y-55527453D01*
X32383179Y-55591119D01*
X32347591Y-55660942D01*
X32319207Y-55685504D01*
X32262804Y-55723192D01*
X32262800Y-55723195D01*
X32136258Y-55849737D01*
X32036833Y-55998537D01*
X31968349Y-56163870D01*
X31933436Y-56339394D01*
X29664133Y-56339394D01*
X29728143Y-56184860D01*
X29729772Y-56181078D01*
X30307752Y-54889417D01*
X30309501Y-54885651D01*
X30923501Y-53610667D01*
X30925351Y-53606959D01*
X31574848Y-52349737D01*
X31576842Y-52346008D01*
X31603355Y-52298037D01*
X32261329Y-51107519D01*
X32263364Y-51103956D01*
X32982351Y-49885097D01*
X32984547Y-49881492D01*
X33095559Y-49704818D01*
X33737403Y-48683328D01*
X33739668Y-48679835D01*
X34525804Y-47503300D01*
X34528202Y-47499817D01*
X34690914Y-47270496D01*
X35347088Y-46345705D01*
X35349490Y-46342418D01*
X36200448Y-45211694D01*
X36203010Y-45208389D01*
X37085291Y-44102042D01*
X37087885Y-44098881D01*
X37253021Y-43903321D01*
X40137900Y-43903321D01*
X40137900Y-44082279D01*
X40148908Y-44137619D01*
X40172813Y-44257802D01*
X40241297Y-44423135D01*
X40340722Y-44571935D01*
X40467265Y-44698478D01*
X40616064Y-44797902D01*
X40781397Y-44866386D01*
X40781399Y-44866386D01*
X40781400Y-44866387D01*
X40956921Y-44901300D01*
X41135879Y-44901300D01*
X41311400Y-44866387D01*
X41476736Y-44797902D01*
X41625535Y-44698478D01*
X41752078Y-44571935D01*
X41851502Y-44423136D01*
X41919987Y-44257800D01*
X41922146Y-44250684D01*
X41924250Y-44251322D01*
X41953931Y-44191143D01*
X42019096Y-44147605D01*
X42067755Y-44139573D01*
X42074272Y-44139573D01*
X42074273Y-44139573D01*
X42239696Y-44100367D01*
X42391620Y-44024068D01*
X42469246Y-43960833D01*
X42847138Y-43582940D01*
X42910374Y-43505314D01*
X42986673Y-43353390D01*
X43025879Y-43187967D01*
X43025879Y-43177279D01*
X43046163Y-43101579D01*
X43101579Y-43046163D01*
X43177279Y-43025879D01*
X43187966Y-43025879D01*
X43187967Y-43025879D01*
X43353390Y-42986673D01*
X43505314Y-42910374D01*
X43582940Y-42847139D01*
X43960832Y-42469246D01*
X44024068Y-42391620D01*
X44100367Y-42239696D01*
X44139573Y-42074273D01*
X44139573Y-42067754D01*
X44159857Y-41992054D01*
X44215273Y-41936638D01*
X44251003Y-41923192D01*
X44250686Y-41922145D01*
X44257796Y-41919987D01*
X44257800Y-41919987D01*
X44423136Y-41851502D01*
X44571935Y-41752078D01*
X44698478Y-41625535D01*
X44797902Y-41476736D01*
X44866387Y-41311400D01*
X44901300Y-41135879D01*
X44901300Y-40956921D01*
X44866387Y-40781400D01*
X44797902Y-40616064D01*
X44698478Y-40467265D01*
X44571935Y-40340722D01*
X44445048Y-40255939D01*
X44423135Y-40241297D01*
X44257802Y-40172813D01*
X44257803Y-40172813D01*
X44082279Y-40137900D01*
X43903321Y-40137900D01*
X43727797Y-40172813D01*
X43562464Y-40241297D01*
X43413664Y-40340722D01*
X43287122Y-40467264D01*
X43187697Y-40616064D01*
X43119212Y-40781399D01*
X43117054Y-40788516D01*
X43114949Y-40787877D01*
X43085269Y-40848057D01*
X43020104Y-40891595D01*
X42971445Y-40899627D01*
X42964924Y-40899627D01*
X42799502Y-40938833D01*
X42647577Y-41015133D01*
X42569962Y-41078359D01*
X42569946Y-41078374D01*
X42192070Y-41456251D01*
X42192063Y-41456258D01*
X42192062Y-41456260D01*
X42128826Y-41533886D01*
X42103393Y-41584527D01*
X42052527Y-41685808D01*
X42013321Y-41851230D01*
X42013321Y-41861921D01*
X41993037Y-41937621D01*
X41937621Y-41993037D01*
X41861921Y-42013321D01*
X41851230Y-42013321D01*
X41685808Y-42052527D01*
X41533883Y-42128827D01*
X41456268Y-42192053D01*
X41456252Y-42192068D01*
X41078376Y-42569945D01*
X41078369Y-42569952D01*
X41078368Y-42569954D01*
X41015132Y-42647580D01*
X40989699Y-42698221D01*
X40938833Y-42799502D01*
X40899627Y-42964924D01*
X40899627Y-42971445D01*
X40879343Y-43047145D01*
X40823927Y-43102561D01*
X40788198Y-43116008D01*
X40788516Y-43117054D01*
X40781399Y-43119212D01*
X40616064Y-43187697D01*
X40467264Y-43287122D01*
X40340722Y-43413664D01*
X40241297Y-43562464D01*
X40172813Y-43727797D01*
X40148699Y-43849031D01*
X40137900Y-43903321D01*
X37253021Y-43903321D01*
X38000890Y-43017666D01*
X38003607Y-43014538D01*
X38946541Y-41959394D01*
X38949409Y-41956275D01*
X38968891Y-41935668D01*
X39921521Y-40928038D01*
X39924411Y-40925065D01*
X40925065Y-39924411D01*
X40928038Y-39921521D01*
X41956281Y-38949402D01*
X41959401Y-38946535D01*
X42293406Y-38648050D01*
X43014538Y-38003607D01*
X43017666Y-38000890D01*
X44098881Y-37087885D01*
X44102042Y-37085291D01*
X45208406Y-36202996D01*
X45211694Y-36200448D01*
X46342418Y-35349490D01*
X46345705Y-35347088D01*
X47368560Y-34621333D01*
X51814513Y-34621333D01*
X51814513Y-34800291D01*
X51826150Y-34858798D01*
X51849426Y-34975814D01*
X51917910Y-35141147D01*
X52017335Y-35289947D01*
X52143878Y-35416490D01*
X52253560Y-35489777D01*
X52292677Y-35515914D01*
X52458010Y-35584398D01*
X52458012Y-35584398D01*
X52458013Y-35584399D01*
X52633534Y-35619312D01*
X52812492Y-35619312D01*
X52988013Y-35584399D01*
X53153349Y-35515914D01*
X53302148Y-35416490D01*
X53428691Y-35289947D01*
X53478530Y-35215356D01*
X53537451Y-35163685D01*
X53614315Y-35148395D01*
X53651198Y-35155480D01*
X53670001Y-35161590D01*
X53712361Y-35165048D01*
X53839437Y-35175422D01*
X53839439Y-35175421D01*
X53839443Y-35175422D01*
X53937203Y-35160520D01*
X54007505Y-35149805D01*
X54007506Y-35149804D01*
X54007509Y-35149804D01*
X54100876Y-35113652D01*
X54577048Y-34871029D01*
X54661177Y-34816744D01*
X54780688Y-34695833D01*
X54869094Y-34550622D01*
X54872396Y-34540457D01*
X54915073Y-34474734D01*
X54984899Y-34439150D01*
X55063160Y-34443246D01*
X55073339Y-34446554D01*
X55097545Y-34448530D01*
X55242775Y-34460386D01*
X55242777Y-34460385D01*
X55242781Y-34460386D01*
X55355221Y-34443247D01*
X55410843Y-34434769D01*
X55410844Y-34434768D01*
X55410847Y-34434768D01*
X55504214Y-34398616D01*
X55980386Y-34155993D01*
X56064515Y-34101708D01*
X56184026Y-33980797D01*
X56272432Y-33835586D01*
X56273525Y-33832221D01*
X56275068Y-33829845D01*
X56276110Y-33827577D01*
X56276442Y-33827729D01*
X56316207Y-33766495D01*
X56386036Y-33730915D01*
X56417515Y-33727606D01*
X56525173Y-33727606D01*
X56700694Y-33692693D01*
X56866030Y-33624208D01*
X57014829Y-33524784D01*
X57141372Y-33398241D01*
X57240796Y-33249442D01*
X57309281Y-33084106D01*
X57344194Y-32908585D01*
X57344194Y-32729627D01*
X57309281Y-32554106D01*
X57294947Y-32519502D01*
X57240796Y-32388770D01*
X57178867Y-32296086D01*
X57141372Y-32239971D01*
X57014829Y-32113428D01*
X56866029Y-32014003D01*
X56700696Y-31945519D01*
X56700697Y-31945519D01*
X56525173Y-31910606D01*
X56346215Y-31910606D01*
X56170691Y-31945519D01*
X56005358Y-32014003D01*
X55856558Y-32113428D01*
X55730015Y-32239971D01*
X55692521Y-32296086D01*
X55633599Y-32347759D01*
X55556735Y-32363048D01*
X55519853Y-32355962D01*
X55518263Y-32355445D01*
X55518264Y-32355445D01*
X55348826Y-32341613D01*
X55348817Y-32341614D01*
X55180758Y-32367230D01*
X55180756Y-32367231D01*
X55087393Y-32403381D01*
X55087378Y-32403388D01*
X54611217Y-32646005D01*
X54611215Y-32646006D01*
X54527091Y-32700289D01*
X54527088Y-32700291D01*
X54527087Y-32700291D01*
X54527087Y-32700292D01*
X54407576Y-32821203D01*
X54407574Y-32821205D01*
X54407573Y-32821207D01*
X54407571Y-32821208D01*
X54319170Y-32966412D01*
X54319168Y-32966416D01*
X54315864Y-32976586D01*
X54273178Y-33042311D01*
X54203348Y-33077888D01*
X54125090Y-33073785D01*
X54114925Y-33070482D01*
X54114922Y-33070481D01*
X53945488Y-33056649D01*
X53945479Y-33056650D01*
X53777420Y-33082266D01*
X53777418Y-33082267D01*
X53684055Y-33118417D01*
X53684040Y-33118424D01*
X53207879Y-33361041D01*
X53207877Y-33361042D01*
X53123753Y-33415325D01*
X53123750Y-33415327D01*
X53123749Y-33415327D01*
X53123749Y-33415328D01*
X53004238Y-33536239D01*
X53004236Y-33536241D01*
X53004235Y-33536243D01*
X53004233Y-33536244D01*
X52915832Y-33681448D01*
X52915832Y-33681449D01*
X52910553Y-33697697D01*
X52867870Y-33763424D01*
X52798041Y-33799003D01*
X52766563Y-33802312D01*
X52633534Y-33802312D01*
X52458010Y-33837225D01*
X52292677Y-33905709D01*
X52143877Y-34005134D01*
X52017335Y-34131676D01*
X51917910Y-34280476D01*
X51849426Y-34445809D01*
X51828578Y-34550622D01*
X51814513Y-34621333D01*
X47368560Y-34621333D01*
X47499831Y-34528191D01*
X47503266Y-34525826D01*
X48679835Y-33739668D01*
X48683328Y-33737403D01*
X49881513Y-32984533D01*
X49885097Y-32982351D01*
X51103956Y-32263364D01*
X51107519Y-32261329D01*
X52346024Y-31576833D01*
X52349737Y-31574848D01*
X53606959Y-30925351D01*
X53610667Y-30923501D01*
X54885651Y-30309501D01*
X54889417Y-30307752D01*
X56181078Y-29729772D01*
X56184860Y-29728143D01*
X56964518Y-29405198D01*
X65792831Y-29405198D01*
X65792831Y-29584155D01*
X65827744Y-29759679D01*
X65896228Y-29925012D01*
X65985447Y-30058537D01*
X65995653Y-30073812D01*
X66122196Y-30200355D01*
X66237431Y-30277352D01*
X66270995Y-30299779D01*
X66436328Y-30368263D01*
X66436330Y-30368263D01*
X66436331Y-30368264D01*
X66611852Y-30403177D01*
X66790810Y-30403177D01*
X66966331Y-30368264D01*
X67131667Y-30299779D01*
X67280466Y-30200355D01*
X67280468Y-30200352D01*
X67281927Y-30199378D01*
X67356138Y-30174186D01*
X67433003Y-30189475D01*
X67455027Y-30202773D01*
X67462261Y-30208029D01*
X67462262Y-30208029D01*
X67462263Y-30208030D01*
X67471726Y-30211982D01*
X67619136Y-30273544D01*
X67786893Y-30301115D01*
X67886861Y-30295584D01*
X68414702Y-30211982D01*
X68511488Y-30186350D01*
X68662514Y-30108289D01*
X68791466Y-29997503D01*
X68797746Y-29988858D01*
X68858650Y-29939538D01*
X68936055Y-29927276D01*
X69009220Y-29955359D01*
X69017871Y-29961645D01*
X69174746Y-30027160D01*
X69342503Y-30054731D01*
X69442471Y-30049200D01*
X69970312Y-29965598D01*
X70067098Y-29939966D01*
X70218124Y-29861905D01*
X70347076Y-29751119D01*
X70347079Y-29751114D01*
X70353050Y-29744637D01*
X70355115Y-29746541D01*
X70404555Y-29706494D01*
X70481958Y-29694222D01*
X70524092Y-29704919D01*
X70551870Y-29716426D01*
X70683510Y-29742610D01*
X70727390Y-29751339D01*
X70727391Y-29751339D01*
X70906349Y-29751339D01*
X71081870Y-29716426D01*
X71247206Y-29647941D01*
X71396005Y-29548517D01*
X71522548Y-29421974D01*
X71621972Y-29273175D01*
X71690457Y-29107839D01*
X71725370Y-28932318D01*
X71725370Y-28753360D01*
X71723820Y-28745566D01*
X80681533Y-28745566D01*
X80681533Y-28924523D01*
X80716446Y-29100047D01*
X80784930Y-29265380D01*
X80844695Y-29354824D01*
X80884355Y-29414180D01*
X81010898Y-29540723D01*
X81159697Y-29640147D01*
X81325030Y-29708631D01*
X81325032Y-29708631D01*
X81325033Y-29708632D01*
X81500554Y-29743545D01*
X81679512Y-29743545D01*
X81855033Y-29708632D01*
X81891414Y-29693561D01*
X81969113Y-29683332D01*
X82041518Y-29713323D01*
X82071838Y-29744447D01*
X82079451Y-29754926D01*
X82079455Y-29754930D01*
X82208401Y-29865710D01*
X82208402Y-29865710D01*
X82208405Y-29865713D01*
X82299828Y-29912967D01*
X82359422Y-29943770D01*
X82359426Y-29943771D01*
X82359431Y-29943774D01*
X82456216Y-29969406D01*
X82984057Y-30053007D01*
X83084026Y-30058539D01*
X83251783Y-30030968D01*
X83408658Y-29965453D01*
X83417297Y-29959176D01*
X83490458Y-29931086D01*
X83567864Y-29943339D01*
X83628773Y-29992655D01*
X83628779Y-29992662D01*
X83635063Y-30001311D01*
X83764015Y-30112097D01*
X83830803Y-30146618D01*
X83915032Y-30190154D01*
X83915036Y-30190155D01*
X83915041Y-30190158D01*
X84011826Y-30215790D01*
X84539667Y-30299391D01*
X84639636Y-30304923D01*
X84807393Y-30277352D01*
X84964268Y-30211837D01*
X84970412Y-30207372D01*
X85043577Y-30179287D01*
X85120982Y-30191545D01*
X85143517Y-30203973D01*
X85275231Y-30291981D01*
X85275234Y-30291983D01*
X85275235Y-30291983D01*
X85275236Y-30291984D01*
X85306473Y-30304923D01*
X85440569Y-30360468D01*
X85440571Y-30360468D01*
X85440572Y-30360469D01*
X85616093Y-30395382D01*
X85795051Y-30395382D01*
X85970572Y-30360469D01*
X86135908Y-30291984D01*
X86284707Y-30192560D01*
X86411250Y-30066017D01*
X86510674Y-29917218D01*
X86579159Y-29751882D01*
X86614072Y-29576361D01*
X86614072Y-29397403D01*
X86579159Y-29221882D01*
X86564552Y-29186619D01*
X86510674Y-29056546D01*
X86411250Y-28907747D01*
X86284707Y-28781204D01*
X86135907Y-28681779D01*
X85970574Y-28613295D01*
X85970575Y-28613295D01*
X85795051Y-28578382D01*
X85616093Y-28578382D01*
X85440569Y-28613295D01*
X85408039Y-28626769D01*
X85330339Y-28636996D01*
X85257935Y-28607003D01*
X85227619Y-28575881D01*
X85224136Y-28571087D01*
X85224134Y-28571085D01*
X85095188Y-28460305D01*
X85095186Y-28460304D01*
X85095185Y-28460303D01*
X85047929Y-28435878D01*
X84944167Y-28382245D01*
X84944154Y-28382240D01*
X84847387Y-28356613D01*
X84847377Y-28356610D01*
X84847374Y-28356610D01*
X84847371Y-28356609D01*
X84847364Y-28356608D01*
X84319535Y-28273009D01*
X84250700Y-28269200D01*
X84219564Y-28267477D01*
X84219563Y-28267477D01*
X84219562Y-28267477D01*
X84051808Y-28295047D01*
X83894932Y-28360562D01*
X83894931Y-28360563D01*
X83886282Y-28366847D01*
X83813116Y-28394931D01*
X83735711Y-28382669D01*
X83674809Y-28333351D01*
X83668529Y-28324707D01*
X83668526Y-28324704D01*
X83634006Y-28295047D01*
X83539575Y-28213919D01*
X83497501Y-28192172D01*
X83388557Y-28135861D01*
X83388544Y-28135856D01*
X83291777Y-28110229D01*
X83291767Y-28110226D01*
X83291764Y-28110226D01*
X83291761Y-28110225D01*
X83291754Y-28110224D01*
X82763925Y-28026625D01*
X82695090Y-28022816D01*
X82663954Y-28021093D01*
X82663953Y-28021093D01*
X82663952Y-28021093D01*
X82496198Y-28048663D01*
X82339322Y-28114178D01*
X82339316Y-28114182D01*
X82332277Y-28119296D01*
X82259111Y-28147378D01*
X82181706Y-28135115D01*
X82159179Y-28122692D01*
X82020368Y-28029942D01*
X81855035Y-27961458D01*
X81855036Y-27961458D01*
X81679512Y-27926545D01*
X81500554Y-27926545D01*
X81325030Y-27961458D01*
X81159697Y-28029942D01*
X81010897Y-28129367D01*
X80884355Y-28255909D01*
X80784930Y-28404709D01*
X80716446Y-28570042D01*
X80681533Y-28745566D01*
X71723820Y-28745566D01*
X71690457Y-28577839D01*
X71687659Y-28571085D01*
X71621972Y-28412503D01*
X71601751Y-28382240D01*
X71522548Y-28263704D01*
X71396005Y-28137161D01*
X71362384Y-28114696D01*
X71247205Y-28037736D01*
X71081872Y-27969252D01*
X71081873Y-27969252D01*
X70906349Y-27934339D01*
X70727391Y-27934339D01*
X70551867Y-27969252D01*
X70386534Y-28037736D01*
X70266265Y-28118097D01*
X70192053Y-28143288D01*
X70115189Y-28127998D01*
X70093160Y-28114696D01*
X70087208Y-28110371D01*
X70087206Y-28110370D01*
X69939450Y-28048664D01*
X69930332Y-28044856D01*
X69930331Y-28044855D01*
X69785745Y-28021093D01*
X69762575Y-28017285D01*
X69762574Y-28017285D01*
X69662606Y-28022816D01*
X69134775Y-28106416D01*
X69134760Y-28106419D01*
X69037981Y-28132049D01*
X68886954Y-28210110D01*
X68758003Y-28320895D01*
X68751716Y-28329549D01*
X68690808Y-28378866D01*
X68613402Y-28391122D01*
X68540247Y-28363039D01*
X68531597Y-28356755D01*
X68531596Y-28356754D01*
X68422214Y-28311074D01*
X68374722Y-28291240D01*
X68374721Y-28291239D01*
X68230135Y-28267477D01*
X68206965Y-28263669D01*
X68206964Y-28263669D01*
X68106996Y-28269200D01*
X67579165Y-28352800D01*
X67579150Y-28352803D01*
X67482371Y-28378433D01*
X67331344Y-28456494D01*
X67202392Y-28567280D01*
X67187885Y-28587247D01*
X67126978Y-28636565D01*
X67049572Y-28648822D01*
X67007466Y-28638128D01*
X66966331Y-28621089D01*
X66790811Y-28586177D01*
X66790810Y-28586177D01*
X66611852Y-28586177D01*
X66436328Y-28621090D01*
X66270995Y-28689574D01*
X66122195Y-28788999D01*
X65995653Y-28915541D01*
X65896228Y-29064341D01*
X65827744Y-29229674D01*
X65792831Y-29405198D01*
X56964518Y-29405198D01*
X57492255Y-29186602D01*
X57496117Y-29185065D01*
X58818149Y-28680419D01*
X58822053Y-28678991D01*
X60157720Y-28211621D01*
X60161719Y-28210284D01*
X61509969Y-27780558D01*
X61513900Y-27779366D01*
X62873737Y-27387604D01*
X62877725Y-27386515D01*
X64247989Y-27033052D01*
X64251961Y-27032086D01*
X65631566Y-26717201D01*
X65635715Y-26716315D01*
X67023574Y-26440252D01*
X67027676Y-26439495D01*
X68422784Y-26202458D01*
X68426881Y-26201821D01*
X69828058Y-26004008D01*
X69832160Y-26003487D01*
X71238417Y-25845039D01*
X71242504Y-25844637D01*
X72652604Y-25725697D01*
X72656711Y-25725408D01*
X74069646Y-25646059D01*
X74073773Y-25645886D01*
X75488238Y-25606200D01*
X75492484Y-25606140D01*
X76907516Y-25606140D01*
X76911762Y-25606200D01*
G37*
%TD.AperFunction*%
%TD*%
M02*
