%TF.GenerationSoftware,KiCad,Pcbnew,10.0.1*%
%TF.CreationDate,2026-04-26T19:23:27-06:00*%
%TF.ProjectId,All_Lit_Up,416c6c5f-4c69-4745-9f55-702e6b696361,1.1*%
%TF.SameCoordinates,Original*%
%TF.FileFunction,Paste,Bot*%
%TF.FilePolarity,Positive*%
%FSLAX46Y46*%
G04 Gerber Fmt 4.6, Leading zero omitted, Abs format (unit mm)*
G04 Created by KiCad (PCBNEW 10.0.1) date 2026-04-26 19:23:27*
%MOMM*%
%LPD*%
G01*
G04 APERTURE LIST*
G04 Aperture macros list*
%AMRoundRect*
0 Rectangle with rounded corners*
0 $1 Rounding radius*
0 $2 $3 $4 $5 $6 $7 $8 $9 X,Y pos of 4 corners*
0 Add a 4 corners polygon primitive as box body*
4,1,4,$2,$3,$4,$5,$6,$7,$8,$9,$2,$3,0*
0 Add four circle primitives for the rounded corners*
1,1,$1+$1,$2,$3*
1,1,$1+$1,$4,$5*
1,1,$1+$1,$6,$7*
1,1,$1+$1,$8,$9*
0 Add four rect primitives between the rounded corners*
20,1,$1+$1,$2,$3,$4,$5,0*
20,1,$1+$1,$4,$5,$6,$7,0*
20,1,$1+$1,$6,$7,$8,$9,0*
20,1,$1+$1,$8,$9,$2,$3,0*%
%AMFreePoly0*
4,1,5,1.981200,-1.168400,-1.981200,-1.168400,-1.981200,1.168400,1.981200,1.168400,1.981200,-1.168400,1.981200,-1.168400,$1*%
%AMFreePoly1*
4,1,5,1.981200,-2.540000,-1.981200,-2.540000,-1.981200,2.540000,1.981200,2.540000,1.981200,-2.540000,1.981200,-2.540000,$1*%
G04 Aperture macros list end*
%ADD10R,0.580000X0.710000*%
%ADD11R,0.300000X0.750000*%
%ADD12RoundRect,0.100000X-0.100000X0.637500X-0.100000X-0.637500X0.100000X-0.637500X0.100000X0.637500X0*%
%ADD13FreePoly0,90.000000*%
%ADD14FreePoly1,90.000000*%
%ADD15FreePoly0,0.000000*%
%ADD16FreePoly1,0.000000*%
%ADD17RoundRect,0.225000X0.086979X0.324899X-0.313974X0.120604X-0.086979X-0.324899X0.313974X-0.120604X0*%
%ADD18RoundRect,0.225000X0.261338X0.211724X-0.183121X0.282120X-0.261338X-0.211724X0.183121X-0.282120X0*%
%ADD19RoundRect,0.225000X-0.120604X0.313974X-0.324899X-0.086979X0.120604X-0.313974X0.324899X0.086979X0*%
%ADD20RoundRect,0.225000X0.211724X-0.261338X0.282120X0.183121X-0.211724X0.261338X-0.282120X-0.183121X0*%
%ADD21RoundRect,0.225000X-0.282120X0.183121X-0.211724X-0.261338X0.282120X-0.183121X0.211724X0.261338X0*%
%ADD22RoundRect,0.225000X0.324899X-0.086979X0.120604X0.313974X-0.324899X0.086979X-0.120604X-0.313974X0*%
%ADD23RoundRect,0.225000X-0.335876X-0.017678X-0.017678X-0.335876X0.335876X0.017678X0.017678X0.335876X0*%
%ADD24RoundRect,0.225000X0.313974X0.120604X-0.086979X0.324899X-0.313974X-0.120604X0.086979X-0.324899X0*%
%ADD25RoundRect,0.225000X-0.261338X-0.211724X0.183121X-0.282120X0.261338X0.211724X-0.183121X0.282120X0*%
%ADD26RoundRect,0.225000X0.183121X0.282120X-0.261338X0.211724X-0.183121X-0.282120X0.261338X-0.211724X0*%
%ADD27RoundRect,0.225000X-0.086979X-0.324899X0.313974X-0.120604X0.086979X0.324899X-0.313974X0.120604X0*%
%ADD28RoundRect,0.225000X-0.017678X0.335876X-0.335876X0.017678X0.017678X-0.335876X0.335876X-0.017678X0*%
%ADD29RoundRect,0.225000X0.120604X-0.313974X0.324899X0.086979X-0.120604X0.313974X-0.324899X-0.086979X0*%
%ADD30RoundRect,0.225000X-0.211724X0.261338X-0.282120X-0.183121X0.211724X-0.261338X0.282120X0.183121X0*%
%ADD31RoundRect,0.225000X0.282120X-0.183121X0.211724X0.261338X-0.282120X0.183121X-0.211724X-0.261338X0*%
%ADD32RoundRect,0.225000X-0.324899X0.086979X-0.120604X-0.313974X0.324899X-0.086979X0.120604X0.313974X0*%
%ADD33RoundRect,0.225000X0.335876X0.017678X0.017678X0.335876X-0.335876X-0.017678X-0.017678X-0.335876X0*%
%ADD34RoundRect,0.200000X0.240557X0.240327X-0.154518X0.302901X-0.240557X-0.240327X0.154518X-0.302901X0*%
%ADD35RoundRect,0.200000X-0.302901X0.154518X-0.240327X-0.240557X0.302901X-0.154518X0.240327X0.240557X0*%
%ADD36RoundRect,0.200000X0.335825X-0.053354X0.154229X0.303049X-0.335825X0.053354X-0.154229X-0.303049X0*%
%ADD37RoundRect,0.200000X-0.335876X-0.053033X-0.053033X-0.335876X0.335876X0.053033X0.053033X0.335876X0*%
%ADD38RoundRect,0.200000X-0.240557X-0.240327X0.154518X-0.302901X0.240557X0.240327X-0.154518X0.302901X0*%
%ADD39RoundRect,0.200000X0.154518X0.302901X-0.240557X0.240327X-0.154518X-0.302901X0.240557X-0.240327X0*%
%ADD40RoundRect,0.200000X-0.053354X-0.335825X0.303049X-0.154229X0.053354X0.335825X-0.303049X0.154229X0*%
%ADD41RoundRect,0.200000X-0.053033X0.335876X-0.335876X0.053033X0.053033X-0.335876X0.335876X-0.053033X0*%
%ADD42RoundRect,0.200000X0.154229X-0.303049X0.335825X0.053354X-0.154229X0.303049X-0.335825X-0.053354X0*%
%ADD43RoundRect,0.200000X-0.240327X0.240557X-0.302901X-0.154518X0.240327X-0.240557X0.302901X0.154518X0*%
%ADD44RoundRect,0.200000X0.302901X-0.154518X0.240327X0.240557X-0.302901X0.154518X-0.240327X-0.240557X0*%
%ADD45RoundRect,0.200000X-0.335825X0.053354X-0.154229X-0.303049X0.335825X-0.053354X0.154229X0.303049X0*%
%ADD46RoundRect,0.200000X0.335876X0.053033X0.053033X0.335876X-0.335876X-0.053033X-0.053033X-0.335876X0*%
%ADD47RoundRect,0.200000X-0.303049X-0.154229X0.053354X-0.335825X0.303049X0.154229X-0.053354X0.335825X0*%
%ADD48RoundRect,0.225000X-0.183121X-0.282120X0.261338X-0.211724X0.183121X0.282120X-0.261338X0.211724X0*%
%ADD49RoundRect,0.200000X0.053033X-0.335876X0.335876X-0.053033X-0.053033X0.335876X-0.335876X0.053033X0*%
%ADD50RoundRect,0.225000X0.017678X-0.335876X0.335876X-0.017678X-0.017678X0.335876X-0.335876X0.017678X0*%
%ADD51RoundRect,0.200000X-0.154229X0.303049X-0.335825X-0.053354X0.154229X-0.303049X0.335825X0.053354X0*%
%ADD52RoundRect,0.200000X0.240327X-0.240557X0.302901X0.154518X-0.240327X0.240557X-0.302901X-0.154518X0*%
%ADD53RoundRect,0.225000X-0.313974X-0.120604X0.086979X-0.324899X0.313974X0.120604X-0.086979X0.324899X0*%
%ADD54RoundRect,0.200000X0.200000X0.275000X-0.200000X0.275000X-0.200000X-0.275000X0.200000X-0.275000X0*%
%ADD55RoundRect,0.200000X-0.275000X0.200000X-0.275000X-0.200000X0.275000X-0.200000X0.275000X0.200000X0*%
%ADD56RoundRect,0.200000X-0.200000X-0.275000X0.200000X-0.275000X0.200000X0.275000X-0.200000X0.275000X0*%
%ADD57RoundRect,0.225000X0.225000X0.250000X-0.225000X0.250000X-0.225000X-0.250000X0.225000X-0.250000X0*%
%ADD58RoundRect,0.225000X-0.250000X0.225000X-0.250000X-0.225000X0.250000X-0.225000X0.250000X0.225000X0*%
%ADD59RoundRect,0.225000X0.250000X-0.225000X0.250000X0.225000X-0.250000X0.225000X-0.250000X-0.225000X0*%
%ADD60RoundRect,0.225000X-0.225000X-0.250000X0.225000X-0.250000X0.225000X0.250000X-0.225000X0.250000X0*%
%ADD61RoundRect,0.200000X-0.154518X-0.302901X0.240557X-0.240327X0.154518X0.302901X-0.240557X0.240327X0*%
%ADD62RoundRect,0.200000X0.053354X0.335825X-0.303049X0.154229X-0.053354X-0.335825X0.303049X-0.154229X0*%
%ADD63RoundRect,0.200000X0.303049X0.154229X-0.053354X0.335825X-0.303049X-0.154229X0.053354X-0.335825X0*%
%ADD64R,1.800000X3.900000*%
G04 APERTURE END LIST*
D10*
%TO.C,U1*%
X75735900Y-79397708D03*
X76460900Y-79397708D03*
X75735900Y-80272708D03*
X76460900Y-80272708D03*
D11*
X75348400Y-78385208D03*
X75848400Y-78385208D03*
X76348400Y-78385208D03*
X76848400Y-78385208D03*
X76848400Y-81285208D03*
X76348400Y-81285208D03*
X75848400Y-81285208D03*
X75348400Y-81285208D03*
%TD*%
D12*
%TO.C,U2*%
X77465995Y-97655552D03*
X78115995Y-97655552D03*
X78765995Y-97655552D03*
X79415995Y-97655552D03*
X80065995Y-97655552D03*
X80715995Y-97655552D03*
X81365995Y-97655552D03*
X81365995Y-103380552D03*
X80715995Y-103380552D03*
X80065995Y-103380552D03*
X79415995Y-103380552D03*
X78765995Y-103380552D03*
X78115995Y-103380552D03*
X77465995Y-103380552D03*
%TD*%
D13*
%TO.C,BT2*%
X40513000Y-100406200D03*
D14*
X40513000Y-87325200D03*
X40513000Y-64820800D03*
D13*
X40513000Y-51739800D03*
%TD*%
D15*
%TO.C,BT1*%
X51866799Y-40640002D03*
D16*
X64947799Y-40640002D03*
X87452199Y-40640002D03*
D15*
X100533199Y-40640002D03*
%TD*%
D17*
%TO.C,C8*%
X118970757Y-55283396D03*
X117589697Y-55987082D03*
%TD*%
D18*
%TO.C,C14*%
X123119977Y-84448442D03*
X121589061Y-84205968D03*
%TD*%
D19*
%TO.C,C4*%
X98536927Y-34131485D03*
X97833241Y-35512545D03*
%TD*%
D20*
%TO.C,C2*%
X84185526Y-30815454D03*
X84428000Y-29284538D03*
%TD*%
D21*
%TO.C,C1*%
X69536904Y-29045564D03*
X69779378Y-30576480D03*
%TD*%
D22*
%TO.C,C3*%
X55986868Y-34787404D03*
X55283182Y-33406344D03*
%TD*%
D23*
%TO.C,C5*%
X43078163Y-41969263D03*
X44174179Y-43065279D03*
%TD*%
D24*
%TO.C,C7*%
X35518660Y-54602486D03*
X34137600Y-53898800D03*
%TD*%
D25*
%TO.C,C9*%
X29284537Y-67972006D03*
X30815453Y-68214480D03*
%TD*%
D26*
%TO.C,C13*%
X30572505Y-82645711D03*
X29041589Y-82888185D03*
%TD*%
D27*
%TO.C,C16*%
X33406344Y-97116818D03*
X34787404Y-96413132D03*
%TD*%
D28*
%TO.C,C21*%
X43064095Y-108219881D03*
X41968079Y-109315897D03*
%TD*%
D29*
%TO.C,C24*%
X53873644Y-118285128D03*
X54577330Y-116904068D03*
%TD*%
D30*
%TO.C,C26*%
X68214582Y-121584565D03*
X67972108Y-123115481D03*
%TD*%
D31*
%TO.C,C27*%
X82888190Y-123358412D03*
X82645716Y-121827496D03*
%TD*%
D32*
%TO.C,C25*%
X96413130Y-117612590D03*
X97116816Y-118993650D03*
%TD*%
D33*
%TO.C,C23*%
X109321837Y-110430737D03*
X108225821Y-109334721D03*
%TD*%
D34*
%TO.C,R14*%
X123367800Y-82880200D03*
X121738114Y-82622084D03*
%TD*%
D35*
%TO.C,R2*%
X67981294Y-29291950D03*
X68239410Y-30921636D03*
%TD*%
D36*
%TO.C,R4*%
X54628934Y-35591543D03*
X53879850Y-34121383D03*
%TD*%
D37*
%TO.C,R6*%
X41964470Y-43082956D03*
X43131196Y-44249682D03*
%TD*%
D38*
%TO.C,R10*%
X29038150Y-69527614D03*
X30667836Y-69785730D03*
%TD*%
D39*
%TO.C,R15*%
X30917660Y-84185674D03*
X29287974Y-84443790D03*
%TD*%
D40*
%TO.C,R17*%
X34121383Y-98520150D03*
X35591543Y-97771066D03*
%TD*%
D41*
%TO.C,R22*%
X44248495Y-109262866D03*
X43081769Y-110429592D03*
%TD*%
D42*
%TO.C,R24*%
X55277625Y-118996108D03*
X56026709Y-117525948D03*
%TD*%
D43*
%TO.C,R26*%
X69785631Y-121732148D03*
X69527515Y-123361834D03*
%TD*%
D44*
%TO.C,R25*%
X84443790Y-123112026D03*
X84185674Y-121482340D03*
%TD*%
D45*
%TO.C,R23*%
X97771066Y-116808457D03*
X98520150Y-118278617D03*
%TD*%
D46*
%TO.C,R21*%
X110435530Y-109317044D03*
X109268804Y-108150318D03*
%TD*%
D47*
%TO.C,R16*%
X117504832Y-96344228D03*
X118974992Y-97093312D03*
%TD*%
D48*
%TO.C,C10*%
X121843523Y-69783054D03*
X123374439Y-69540580D03*
%TD*%
D49*
%TO.C,R5*%
X108156822Y-43127092D03*
X109323548Y-41960366D03*
%TD*%
D50*
%TO.C,C6*%
X109358415Y-44188821D03*
X110454431Y-43092805D03*
%TD*%
D51*
%TO.C,R3*%
X97133594Y-33416449D03*
X96384510Y-34886609D03*
%TD*%
D52*
%TO.C,R1*%
X82614369Y-30667852D03*
X82872485Y-29038166D03*
%TD*%
D53*
%TO.C,C17*%
X116891433Y-97808153D03*
X118272493Y-98511839D03*
%TD*%
D15*
%TO.C,BT4*%
X51866801Y-111759998D03*
D16*
X64947801Y-111759998D03*
X87452201Y-111759998D03*
D15*
X100533201Y-111759998D03*
%TD*%
D13*
%TO.C,BT3*%
X111760003Y-100406204D03*
D14*
X111760003Y-87325204D03*
X111760003Y-64820804D03*
D13*
X111760003Y-51739804D03*
%TD*%
D54*
%TO.C,R19*%
X75233298Y-100330000D03*
X73583298Y-100330000D03*
%TD*%
D55*
%TO.C,R11*%
X73406000Y-73343000D03*
X73406000Y-74993000D03*
%TD*%
D56*
%TO.C,R18*%
X79704698Y-94361000D03*
X81354698Y-94361000D03*
%TD*%
D54*
%TO.C,R12*%
X73342000Y-76962000D03*
X71692000Y-76962000D03*
%TD*%
D57*
%TO.C,C18*%
X75233298Y-98552000D03*
X73683298Y-98552000D03*
%TD*%
D58*
%TO.C,C22*%
X80922898Y-105397000D03*
X80922898Y-106947000D03*
%TD*%
D59*
%TO.C,C11*%
X78486000Y-78384400D03*
X78486000Y-76834400D03*
%TD*%
D60*
%TO.C,C15*%
X78092000Y-89789000D03*
X79642000Y-89789000D03*
%TD*%
D57*
%TO.C,C19*%
X74168000Y-103769266D03*
X72618000Y-103769266D03*
%TD*%
%TO.C,C20*%
X74168000Y-105394862D03*
X72618000Y-105394862D03*
%TD*%
D61*
%TO.C,R9*%
X121485529Y-68245123D03*
X123115215Y-67987007D03*
%TD*%
D62*
%TO.C,R7*%
X118253682Y-53867180D03*
X116783522Y-54616264D03*
%TD*%
D63*
%TO.C,R8*%
X34896560Y-56044884D03*
X33426400Y-55295800D03*
%TD*%
D54*
%TO.C,R20*%
X78979298Y-105394853D03*
X77329298Y-105394853D03*
%TD*%
D57*
%TO.C,C12*%
X72263000Y-81407000D03*
X70713000Y-81407000D03*
%TD*%
D56*
%TO.C,R13*%
X80137000Y-78385200D03*
X81787000Y-78385200D03*
%TD*%
D64*
%TO.C,L1*%
X74116381Y-85865000D03*
X77216381Y-85865000D03*
%TD*%
M02*
